<?xml version="1.0" standalone="no"?>
<!DOCTYPE svg PUBLIC "-//W3C//DTD SVG 1.1//EN" "http://www.w3.org/Graphics/SVG/1.1/DTD/svg11.dtd" >
<svg xmlns="http://www.w3.org/2000/svg">
<metadata></metadata>
<defs>
<font id="evelethclean_regular" horiz-adv-x="1697" >
<font-face units-per-em="2048" ascent="1638" descent="-410" />
<missing-glyph horiz-adv-x="575" />
<glyph horiz-adv-x="2048" />
<glyph horiz-adv-x="2048" />
<glyph unicode="&#xd;" horiz-adv-x="2048" />
<glyph unicode=" "  horiz-adv-x="575" />
<glyph unicode="&#x09;" horiz-adv-x="575" />
<glyph unicode="&#xa0;" horiz-adv-x="575" />
<glyph unicode="!" horiz-adv-x="661" d="M72 223q0 106 76 182t182 76t182 -76t76 -182t-76 -182t-182 -76t-182 76t-76 182zM106 1548q-1 20 12.5 34.5t33.5 14.5h358q20 0 33.5 -14.5t11.5 -34.5l-84 -917q-1 -20 -17 -34.5t-36 -14.5h-174q-20 0 -36.5 14.5t-17.5 34.5z" />
<glyph unicode="&#x22;" horiz-adv-x="1058" d="M98 1548q-2 20 11.5 34.5t33.5 14.5h299q20 0 33.5 -14.5t11.5 -34.5l-53 -614q-1 -20 -17 -34.5t-36 -14.5h-176q-20 0 -36 14.5t-17 34.5zM575 1548q-1 20 12.5 34.5t33.5 14.5h299q20 0 33.5 -14.5t11.5 -34.5l-54 -614q-1 -20 -17 -34.5t-36 -14.5h-176 q-20 0 -36 14.5t-17 34.5z" />
<glyph unicode="#" horiz-adv-x="1609" d="M80 381v252q0 20 14.5 34.5t34.5 14.5h172q18 0 32 11.5t17 29.5l25 149q3 15 -7.5 28t-25.5 13h-113q-20 0 -34.5 15t-14.5 35v254q0 20 14.5 34.5t34.5 14.5h174q18 0 31.5 11.5t16.5 29.5l43 241q3 22 19 35.5t38 13.5h240q19 0 31 -14.5t9 -34.5l-43 -241 q-2 -15 9 -28t26 -13h107q20 0 42 12t25 29l43 241q3 22 19.5 35.5t38.5 13.5h239q19 0 31.5 -14.5t9.5 -34.5l-43 -241q-2 -15 9 -28t26 -13h111q20 0 34.5 -14.5t14.5 -34.5v-254q0 -20 -14.5 -35t-34.5 -15h-172q-18 0 -32 -11.5t-17 -29.5l-25 -149q-3 -15 7.5 -28 t25.5 -13h112q20 0 35 -14.5t15 -34.5v-252q0 -20 -15 -34.5t-35 -14.5h-174q-18 0 -31 -11.5t-16 -29.5l-43 -242q-3 -22 -19 -35.5t-38 -13.5h-240q-19 0 -31.5 14.5t-9.5 34.5l43 242q2 15 -9 28t-26 13h-127q-18 0 -31 -11.5t-16 -29.5l-43 -242q-3 -22 -19 -35.5 t-38 -13.5h-240q-19 0 -31.5 14.5t-9.5 34.5l43 242q2 15 -8.5 28t-25.5 13h-111q-20 0 -34.5 14.5t-14.5 34.5zM688 723q-3 -15 7.5 -28t25.5 -13h127q18 0 32 11.5t17 29.5l25 149q3 15 -7.5 28t-25.5 13h-127q-18 0 -32 -11.5t-17 -29.5z" />
<glyph unicode="$" horiz-adv-x="1230" d="M82 520q-2 22 13.5 38.5t37.5 16.5h281q32 0 45.5 -9t27.5 -38q36 -79 142 -79q31 0 52 6.5t30 16.5t12.5 18t3.5 16q0 19 -32.5 43.5t-133.5 71.5q-12 6 -39 18q-51 24 -79.5 37.5t-80.5 42.5t-83.5 52t-71.5 59.5t-62.5 72.5t-38.5 83.5t-16 98.5q0 128 85 222.5 t216 134.5q39 12 39 55v102q0 20 14.5 35t34.5 15h266q20 0 35 -15t15 -35v-106q0 -43 39 -55q126 -47 206 -138t93 -223q2 -19 -13 -37t-33 -18h-290q-29 0 -43.5 10t-26.5 39q-30 78 -125 78q-28 0 -47 -6.5t-27 -17t-11 -17.5t-3 -14q0 -48 154 -109q147 -58 215 -96 q268 -150 268 -373q0 -136 -88 -231t-229 -135q-39 -9 -39 -54v-98q0 -20 -15 -34.5t-35 -14.5h-266q-20 0 -34.5 14.5t-14.5 34.5v106q0 44 -39 56q-130 43 -213.5 135.5t-95.5 224.5z" />
<glyph unicode="%" horiz-adv-x="2234" d="M72 1180q0 186 131 317t317 131q121 0 224.5 -60t164 -163t60.5 -225q0 -185 -132 -316t-317 -131q-186 0 -317 130.5t-131 316.5zM350.5 13.5q-7.5 13.5 1.5 25.5l1094 1520q30 38 78 38h346q15 0 22 -13t-2 -25l-1093 -1520q-31 -39 -78 -39h-346q-15 0 -22.5 13.5z M414 1180q0 -44 31 -75.5t75 -31.5t76.5 31.5t32.5 75.5t-32.5 76t-76.5 32t-75 -32t-31 -76zM1268 410q0 186 131 317t317 131q121 0 224.5 -60t164 -163t60.5 -225q0 -185 -132 -316t-317 -131q-186 0 -317 130.5t-131 316.5zM1610 410q0 -44 31 -75.5t75 -31.5t76.5 31.5 t32.5 75.5t-32.5 76t-76.5 32t-75 -32t-31 -76z" />
<glyph unicode="&#x26;" horiz-adv-x="1677" d="M49 420q0 60 17.5 114t43 93t68 78t78.5 64.5t88 57.5q15 9 19 25t-5 31q-49 79 -74.5 145.5t-25.5 149.5q0 123 66.5 227t178.5 163.5t242 59.5q128 0 238.5 -57.5t176 -156.5t65.5 -216q0 -121 -66 -210t-176 -161q-13 -9 -15 -26t9 -29l113 -123q12 -12 29.5 -13 t31.5 9q36 29 101 87.5t71 64.5q13 15 35 15t37 -15l217 -209q14 -13 13.5 -34.5t-15.5 -33.5q-87 -87 -191 -170q-12 -11 -13 -27t11 -28l238 -258q9 -11 3 -24t-20 -13h-421q-47 0 -82 35l-37 39q-11 13 -37 15.5t-43 -5.5q-225 -115 -436 -115q-127 0 -230.5 38 t-168 101.5t-99.5 143.5t-35 168zM457 451q0 -47 35.5 -77t97.5 -30q73 0 166 41q12 6 15 21t-7 26l-148 160q-9 10 -28 11.5t-31 -7.5q-50 -38 -75 -72t-25 -73zM639 1182q0 -45 61 -117q10 -12 28.5 -12.5t31.5 8.5q102 69 102 129q0 40 -33.5 67t-76.5 27 q-46 0 -79.5 -30.5t-33.5 -71.5z" />
<glyph unicode="'" horiz-adv-x="581" d="M96 1548q-2 20 11.5 34.5t33.5 14.5h299q20 0 33.5 -14.5t11.5 -34.5l-53 -614q-1 -20 -17 -34.5t-36 -14.5h-176q-20 0 -36 14.5t-17 34.5z" />
<glyph unicode="(" horiz-adv-x="888" d="M49 799q0 203 43 392.5t118.5 343t167.5 275.5t200 218q14 13 34.5 11t32.5 -16l191 -237q12 -17 10 -36.5t-17 -33.5q-160 -143 -262 -380t-102 -537q0 -299 102 -536t262 -380q34 -34 5 -71l-189 -236q-12 -14 -32.5 -15.5t-34.5 11.5q-108 96 -200 218t-167.5 275.5 t-118.5 342.5t-43 391z" />
<glyph unicode=")" horiz-adv-x="888" d="M42.5 -149.5q1.5 19.5 16.5 32.5q160 143 262.5 380.5t102.5 537.5q0 299 -102.5 535.5t-262.5 379.5q-15 15 -16 35t12 37l189 235q12 14 32.5 16t34.5 -11q108 -96 200 -218t167.5 -275.5t118.5 -342.5t43 -391q0 -203 -43 -392.5t-118.5 -343t-167.5 -275.5t-200 -218 q-14 -13 -34.5 -11.5t-32.5 15.5l-191 238q-12 17 -10.5 36.5z" />
<glyph unicode="*" horiz-adv-x="1103" d="M92 1159l92 283q6 18 24.5 24.5t35.5 -2.5l127 -75q11 -6 20 1t6 19l-28 139q-4 19 8 34t31 15h299q18 0 29.5 -14.5t8.5 -32.5l-32 -147q-2 -12 7.5 -19.5t18.5 -1.5l125 70q17 9 35.5 2.5t22.5 -24.5l94 -285q5 -19 -5.5 -34.5t-29.5 -16.5l-145 -15q-12 -2 -16 -12 t5 -18l103 -95q13 -12 12.5 -31t-14.5 -30l-244 -176q-13 -11 -32.5 -6t-26.5 22l-60 135q-4 10 -16.5 10t-16.5 -10l-57 -131q-7 -17 -26.5 -22t-32.5 6l-242 178q-15 10 -15.5 30t13.5 32l111 100q9 8 5 18.5t-16 12.5l-145 16q-19 2 -29 17t-4 34z" />
<glyph unicode="+" horiz-adv-x="1122" d="M84 612v273q0 20 14.5 34.5t34.5 14.5h201q17 0 29 12t12 29v196q0 20 14.5 35t34.5 15h274q20 0 35 -15t15 -35v-196q0 -17 11.5 -29t28.5 -12h201q20 0 34.5 -14.5t14.5 -34.5v-273q0 -20 -14.5 -34.5t-34.5 -14.5h-201q-17 0 -28.5 -12t-11.5 -29v-198q0 -20 -15 -35 t-35 -15h-274q-20 0 -34.5 15t-14.5 35v198q0 17 -12 29t-29 12h-201q-20 0 -34.5 14.5t-14.5 34.5z" />
<glyph unicode="," horiz-adv-x="661" d="M72 -206.5q-1 21.5 12 36.5q51 57 96 123q9 14 6.5 33t-14.5 30q-100 95 -100 207q0 106 76 182t182 76t181 -76t75 -202q0 -113 -86.5 -242.5t-253.5 -290.5q-13 -14 -35 -13.5t-35 15.5l-88 86q-15 14 -16 35.5z" />
<glyph unicode="-" horiz-adv-x="854" d="M117 524v285q0 20 14.5 34.5t34.5 14.5h522q20 0 34.5 -14.5t14.5 -34.5v-285q0 -20 -14.5 -34.5t-34.5 -14.5h-522q-20 0 -34.5 14.5t-14.5 34.5z" />
<glyph unicode="." horiz-adv-x="655" d="M70 223q0 106 76 182t182 76t182 -76t76 -182t-76 -182t-182 -76t-182 76t-76 182z" />
<glyph unicode="/" horiz-adv-x="1718" d="M66 -322l1140 2241q11 19 30.5 31t41.5 12h344q17 0 26 -14t1 -29l-1145 -2241q-11 -19 -30.5 -31t-41.5 -12h-340q-17 0 -25.5 14t-0.5 29z" />
<glyph unicode="0" horiz-adv-x="1476" d="M63 799q0 129 27 249.5t82.5 226t134 184t188.5 124t240 45.5t241 -45.5t190 -124t135.5 -183.5t84 -226t27.5 -250t-27.5 -250.5t-84 -226.5t-136 -184t-190 -124t-240.5 -45t-240 45t-188.5 123.5t-134 184t-82.5 226.5t-27 251zM471 799q0 -199 74 -316.5t190 -117.5 q117 0 193 118t76 316t-76 315t-193 117q-116 0 -190 -116.5t-74 -315.5z" />
<glyph unicode="1" horiz-adv-x="804" d="M63 1100v327q0 22 13 40.5t35 25.5l256 88q43 16 96 16h176q20 0 34.5 -14.5t14.5 -34.5v-1499q0 -20 -14.5 -34.5t-34.5 -14.5h-309q-20 0 -34.5 14.5t-14.5 34.5v1036q0 15 -13 24t-26 3l-131 -45q-19 -6 -33.5 4t-14.5 29z" />
<glyph unicode="2" horiz-adv-x="1327" d="M74 49v211q0 50 37 82l528 489q110 103 149 154.5t39 110.5q0 61 -41 98t-112 37q-80 0 -130 -47.5t-50 -132.5q0 -27 -8 -37t-27 -10h-328q-37 0 -37 47q0 114 34.5 211t92.5 163.5t134.5 113t158.5 68t166 21.5q151 0 277.5 -62.5t205 -185.5t78.5 -284 q0 -90 -25.5 -170t-81.5 -154t-91.5 -112.5t-106.5 -105.5q-17 -16 -25 -24l-104 -96q-9 -6 -5 -16t15 -10h365q20 0 34.5 -15t14.5 -35v-309q0 -20 -14.5 -34.5t-34.5 -14.5h-1059q-20 0 -34.5 14.5t-14.5 34.5z" />
<glyph unicode="3" horiz-adv-x="1282" d="M62 131q-5 20 6 37l165 252q12 18 32.5 23.5t39.5 -3.5q162 -75 289 -75q98 0 149.5 34t51.5 95q0 138 -336 149q-20 0 -34.5 14.5t-14.5 34.5v234q0 21 14 35t35 14q90 4 153.5 19t95 38.5t45 48t13.5 52.5q0 47 -40 83.5t-110 36.5q-114 0 -145 -73q-11 -30 -26.5 -42 t-45.5 -12h-284q-39 0 -39 41q0 108 46.5 197t123.5 145.5t173 87.5t199 31q106 0 205 -31t176.5 -87t124.5 -141t47 -185q0 -208 -163 -338q-12 -9 -11 -23t13 -22q207 -125 207 -342q0 -147 -84 -260t-221.5 -171.5t-303.5 -58.5q-263 0 -524 135q-17 7 -22 27z" />
<glyph unicode="4" horiz-adv-x="1368" d="M33 324v219q0 46 24 92l512 919q10 20 31 31.5t43 11.5h356q17 0 25.5 -14t-0.5 -29l-487 -862q-7 -12 -0.5 -23.5t20.5 -11.5h164q17 0 29 12t12 29v211q0 20 14.5 34.5t34.5 14.5h297q20 0 34.5 -14.5t14.5 -34.5v-211q0 -17 12 -29t29 -12h66q20 0 34.5 -14.5 t14.5 -34.5v-284q0 -20 -14.5 -35t-34.5 -15h-66q-17 0 -29 -12t-12 -29v-184q0 -20 -14.5 -34.5t-34.5 -14.5h-297q-20 0 -34.5 14.5t-14.5 34.5v184q0 17 -12 29t-29 12h-639q-20 0 -34.5 15t-14.5 35z" />
<glyph unicode="5" horiz-adv-x="1335" d="M56 314.5q5 20.5 20 29.5l262 152q45 26 76 -13q105 -114 239 -114q93 0 149 48t56 122q0 64 -39 113.5t-123 49.5q-100 0 -202 -86q-39 -32 -84 -10l-254 117q-20 9 -30 28.5t-7 41.5l137 755q3 22 19 35.5t38 13.5h801q20 0 34.5 -14.5t14.5 -34.5v-313 q0 -20 -14.5 -34.5t-34.5 -14.5h-506q-17 0 -30.5 -12t-14.5 -29l-10 -72q-2 -15 9 -24t26 -5q62 21 166 21q223 0 371.5 -151.5t148.5 -376.5q0 -161 -81 -291.5t-222.5 -203.5t-315.5 -73q-189 0 -342 85.5t-252 224.5q-10 15 -5 35.5z" />
<glyph unicode="6" horiz-adv-x="1331" d="M53 571q0 207 152 416l420 572q26 38 77 38h396q15 0 22 -13t-2 -25l-307 -422q-9 -11 -3.5 -23t19.5 -14q196 -30 321.5 -169t125.5 -349q0 -169 -81 -310t-219.5 -222t-303.5 -81q-170 0 -312 81.5t-223.5 220t-81.5 300.5zM453 588q0 -96 61.5 -157.5t151.5 -61.5 q88 0 148 62t60 151q0 87 -60.5 148t-149.5 61q-97 0 -168 -84q-43 -51 -43 -119z" />
<glyph unicode="7" horiz-adv-x="1191" d="M66 1237v311q0 20 14.5 34.5t34.5 14.5h993q20 0 34.5 -14.5t14.5 -34.5v-231q0 -52 -22 -94l-580 -1178q-10 -20 -30 -32.5t-42 -12.5h-364q-17 0 -26 14t-1 29l580 1108q6 12 -2 24.5t-21 12.5h-534q-20 0 -34.5 14.5t-14.5 34.5z" />
<glyph unicode="8" horiz-adv-x="1388" d="M61 473q0 227 177 350q14 9 15 23.5t-11 25.5q-117 108 -117 287q0 138 79 246.5t208.5 165.5t283.5 57q151 0 280.5 -57t209.5 -165.5t80 -246.5q0 -176 -121 -287q-11 -10 -10 -25t14 -24q178 -124 178 -350q0 -147 -88 -263.5t-231 -178.5t-312 -62q-172 0 -316.5 62 t-231.5 178.5t-87 263.5zM479 508q0 -72 59 -126t158 -54q96 0 154.5 54t58.5 126t-58.5 126t-154.5 54q-100 0 -158.5 -53.5t-58.5 -126.5zM530 1141q0 -62 43.5 -107t122.5 -45q77 0 120.5 45t43.5 107q0 57 -43.5 100t-120.5 43q-78 0 -122 -43t-44 -100z" />
<glyph unicode="9" horiz-adv-x="1331" d="M57 1016q0 127 48 240.5t129 195t193 129t235 47.5q127 0 241.5 -48t196.5 -129.5t130 -192.5t48 -232q0 -207 -152 -416l-419 -571q-27 -39 -78 -39h-396q-15 0 -22 13.5t2 25.5l307 422q9 11 3.5 23t-19.5 14q-196 30 -321.5 169t-125.5 349zM457 1016q0 -87 61 -148 t150 -61q97 0 168 84q43 51 43 119q0 96 -61.5 157.5t-151.5 61.5q-88 0 -148.5 -62t-60.5 -151z" />
<glyph unicode=":" horiz-adv-x="716" d="M100 223q0 106 76 182t182 76t182 -76t76 -182t-76 -182t-182 -76t-182 76t-76 182zM100 907q0 106 76 182t182 76t182 -76t76 -182t-76 -182t-182 -76t-182 76t-76 182z" />
<glyph unicode=";" horiz-adv-x="718" d="M98 907q0 106 76 182t182 76t182 -76t76 -182t-76 -182t-182 -76t-182 76t-76 182zM102 223q0 106 76 182t182 76t181 -76t75 -202q0 -113 -86.5 -242.5t-253.5 -290.5q-13 -14 -34.5 -13.5t-34.5 15.5l-88 86q-15 14 -16 35.5t12 36.5q51 57 96 123q9 14 6.5 33 t-14.5 30q-101 96 -101 207z" />
<glyph unicode="&#x3c;" horiz-adv-x="1198" d="M76 621v256q0 22 12.5 41t32.5 28l899 424q15 8 30 -2t15 -27v-335q0 -22 -12.5 -41.5t-32.5 -26.5l-424 -172q-10 -4 -10.5 -16.5t8.5 -16.5l426 -174q20 -7 32.5 -26t12.5 -41v-334q0 -17 -15 -27t-30 -2l-899 422q-20 9 -32.5 28.5t-12.5 41.5z" />
<glyph unicode="=" horiz-adv-x="1187" d="M117 383v272q0 20 14.5 35t34.5 15h856q20 0 34.5 -15t14.5 -35v-272q0 -20 -14.5 -34.5t-34.5 -14.5h-856q-20 0 -34.5 14.5t-14.5 34.5zM117 844v274q0 20 14.5 34.5t34.5 14.5h856q20 0 34.5 -14.5t14.5 -34.5v-274q0 -20 -14.5 -34.5t-34.5 -14.5h-856 q-20 0 -34.5 14.5t-14.5 34.5z" />
<glyph unicode="&#x3e;" horiz-adv-x="1198" d="M133 158v336q0 22 12.5 41t32.5 26l424 172q10 4 10.5 16.5t-8.5 16.5l-426 174q-20 7 -32.5 26.5t-12.5 41.5v333q0 17 15 27t30 2l899 -422q20 -9 32.5 -28t12.5 -41v-256q0 -22 -12.5 -41.5t-32.5 -28.5l-899 -424q-15 -8 -30 2t-15 27z" />
<glyph unicode="?" horiz-adv-x="1210" d="M74 1098v35q0 97 33 179.5t88 139.5t127 97.5t149.5 59.5t155.5 19q133 0 246.5 -56t184 -165t70.5 -250q0 -74 -20.5 -138t-57 -112t-71.5 -80t-80 -63q-15 -11 -46.5 -32t-45.5 -32t-33.5 -28.5t-29.5 -36.5t-15 -41q-7 -27 -33 -27h-274q-19 0 -32 13t-13 32v21 q0 57 16 109t36.5 87.5t57.5 73.5t62 58t67 51q51 39 75 68t24 69q0 36 -26.5 66t-78.5 30q-49 0 -86 -30t-47 -93q-5 -25 -20 -41t-39 -16h-314q-12 0 -21 10t-9 23zM297 223q0 106 76 182t182 76t182 -76t76 -182t-76 -182t-182 -76t-182 76t-76 182z" />
<glyph unicode="@" horiz-adv-x="1966" d="M78 725q0 131 36.5 256.5t101.5 232t157 196.5t200 153t234 98t256 35q173 0 326.5 -66t262.5 -178.5t172.5 -267.5t63.5 -328q0 -138 -41 -253.5t-109.5 -191t-156.5 -117.5t-182 -42q-171 0 -281 121q-26 29 -65 18q-53 -12 -107 -12q-162 0 -271.5 112t-109.5 273 q0 119 63 222.5t168 163.5t224 60q162 0 271.5 -112t109.5 -273q0 -115 -60 -217q-6 -10 0 -27.5t17 -23.5q21 -8 47 -8q73 0 123.5 77t50.5 208q0 113 -41.5 215t-113.5 176t-173 117.5t-215 43.5q-172 0 -321.5 -86t-237.5 -233t-88 -319q0 -112 41.5 -212.5t113 -173.5 t173 -116t215.5 -43q104 0 172 20q50 13 74 -28l96 -162q9 -15 2.5 -34.5t-23.5 -25.5q-175 -69 -350 -69q-173 0 -326.5 64.5t-262.5 174.5t-172.5 261.5t-63.5 320.5zM870 786q0 -45 29 -75.5t74 -30.5q51 0 88 36t37 87q0 45 -31 75.5t-76 30.5q-51 0 -86 -36t-35 -87z " />
<glyph unicode="A" d="M18 45l611 1507q7 20 26 32.5t41 12.5h308q22 0 41 -12.5t26 -32.5l608 -1507q2 -6 2 -13q0 -10 -5 -18q-9 -14 -27 -14h-349q-22 0 -40 12.5t-25 32.5l-57 150q-6 17 -21.5 27.5t-34.5 10.5h-547q-19 0 -34 -10.5t-21 -27.5l-57 -150q-7 -20 -25.5 -32.5t-40.5 -12.5 h-348q-17 0 -27 15q-6 9 -6 18q0 6 2 12zM688 643q-2 -5 -2 -10q0 -9 6 -17q8 -12 23 -12h268q15 0 23 12q5 8 6 17q0 5 -2 10l-146 391q-3 10 -14 10t-14 -10z" />
<glyph unicode="B" horiz-adv-x="1560" d="M123 49v1499q0 20 14.5 34.5t34.5 14.5h746q250 0 384 -121t134 -319q0 -204 -160 -315q-11 -7 -10.5 -19t12.5 -18q229 -107 229 -354q0 -201 -140 -326t-380 -125h-815q-20 0 -34.5 14.5t-14.5 34.5zM532 412q0 -17 12 -29t29 -12h369q152 0 152 143q0 137 -152 137 h-369q-17 0 -29 -12t-12 -29v-198zM532 1012q0 -17 12 -29t29 -12h297q152 0 152 127q0 59 -33 93t-96 34h-320q-17 0 -29 -12t-12 -29v-172z" />
<glyph unicode="C" horiz-adv-x="1673" d="M47 799q0 168 68 322t182.5 264.5t271 176.5t326.5 66q230 0 424.5 -111.5t306.5 -299.5q9 -15 4 -36t-22 -28l-283 -125q-20 -11 -40 -5t-32 26q-60 85 -154 134.5t-204 49.5q-180 0 -307 -126.5t-127 -307.5t127 -307.5t307 -126.5q111 0 204.5 49.5t153.5 134.5 q12 20 32 25.5t40 -3.5l285 -125q17 -6 23 -26q2 -7 2 -13q0 -12 -7 -22q-110 -190 -306.5 -303t-426.5 -113q-170 0 -326.5 66t-271 177t-182.5 265t-68 322z" />
<glyph unicode="D" horiz-adv-x="1675" d="M123 49v1499q0 20 14.5 34.5t34.5 14.5h692q182 0 328 -63.5t238.5 -173.5t141 -253t48.5 -308q0 -132 -30 -250.5t-92.5 -219t-151 -174t-212 -114.5t-270.5 -41h-692q-20 0 -34.5 14.5t-14.5 34.5zM532 436q0 -17 12 -29t29 -12h261q179 0 275.5 109.5t96.5 294.5 q0 184 -96.5 292.5t-275.5 108.5h-261q-17 0 -29 -12t-12 -29v-723z" />
<glyph unicode="E" horiz-adv-x="1425" d="M123 49v1499q0 20 14.5 34.5t34.5 14.5h1128q20 0 35 -14.5t15 -34.5v-299q0 -20 -15 -34.5t-35 -14.5h-727q-17 0 -29 -12t-12 -29v-147q0 -17 12 -29t29 -12h582q20 0 34.5 -14.5t14.5 -34.5v-273q0 -20 -14.5 -34.5t-34.5 -14.5h-582q-17 0 -29 -12t-12 -29v-123 q0 -17 12 -29t29 -12h727q20 0 35 -14.5t15 -34.5v-297q0 -20 -15 -34.5t-35 -14.5h-1128q-20 0 -34.5 14.5t-14.5 34.5z" />
<glyph unicode="F" horiz-adv-x="1361" d="M123 49v1499q0 20 14.5 34.5t34.5 14.5h1088q20 0 34.5 -14.5t14.5 -34.5v-299q0 -20 -14.5 -34.5t-34.5 -14.5h-689q-17 0 -29 -12t-12 -29v-201q0 -17 12 -28.5t29 -11.5h564q20 0 34.5 -15t14.5 -35v-272q0 -20 -14.5 -34.5t-34.5 -14.5h-564q-17 0 -29 -12t-12 -29 v-457q0 -20 -14.5 -34.5t-34.5 -14.5h-309q-20 0 -34.5 14.5t-14.5 34.5z" />
<glyph unicode="G" horiz-adv-x="1703" d="M47 799q0 168 68 321.5t182 264.5t270.5 177t327.5 66q188 0 356.5 -79t288.5 -216q12 -15 9.5 -34.5t-17.5 -30.5l-252 -170q-18 -12 -35 -12q-21 0 -41 20q-60 60 -140 93.5t-169 33.5q-181 0 -307.5 -126.5t-126.5 -307.5t126.5 -307.5t307.5 -126.5q99 0 185.5 44 t144.5 121q12 16 12 35v6q0 8 -6.5 14.5t-13.5 6.5h-318q-20 0 -34.5 14.5t-14.5 34.5v242q0 20 14.5 34.5t34.5 14.5h672q20 0 34.5 -14.5t14.5 -34.5v-834q0 -20 -14.5 -34.5t-34.5 -14.5h-223q-20 0 -35 14.5t-15 34.5v60q0 9 -9 12t-15 -4q-62 -70 -164 -109t-215 -39 q-171 0 -327.5 66t-270.5 177t-182 265t-68 322z" />
<glyph unicode="H" horiz-adv-x="1714" d="M123 49v1499q0 20 14.5 34.5t34.5 14.5h309q20 0 34.5 -14.5t14.5 -34.5v-530q0 -17 12 -29t29 -12h570q17 0 29 12t12 29v530q0 20 14.5 34.5t34.5 14.5h311q20 0 34.5 -14.5t14.5 -34.5v-1499q0 -20 -14.5 -34.5t-34.5 -14.5h-311q-20 0 -34.5 14.5t-14.5 34.5v504 q0 17 -12 29t-29 12h-570q-17 0 -29 -12t-12 -29v-504q0 -20 -14.5 -34.5t-34.5 -14.5h-309q-20 0 -34.5 14.5t-14.5 34.5z" />
<glyph unicode="I" horiz-adv-x="655" d="M123 49v1499q0 20 14.5 34.5t34.5 14.5h311q20 0 34.5 -14.5t14.5 -34.5v-1499q0 -20 -14.5 -34.5t-34.5 -14.5h-311q-20 0 -34.5 14.5t-14.5 34.5z" />
<glyph unicode="J" horiz-adv-x="1361" d="M33 592v90q0 20 14.5 34.5t34.5 14.5h311q20 0 34.5 -14.5t14.5 -34.5v-84q0 -68 16 -116t46 -72.5t64 -34.5t77 -10q99 0 150 50t51 183v950q0 20 14.5 34.5t34.5 14.5h309q20 0 34.5 -14.5t14.5 -34.5v-956q0 -156 -48 -277t-132 -195.5t-192.5 -112.5t-235.5 -38 q-123 0 -231 38t-194 112t-136.5 196t-50.5 277z" />
<glyph unicode="K" horiz-adv-x="1572" d="M123 49v1499q0 20 14.5 34.5t34.5 14.5h311q20 0 34.5 -14.5t14.5 -34.5v-461q0 -10 10.5 -14t16.5 4l436 484q31 36 82 36h430q14 0 20 -12.5t-3 -23.5l-570 -619q-12 -14 -13 -31.5t9 -31.5l611 -840q5 -7 5 -14q0 -5 -4 -11q-8 -14 -22 -14h-410q-50 0 -77 39 l-387 530q-9 12 -26 13t-26 -11l-55 -59q-27 -30 -27 -72v-391q0 -20 -14.5 -34.5t-34.5 -14.5h-311q-20 0 -34.5 14.5t-14.5 34.5z" />
<glyph unicode="L" horiz-adv-x="1323" d="M123 49v1499q0 20 14.5 34.5t34.5 14.5h309q20 0 34.5 -14.5t14.5 -34.5v-1112q0 -17 12 -29t29 -12h676q20 0 34.5 -14.5t14.5 -34.5v-297q0 -20 -14.5 -34.5t-34.5 -14.5h-1075q-20 0 -34.5 14.5t-14.5 34.5z" />
<glyph unicode="M" horiz-adv-x="1992" d="M123 49v1499q0 20 14.5 34.5t34.5 14.5h313q22 0 41.5 -12t30.5 -31l420 -835q6 -12 18.5 -12t18.5 12l422 835q24 43 71 43h314q20 0 34.5 -14.5t14.5 -34.5v-1499q0 -20 -14.5 -34.5t-34.5 -14.5h-310q-20 0 -34.5 14.5t-14.5 34.5v729q0 8 -7.5 9.5t-10.5 -5.5 l-291 -583q-11 -19 -30.5 -31t-41.5 -12h-170q-47 0 -71 43l-291 583q-3 7 -11 5.5t-8 -9.5v-729q0 -20 -14.5 -34.5t-34.5 -14.5h-309q-20 0 -34.5 14.5t-14.5 34.5z" />
<glyph unicode="N" horiz-adv-x="1714" d="M123 49v1499q0 20 14.5 34.5t34.5 14.5h250q53 0 80 -38l657 -822q6 -9 15.5 -6t9.5 14v803q0 20 14.5 34.5t34.5 14.5h309q20 0 34.5 -14.5t14.5 -34.5v-1499q0 -20 -14.5 -34.5t-34.5 -14.5h-248q-52 0 -80 39l-657 819q-6 9 -15.5 6t-9.5 -14v-801q0 -20 -14.5 -34.5 t-34.5 -14.5h-311q-20 0 -34.5 14.5t-14.5 34.5z" />
<glyph unicode="O" horiz-adv-x="1789" d="M47 799q0 168 68 322t182.5 264.5t271 176.5t326.5 66q172 0 329 -66t270.5 -177t181 -264.5t67.5 -321.5t-67.5 -322t-181 -265t-270.5 -177t-329 -66q-170 0 -326.5 66t-271 177t-182.5 265t-68 322zM461 799q0 -181 127 -307.5t307 -126.5q184 0 309 126t125 308 t-125 308t-309 126q-180 0 -307 -126.5t-127 -307.5z" />
<glyph unicode="P" horiz-adv-x="1488" d="M123 49v1499q0 20 14.5 34.5t34.5 14.5h655q154 0 276 -50t197.5 -135.5t114.5 -194.5t39 -232q0 -129 -39 -240.5t-114.5 -197.5t-197.5 -135.5t-276 -49.5h-254q-17 0 -29 -11.5t-12 -28.5v-273q0 -20 -14.5 -34.5t-34.5 -14.5h-311q-20 0 -34.5 14.5t-14.5 34.5z M532 776q0 -17 12 -29t29 -12h232q122 0 178.5 67t56.5 181q0 105 -57 173.5t-178 68.5h-232q-17 0 -29 -12t-12 -29v-408z" />
<glyph unicode="Q" horiz-adv-x="1755" d="M47 799q0 224 112.5 415.5t303.5 302.5t414 111q168 0 321.5 -66t264.5 -177t177 -264.5t66 -321.5q0 -214 -102.5 -398t-274.5 -297q-11 -8 -11 -21.5t11 -21.5q95 -63 172 -63q61 0 107 35q20 16 39.5 16t38.5 -16l227 -185q17 -11 17 -37q0 -18 -11 -30 q-81 -91 -193.5 -134.5t-222.5 -43.5q-92 0 -181 31.5t-164 81t-145.5 101t-154.5 100.5t-162 71q-183 42 -331 158t-233 287.5t-85 365.5zM461 799q0 -181 121.5 -307.5t294.5 -126.5q176 0 295.5 126t119.5 308t-119.5 308t-295.5 126q-173 0 -294.5 -126.5t-121.5 -307.5 z" />
<glyph unicode="R" horiz-adv-x="1568" d="M123 49v1499q0 20 14.5 34.5t34.5 14.5h731q149 0 265.5 -46t188 -127t108 -185t36.5 -225q0 -165 -70 -301t-208 -211q-15 -7 -18.5 -23.5t5.5 -29.5l293 -408q5 -7 5 -15q0 -6 -3 -12q-7 -14 -22 -14h-391q-48 0 -78 41l-250 354q-23 33 -66 33h-127q-17 0 -29 -12 t-12 -29v-338q0 -20 -14.5 -34.5t-34.5 -14.5h-309q-20 0 -34.5 14.5t-14.5 34.5zM530 840q0 -17 12 -29t29 -12h310q115 0 170 59.5t55 151.5q0 99 -54 157t-171 58h-310q-17 0 -29 -12t-12 -29v-344z" />
<glyph unicode="S" horiz-adv-x="1431" d="M61 422q-1 22 15.5 39.5t38.5 17.5h276q34 0 48 -9.5t34 -43.5q24 -44 89.5 -73t166.5 -29q106 0 154.5 28.5t48.5 69.5q0 49 -60 85.5t-213 88.5q-67 22 -113.5 39t-113 46.5t-112 57.5t-96 70.5t-81.5 88t-51 106t-20 129.5q0 226 173.5 360.5t450.5 134.5 q279 0 459 -132.5t195 -348.5q1 -22 -15.5 -39.5t-38.5 -17.5h-284q-52 0 -70 55q-20 56 -81 92.5t-156 36.5q-97 0 -146 -32t-49 -77t55 -76.5t209 -84.5q210 -74 316 -136q282 -164 282 -424q0 -152 -83.5 -260.5t-225 -161.5t-326.5 -53q-183 0 -329.5 51.5t-239.5 155 t-107 246.5z" />
<glyph unicode="T" horiz-adv-x="1454" d="M25 1249v299q0 20 14.5 34.5t34.5 14.5h1306q20 0 35 -14.5t15 -34.5v-299q0 -20 -15 -34.5t-35 -14.5h-407q-17 0 -29 -12t-12 -29v-1110q0 -20 -14.5 -34.5t-34.5 -14.5h-312q-20 0 -34.5 14.5t-14.5 34.5v1110q0 17 -12 29t-29 12h-407q-20 0 -34.5 14.5t-14.5 34.5z " />
<glyph unicode="U" horiz-adv-x="1669" d="M100 698v850q0 20 15 34.5t35 14.5h311q20 0 34.5 -14.5t14.5 -34.5v-825q0 -174 82.5 -266t241.5 -92q161 0 244 92t83 266v825q0 20 14.5 34.5t34.5 14.5h310q20 0 34.5 -14.5t14.5 -34.5v-850q0 -155 -48.5 -287.5t-139.5 -231t-231.5 -154.5t-315.5 -56t-316 56 t-231.5 154.5t-138.5 230.5t-48 288z" />
<glyph unicode="V" d="M18 1552q-2 6 -2 12q0 9 6 18q10 15 27 15h348q22 0 40.5 -12.5t25.5 -32.5l371 -989q3 -11 14 -11t14 11l373 989q7 20 25 32.5t40 12.5h349q18 -1 27 -15q5 -9 5 -17q0 -6 -2 -13l-610 -1507q-7 -20 -26.5 -32.5t-41.5 -12.5h-307q-22 0 -41 12.5t-26 32.5z" />
<glyph unicode="W" horiz-adv-x="2349" d="M10 1550q-2 5 -2 10q0 11 8 22q12 15 31 15h338q22 0 39.5 -13.5t21.5 -33.5l236 -866q2 -8 11 -8.5t12 8.5l272 866q6 21 23.5 34t39.5 13h267q22 0 39.5 -13t23.5 -34l272 -864q3 -9 12 -8.5t11 8.5l236 864q4 20 21.5 33.5t39.5 13.5h340q18 0 30 -15q8 -10 9 -22 q0 -5 -2 -10l-424 -1503q-4 -20 -22 -33.5t-40 -13.5h-325q-22 0 -40 13t-24 34l-278 842q-3 9 -12.5 9t-12.5 -9l-276 -842q-6 -21 -24 -34t-40 -13h-325q-22 0 -40 13.5t-22 33.5z" />
<glyph unicode="X" horiz-adv-x="1572" d="M21 14q-3 6 -3 12q0 8 5 15l497 727q9 15 9 35t-9 35l-487 718q-8 14 -0.5 27.5t22.5 13.5h385q48 0 78 -41l246 -360q7 -13 22.5 -13.5t22.5 11.5l248 362q30 41 78 41h385q15 0 22.5 -13.5t-0.5 -27.5l-487 -718q-9 -15 -9 -35t9 -35l497 -727q5 -7 5 -15q0 -6 -3 -12 q-7 -14 -22 -14h-399q-50 0 -76 41l-248 362q-7 12 -22 12t-23 -12l-246 -362q-26 -41 -76 -41h-399q-15 0 -22 14z" />
<glyph unicode="Y" horiz-adv-x="1671" d="M25 1584q7 13 24 13h383q52 0 74 -43l307 -501q6 -12 20.5 -12t20.5 12l307 503q26 41 76 41h385q17 0 24 -13q4 -7 4 -13q0 -7 -5 -15l-584 -935q-23 -33 -23 -76v-496q0 -20 -14.5 -34.5t-34.5 -14.5h-309q-20 0 -34.5 14.5t-14.5 34.5v496q0 43 -23 76l-581 935 q-5 8 -5 16q0 6 3 12z" />
<glyph unicode="Z" horiz-adv-x="1492" d="M63 49v201q0 45 31 88l686 831q8 9 3 20t-17 11h-629q-20 0 -34.5 14.5t-14.5 34.5v299q0 20 14.5 34.5t34.5 14.5h1231q20 0 34.5 -14.5t14.5 -34.5v-200q0 -45 -31 -88l-688 -834q-8 -9 -2.5 -20t17.5 -11h657q20 0 34.5 -14.5t14.5 -34.5v-297q0 -20 -14.5 -34.5 t-34.5 -14.5h-1257q-20 0 -35 14.5t-15 34.5z" />
<glyph unicode="[" horiz-adv-x="808" d="M119 -395v2390q0 20 14.5 34.5t34.5 14.5h522q20 0 34.5 -14.5t14.5 -34.5v-287q0 -20 -14.5 -34.5t-34.5 -14.5h-123q-17 0 -29 -12t-12 -29v-1638q0 -17 12 -29t29 -12h123q20 0 34.5 -15t14.5 -35v-284q0 -20 -14.5 -34.5t-34.5 -14.5h-522q-20 0 -34.5 14.5 t-14.5 34.5z" />
<glyph unicode="\" horiz-adv-x="1716" d="M63 1919q-8 15 1 29t26 14h344q22 0 41.5 -12t30.5 -31l1141 -2241q8 -15 -1 -29t-26 -14h-340q-22 0 -41.5 12t-30.5 31z" />
<glyph unicode="]" horiz-adv-x="808" d="M70 -111q0 20 14.5 35t34.5 15h123q17 0 29 12t12 29v1638q0 17 -12 29t-29 12h-123q-20 0 -34.5 14.5t-14.5 34.5v285q0 20 14.5 34.5t34.5 14.5h522q20 0 34.5 -14.5t14.5 -34.5v-2390q0 -20 -14.5 -34.5t-34.5 -14.5h-522q-20 0 -34.5 14.5t-14.5 34.5v286z" />
<glyph unicode="^" horiz-adv-x="1429" d="M96 694l418 858q10 20 30 32.5t42 12.5h256q22 0 41 -12.5t30 -32.5l420 -858q7 -17 -1 -31t-25 -14h-336q-22 0 -41.5 12.5t-28.5 32.5l-170 383q-4 11 -16.5 11t-16.5 -11l-172 -383q-9 -20 -28 -32.5t-41 -12.5h-334q-17 0 -25.5 14t-1.5 31z" />
<glyph unicode="_" horiz-adv-x="1447" d="M98 -94q0 20 14.5 34.5t34.5 14.5h1153q20 0 35 -14.5t15 -34.5v-254q0 -20 -15 -34.5t-35 -14.5h-1153q-20 0 -34.5 14.5t-14.5 34.5v254z" />
<glyph unicode="`" horiz-adv-x="731" d="M19 1954q-6 20 4 37l149 258q9 17 29 21t37 -7l450 -321q17 -12 22 -32.5t-5 -39.5l-89 -152q-10 -19 -30 -25t-39 3l-504 231q-18 7 -24 27z" />
<glyph unicode="a" d="M18 45l611 1507q7 20 26 32.5t41 12.5h308q22 0 41 -12.5t26 -32.5l608 -1507q2 -6 2 -13q0 -10 -5 -18q-9 -14 -27 -14h-349q-22 0 -40 12.5t-25 32.5l-57 150q-6 17 -21.5 27.5t-34.5 10.5h-547q-19 0 -34 -10.5t-21 -27.5l-57 -150q-7 -20 -25.5 -32.5t-40.5 -12.5 h-348q-17 0 -27 15q-6 9 -6 18q0 6 2 12zM688 643q-2 -5 -2 -10q0 -9 6 -17q8 -12 23 -12h268q15 0 23 12q5 8 6 17q0 5 -2 10l-146 391q-3 10 -14 10t-14 -10z" />
<glyph unicode="b" horiz-adv-x="1560" d="M123 49v1499q0 20 14.5 34.5t34.5 14.5h746q250 0 384 -121t134 -319q0 -204 -160 -315q-11 -7 -10.5 -19t12.5 -18q229 -107 229 -354q0 -201 -140 -326t-380 -125h-815q-20 0 -34.5 14.5t-14.5 34.5zM532 412q0 -17 12 -29t29 -12h369q152 0 152 143q0 137 -152 137 h-369q-17 0 -29 -12t-12 -29v-198zM532 1012q0 -17 12 -29t29 -12h297q152 0 152 127q0 59 -33 93t-96 34h-320q-17 0 -29 -12t-12 -29v-172z" />
<glyph unicode="c" horiz-adv-x="1673" d="M47 799q0 168 68 322t182.5 264.5t271 176.5t326.5 66q230 0 424.5 -111.5t306.5 -299.5q9 -15 4 -36t-22 -28l-283 -125q-20 -11 -40 -5t-32 26q-60 85 -154 134.5t-204 49.5q-180 0 -307 -126.5t-127 -307.5t127 -307.5t307 -126.5q111 0 204.5 49.5t153.5 134.5 q12 20 32 25.5t40 -3.5l285 -125q17 -6 23 -26q2 -7 2 -13q0 -12 -7 -22q-110 -190 -306.5 -303t-426.5 -113q-170 0 -326.5 66t-271 177t-182.5 265t-68 322z" />
<glyph unicode="d" horiz-adv-x="1675" d="M123 49v1499q0 20 14.5 34.5t34.5 14.5h692q182 0 328 -63.5t238.5 -173.5t141 -253t48.5 -308q0 -132 -30 -250.5t-92.5 -219t-151 -174t-212 -114.5t-270.5 -41h-692q-20 0 -34.5 14.5t-14.5 34.5zM532 436q0 -17 12 -29t29 -12h261q179 0 275.5 109.5t96.5 294.5 q0 184 -96.5 292.5t-275.5 108.5h-261q-17 0 -29 -12t-12 -29v-723z" />
<glyph unicode="e" horiz-adv-x="1425" d="M123 49v1499q0 20 14.5 34.5t34.5 14.5h1128q20 0 35 -14.5t15 -34.5v-299q0 -20 -15 -34.5t-35 -14.5h-727q-17 0 -29 -12t-12 -29v-147q0 -17 12 -29t29 -12h582q20 0 34.5 -14.5t14.5 -34.5v-273q0 -20 -14.5 -34.5t-34.5 -14.5h-582q-17 0 -29 -12t-12 -29v-123 q0 -17 12 -29t29 -12h727q20 0 35 -14.5t15 -34.5v-297q0 -20 -15 -34.5t-35 -14.5h-1128q-20 0 -34.5 14.5t-14.5 34.5z" />
<glyph unicode="f" horiz-adv-x="1361" d="M123 49v1499q0 20 14.5 34.5t34.5 14.5h1088q20 0 34.5 -14.5t14.5 -34.5v-299q0 -20 -14.5 -34.5t-34.5 -14.5h-689q-17 0 -29 -12t-12 -29v-201q0 -17 12 -28.5t29 -11.5h564q20 0 34.5 -15t14.5 -35v-272q0 -20 -14.5 -34.5t-34.5 -14.5h-564q-17 0 -29 -12t-12 -29 v-457q0 -20 -14.5 -34.5t-34.5 -14.5h-309q-20 0 -34.5 14.5t-14.5 34.5z" />
<glyph unicode="g" horiz-adv-x="1703" d="M47 799q0 168 68 321.5t182 264.5t270.5 177t327.5 66q188 0 356.5 -79t288.5 -216q12 -15 9.5 -34.5t-17.5 -30.5l-252 -170q-18 -12 -35 -12q-21 0 -41 20q-60 60 -140 93.5t-169 33.5q-181 0 -307.5 -126.5t-126.5 -307.5t126.5 -307.5t307.5 -126.5q99 0 185.5 44 t144.5 121q12 16 12 35v6q0 8 -6.5 14.5t-13.5 6.5h-318q-20 0 -34.5 14.5t-14.5 34.5v242q0 20 14.5 34.5t34.5 14.5h672q20 0 34.5 -14.5t14.5 -34.5v-834q0 -20 -14.5 -34.5t-34.5 -14.5h-223q-20 0 -35 14.5t-15 34.5v60q0 9 -9 12t-15 -4q-62 -70 -164 -109t-215 -39 q-171 0 -327.5 66t-270.5 177t-182 265t-68 322z" />
<glyph unicode="h" horiz-adv-x="1714" d="M123 49v1499q0 20 14.5 34.5t34.5 14.5h309q20 0 34.5 -14.5t14.5 -34.5v-530q0 -17 12 -29t29 -12h570q17 0 29 12t12 29v530q0 20 14.5 34.5t34.5 14.5h311q20 0 34.5 -14.5t14.5 -34.5v-1499q0 -20 -14.5 -34.5t-34.5 -14.5h-311q-20 0 -34.5 14.5t-14.5 34.5v504 q0 17 -12 29t-29 12h-570q-17 0 -29 -12t-12 -29v-504q0 -20 -14.5 -34.5t-34.5 -14.5h-309q-20 0 -34.5 14.5t-14.5 34.5z" />
<glyph unicode="i" horiz-adv-x="655" d="M123 49v1499q0 20 14.5 34.5t34.5 14.5h311q20 0 34.5 -14.5t14.5 -34.5v-1499q0 -20 -14.5 -34.5t-34.5 -14.5h-311q-20 0 -34.5 14.5t-14.5 34.5z" />
<glyph unicode="j" horiz-adv-x="1361" d="M33 592v90q0 20 14.5 34.5t34.5 14.5h311q20 0 34.5 -14.5t14.5 -34.5v-84q0 -68 16 -116t46 -72.5t64 -34.5t77 -10q99 0 150 50t51 183v950q0 20 14.5 34.5t34.5 14.5h309q20 0 34.5 -14.5t14.5 -34.5v-956q0 -156 -48 -277t-132 -195.5t-192.5 -112.5t-235.5 -38 q-123 0 -231 38t-194 112t-136.5 196t-50.5 277z" />
<glyph unicode="k" horiz-adv-x="1572" d="M123 49v1499q0 20 14.5 34.5t34.5 14.5h311q20 0 34.5 -14.5t14.5 -34.5v-461q0 -10 10.5 -14t16.5 4l436 484q31 36 82 36h430q14 0 20 -12.5t-3 -23.5l-570 -619q-12 -14 -13 -31.5t9 -31.5l611 -840q5 -7 5 -14q0 -5 -4 -11q-8 -14 -22 -14h-410q-50 0 -77 39 l-387 530q-9 12 -26 13t-26 -11l-55 -59q-27 -30 -27 -72v-391q0 -20 -14.5 -34.5t-34.5 -14.5h-311q-20 0 -34.5 14.5t-14.5 34.5z" />
<glyph unicode="l" horiz-adv-x="1323" d="M123 49v1499q0 20 14.5 34.5t34.5 14.5h309q20 0 34.5 -14.5t14.5 -34.5v-1112q0 -17 12 -29t29 -12h676q20 0 34.5 -14.5t14.5 -34.5v-297q0 -20 -14.5 -34.5t-34.5 -14.5h-1075q-20 0 -34.5 14.5t-14.5 34.5z" />
<glyph unicode="m" horiz-adv-x="1992" d="M123 49v1499q0 20 14.5 34.5t34.5 14.5h313q22 0 41.5 -12t30.5 -31l420 -835q6 -12 18.5 -12t18.5 12l422 835q24 43 71 43h314q20 0 34.5 -14.5t14.5 -34.5v-1499q0 -20 -14.5 -34.5t-34.5 -14.5h-310q-20 0 -34.5 14.5t-14.5 34.5v729q0 8 -7.5 9.5t-10.5 -5.5 l-291 -583q-11 -19 -30.5 -31t-41.5 -12h-170q-47 0 -71 43l-291 583q-3 7 -11 5.5t-8 -9.5v-729q0 -20 -14.5 -34.5t-34.5 -14.5h-309q-20 0 -34.5 14.5t-14.5 34.5z" />
<glyph unicode="n" horiz-adv-x="1712" d="M123 49v1499q0 20 14.5 34.5t34.5 14.5h248q53 0 80 -38l657 -822q6 -9 15.5 -6t9.5 14v803q0 20 14.5 34.5t34.5 14.5h309q20 0 34.5 -14.5t14.5 -34.5v-1499q0 -20 -14.5 -34.5t-34.5 -14.5h-248q-52 0 -80 39l-657 819q-6 9 -15.5 6t-9.5 -14v-801q0 -20 -14.5 -34.5 t-34.5 -14.5h-309q-20 0 -34.5 14.5t-14.5 34.5z" />
<glyph unicode="o" horiz-adv-x="1789" d="M47 799q0 168 68 322t182.5 264.5t271 176.5t326.5 66q172 0 329 -66t270.5 -177t181 -264.5t67.5 -321.5t-67.5 -322t-181 -265t-270.5 -177t-329 -66q-170 0 -326.5 66t-271 177t-182.5 265t-68 322zM461 799q0 -181 127 -307.5t307 -126.5q184 0 309 126t125 308 t-125 308t-309 126q-180 0 -307 -126.5t-127 -307.5z" />
<glyph unicode="p" horiz-adv-x="1488" d="M123 49v1499q0 20 14.5 34.5t34.5 14.5h655q154 0 276 -50t197.5 -135.5t114.5 -194.5t39 -232q0 -129 -39 -240.5t-114.5 -197.5t-197.5 -135.5t-276 -49.5h-254q-17 0 -29 -11.5t-12 -28.5v-273q0 -20 -14.5 -34.5t-34.5 -14.5h-311q-20 0 -34.5 14.5t-14.5 34.5z M532 776q0 -17 12 -29t29 -12h232q122 0 178.5 67t56.5 181q0 105 -57 173.5t-178 68.5h-232q-17 0 -29 -12t-12 -29v-408z" />
<glyph unicode="q" horiz-adv-x="1755" d="M47 799q0 224 112.5 415.5t303.5 302.5t414 111q168 0 321.5 -66t264.5 -177t177 -264.5t66 -321.5q0 -214 -102.5 -398t-274.5 -297q-11 -8 -11 -21.5t11 -21.5q95 -63 172 -63q61 0 107 35q20 16 39.5 16t38.5 -16l227 -185q17 -11 17 -37q0 -18 -11 -30 q-81 -91 -193.5 -134.5t-222.5 -43.5q-92 0 -181 31.5t-164 81t-145.5 101t-154.5 100.5t-162 71q-183 42 -331 158t-233 287.5t-85 365.5zM461 799q0 -181 121.5 -307.5t294.5 -126.5q176 0 295.5 126t119.5 308t-119.5 308t-295.5 126q-173 0 -294.5 -126.5t-121.5 -307.5 z" />
<glyph unicode="r" horiz-adv-x="1568" d="M123 49v1499q0 20 14.5 34.5t34.5 14.5h731q149 0 265.5 -46t188 -127t108 -185t36.5 -225q0 -165 -70 -301t-208 -211q-15 -7 -18.5 -23.5t5.5 -29.5l293 -408q5 -7 5 -15q0 -6 -3 -12q-7 -14 -22 -14h-391q-48 0 -78 41l-250 354q-23 33 -66 33h-127q-17 0 -29 -12 t-12 -29v-338q0 -20 -14.5 -34.5t-34.5 -14.5h-309q-20 0 -34.5 14.5t-14.5 34.5zM530 840q0 -17 12 -29t29 -12h310q115 0 170 59.5t55 151.5q0 99 -54 157t-171 58h-310q-17 0 -29 -12t-12 -29v-344z" />
<glyph unicode="s" horiz-adv-x="1431" d="M61 422q-1 22 15.5 39.5t38.5 17.5h276q34 0 48 -9.5t34 -43.5q24 -44 89.5 -73t166.5 -29q106 0 154.5 28.5t48.5 69.5q0 49 -60 85.5t-213 88.5q-67 22 -113.5 39t-113 46.5t-112 57.5t-96 70.5t-81.5 88t-51 106t-20 129.5q0 226 173.5 360.5t450.5 134.5 q279 0 459 -132.5t195 -348.5q1 -22 -15.5 -39.5t-38.5 -17.5h-284q-52 0 -70 55q-20 56 -81 92.5t-156 36.5q-97 0 -146 -32t-49 -77t55 -76.5t209 -84.5q210 -74 316 -136q282 -164 282 -424q0 -152 -83.5 -260.5t-225 -161.5t-326.5 -53q-183 0 -329.5 51.5t-239.5 155 t-107 246.5z" />
<glyph unicode="t" horiz-adv-x="1454" d="M25 1249v299q0 20 14.5 34.5t34.5 14.5h1306q20 0 35 -14.5t15 -34.5v-299q0 -20 -15 -34.5t-35 -14.5h-407q-17 0 -29 -12t-12 -29v-1110q0 -20 -14.5 -34.5t-34.5 -14.5h-312q-20 0 -34.5 14.5t-14.5 34.5v1110q0 17 -12 29t-29 12h-407q-20 0 -34.5 14.5t-14.5 34.5z " />
<glyph unicode="u" horiz-adv-x="1669" d="M100 698v850q0 20 15 34.5t35 14.5h311q20 0 34.5 -14.5t14.5 -34.5v-825q0 -174 82.5 -266t241.5 -92q161 0 244 92t83 266v825q0 20 14.5 34.5t34.5 14.5h310q20 0 34.5 -14.5t14.5 -34.5v-850q0 -155 -48.5 -287.5t-139.5 -231t-231.5 -154.5t-315.5 -56t-316 56 t-231.5 154.5t-138.5 230.5t-48 288z" />
<glyph unicode="v" d="M18 1552q-2 6 -2 12q0 9 6 18q10 15 27 15h348q22 0 40.5 -12.5t25.5 -32.5l371 -989q3 -11 14 -11t14 11l373 989q7 20 25 32.5t40 12.5h349q18 -1 27 -15q5 -9 5 -17q0 -6 -2 -13l-610 -1507q-7 -20 -26.5 -32.5t-41.5 -12.5h-307q-22 0 -41 12.5t-26 32.5z" />
<glyph unicode="w" horiz-adv-x="2349" d="M10 1550q-2 5 -2 10q0 11 8 22q12 15 31 15h338q22 0 39.5 -13.5t21.5 -33.5l236 -866q2 -8 11 -8.5t12 8.5l272 866q6 21 23.5 34t39.5 13h267q22 0 39.5 -13t23.5 -34l272 -864q3 -9 12 -8.5t11 8.5l236 864q4 20 21.5 33.5t39.5 13.5h340q18 0 30 -15q8 -10 9 -22 q0 -5 -2 -10l-424 -1503q-4 -20 -22 -33.5t-40 -13.5h-325q-22 0 -40 13t-24 34l-278 842q-3 9 -12.5 9t-12.5 -9l-276 -842q-6 -21 -24 -34t-40 -13h-325q-22 0 -40 13.5t-22 33.5z" />
<glyph unicode="x" horiz-adv-x="1572" d="M21 14q-3 6 -3 12q0 8 5 15l497 727q9 15 9 35t-9 35l-487 718q-8 14 -0.5 27.5t22.5 13.5h385q48 0 78 -41l246 -360q7 -13 22.5 -13.5t22.5 11.5l248 362q30 41 78 41h385q15 0 22.5 -13.5t-0.5 -27.5l-487 -718q-9 -15 -9 -35t9 -35l497 -727q5 -7 5 -15q0 -6 -3 -12 q-7 -14 -22 -14h-399q-50 0 -76 41l-248 362q-7 12 -22 12t-23 -12l-246 -362q-26 -41 -76 -41h-399q-15 0 -22 14z" />
<glyph unicode="y" horiz-adv-x="1671" d="M25 1584q7 13 24 13h383q52 0 74 -43l307 -501q6 -12 20.5 -12t20.5 12l307 503q26 41 76 41h385q17 0 24 -13q4 -7 4 -13q0 -7 -5 -15l-584 -935q-23 -33 -23 -76v-496q0 -20 -14.5 -34.5t-34.5 -14.5h-309q-20 0 -34.5 14.5t-14.5 34.5v496q0 43 -23 76l-581 935 q-5 8 -5 16q0 6 3 12z" />
<glyph unicode="z" horiz-adv-x="1492" d="M63 49v201q0 45 31 88l686 831q8 9 3 20t-17 11h-629q-20 0 -34.5 14.5t-14.5 34.5v299q0 20 14.5 34.5t34.5 14.5h1231q20 0 34.5 -14.5t14.5 -34.5v-200q0 -45 -31 -88l-688 -834q-8 -9 -2.5 -20t17.5 -11h657q20 0 34.5 -14.5t14.5 -34.5v-297q0 -20 -14.5 -34.5 t-34.5 -14.5h-1257q-20 0 -35 14.5t-15 34.5z" />
<glyph unicode="{" horiz-adv-x="765" d="M80 35q0 78 24 162t52.5 142.5t52.5 117.5t24 92q0 38 -21 61t-65 23h-20q-7 0 -12.5 5.5t-5.5 12.5v299q0 6 5.5 11.5t12.5 5.5h20q44 0 65 23t21 61q0 33 -24 92t-52.5 117.5t-52.5 142.5t-24 162q0 98 36.5 185t102 152.5t165.5 103.5t220 38h41q15 0 26 -11t11 -26 v-295q0 -15 -11 -26t-26 -11h-41q-66 0 -107.5 -35.5t-41.5 -101.5q0 -43 27.5 -107.5t60.5 -122.5t60.5 -132t27.5 -132q0 -127 -84 -217q-26 -29 2 -57q82 -88 82 -215q0 -58 -27.5 -132.5t-60.5 -132.5t-60.5 -122.5t-27.5 -106.5q0 -68 41.5 -102.5t107.5 -34.5h41 q15 0 26 -11t11 -26v-295q0 -15 -11 -25.5t-26 -10.5h-41q-120 0 -219.5 37.5t-166 103t-102.5 152.5t-36 186z" />
<glyph unicode="|" horiz-adv-x="628" d="M117 -330v2259q0 20 14.5 34.5t34.5 14.5h297q20 0 34.5 -14.5t14.5 -34.5v-2259q0 -20 -14.5 -34.5t-34.5 -14.5h-297q-20 0 -34.5 14.5t-14.5 34.5z" />
<glyph unicode="}" horiz-adv-x="765" d="M84 -113q0 15 11 26t26 11h41q66 0 107.5 35.5t41.5 101.5q0 43 -27.5 107.5t-60.5 122.5t-60.5 132t-27.5 132q0 127 84 217q26 29 -2 57q-82 88 -82 215q0 58 27.5 132.5t60.5 132.5t60.5 122.5t27.5 106.5q0 68 -41.5 102.5t-107.5 34.5h-41q-15 0 -26 11t-11 26v295 q0 15 11 26t26 11h41q120 0 219.5 -37.5t166 -103t102.5 -152.5t36 -186q0 -78 -24 -162t-53 -142.5t-53 -117.5t-24 -92q0 -38 21 -61t65 -23h21q7 0 12.5 -5.5t5.5 -13.5v-299q0 -6 -5.5 -11t-12.5 -5h-21q-44 0 -65 -23t-21 -61q0 -33 24 -92t53 -117.5t53 -142.5 t24 -162q0 -98 -36.5 -185t-102 -152.5t-165.5 -103.5t-220 -38h-41q-15 0 -26 10.5t-11 25.5v295z" />
<glyph unicode="~" horiz-adv-x="1060" d="M117 537q2 44 9 85t26 90t47 85t76.5 60t111.5 24q99 0 211 -80q33 -25 49 -25q23 0 23 33q2 14 12 23.5t23 9.5h190q19 0 33 -15t12 -34q-2 -44 -9 -85t-26 -90t-47 -85t-76.5 -60t-111.5 -24q-101 0 -211 79q-33 25 -49 25q-23 0 -23 -33q-2 -14 -12 -23.5t-23 -9.5 h-190q-19 0 -33 15.5t-12 34.5z" />
<glyph unicode="&#xa1;" horiz-adv-x="661" d="M74 1374q0 106 76 182t182 76t182 -76t76 -182t-76 -182t-182 -76t-182 76t-76 182zM106 49l84 918q1 20 17.5 34.5t36.5 14.5h174q20 0 36 -14.5t17 -34.5l84 -918q2 -20 -11.5 -34.5t-33.5 -14.5h-358q-20 0 -33.5 14.5t-12.5 34.5z" />
<glyph unicode="&#xa2;" horiz-adv-x="1251" d="M78 684q0 170 96.5 309.5t253.5 206.5q39 16 39 57v113q0 20 14.5 34.5t34.5 14.5h285q20 0 34.5 -14.5t14.5 -34.5v-115q0 -41 39 -57q159 -68 258 -215q9 -15 3.5 -34.5t-22.5 -26.5l-260 -117q-27 -12 -46.5 -10t-43.5 20q-48 33 -104 33q-70 0 -119 -48.5t-49 -117.5 t48.5 -116.5t119.5 -47.5q55 0 106 33q24 18 43.5 20t48.5 -10l258 -115q17 -7 22.5 -26.5t-3.5 -34.5q-97 -145 -260 -217q-39 -16 -39 -57v-113q0 -20 -14.5 -34.5t-34.5 -14.5h-285q-20 0 -34.5 14.5t-14.5 34.5v113q0 41 -39 57q-157 65 -253.5 205t-96.5 311z" />
<glyph unicode="&#xa3;" horiz-adv-x="1255" d="M90 49v189q0 50 43 75q118 66 135 168q3 15 -8.5 28t-26.5 13h-88q-20 0 -34.5 14.5t-14.5 34.5v254q0 20 14.5 34.5t34.5 14.5h13q15 0 23.5 12t4.5 27q-28 103 -28 201q0 97 27 180.5t75 144t113 103.5t141.5 64.5t159.5 21.5q75 0 145.5 -17.5t135 -56t112 -94 t76 -136.5t28.5 -179v-21q0 -6 -5 -11t-11 -5h-321q-50 0 -66 55q-21 68 -100 68q-51 0 -83 -27.5t-32 -81.5q0 -16 2.5 -33.5t10 -42t11.5 -38t16.5 -48.5t16.5 -47q14 -39 54 -39h241q20 0 34.5 -14.5t14.5 -34.5v-254q0 -20 -14.5 -34.5t-34.5 -14.5h-196 q-18 0 -31 -11.5t-14 -29.5l-7 -35q-3 -15 6.5 -26.5t26.5 -11.5h410q20 0 34.5 -15t14.5 -35v-309q0 -20 -14.5 -34.5t-34.5 -14.5h-961q-20 0 -34.5 14.5t-14.5 34.5z" />
<glyph unicode="&#xa5;" horiz-adv-x="1785" d="M82 1583.5q7 13.5 24 13.5h386q51 0 73 -43l307 -501q6 -12 20.5 -12t20.5 12l308 503q26 41 75 41h383q17 0 24.5 -13.5t-1.5 -27.5l-361 -581q-7 -12 -1 -23.5t20 -11.5h45q20 0 34.5 -14.5t14.5 -34.5v-211q0 -20 -14.5 -34.5t-34.5 -14.5h-256q-21 0 -35 -21l-10 -16 q-7 -11 0.5 -20t17.5 -9h283q20 0 34.5 -14.5t14.5 -34.5v-211q0 -20 -14.5 -34.5t-34.5 -14.5h-266q-17 0 -29 -12t-12 -29v-166q0 -20 -14.5 -34.5t-34.5 -14.5h-312q-20 0 -34.5 14.5t-14.5 34.5v166q0 17 -12 29t-29 12h-266q-20 0 -34.5 14.5t-14.5 34.5v211 q0 20 14.5 34.5t34.5 14.5h295q9 0 11.5 10t-3.5 19l-10 16q-14 21 -37 21h-256q-20 0 -34.5 14.5t-14.5 34.5v211q0 20 14.5 34.5t34.5 14.5h45q14 0 19.5 11.5t-1.5 23.5l-360 581q-9 14 -2 27.5z" />
<glyph unicode="&#xa6;" horiz-adv-x="653" d="M129 -330v938q0 20 14.5 34.5t34.5 14.5h297q20 0 34.5 -14.5t14.5 -34.5v-938q0 -20 -14.5 -34.5t-34.5 -14.5h-297q-20 0 -34.5 14.5t-14.5 34.5zM129 991v938q0 20 14.5 34.5t34.5 14.5h297q20 0 34.5 -14.5t14.5 -34.5v-938q0 -20 -14.5 -34.5t-34.5 -14.5h-297 q-20 0 -34.5 14.5t-14.5 34.5z" />
<glyph unicode="&#xa7;" horiz-adv-x="1181" d="M78 831q0 144 115 232q33 23 10 55q-51 79 -51 174q0 108 61 186t156 114t211 36q90 0 171.5 -23.5t147.5 -69t106 -119t44 -165.5q0 -20 -7 -26t-26 -6h-281q-31 0 -46 12.5t-30 44.5q-15 37 -67 37q-30 0 -42.5 -13t-12.5 -28q0 -20 13.5 -35.5t42 -29.5t58 -25.5 t76 -30t82.5 -35.5q293 -138 293 -354q0 -143 -115 -232q-33 -23 -10 -55q51 -76 51 -174q0 -158 -124.5 -245t-309.5 -87q-88 0 -165.5 21t-142 64.5t-104.5 117.5t-47 172q-3 31 25 31h282q32 0 48 -12.5t30 -45.5q15 -34 68 -34q30 0 42.5 14.5t12.5 30.5t-10 28.5 t-35.5 25.5t-52 24t-78.5 32t-96 41q-56 27 -100.5 55.5t-92 71.5t-74 100.5t-26.5 124.5zM474.5 824q0.5 -8 0.5 -9q0 -19 17 -34.5t37 -24.5t54.5 -22.5t51.5 -22.5q25 -13 43 0q6 5 11 9.5t8 10t4.5 8.5t2.5 10t1 9v11v11q0 19 -17 35.5t-36.5 25.5t-55 23t-51.5 21 q-29 13 -43 2q-8 -6 -13.5 -13t-8 -13t-4 -14t-2 -11.5t0 -11.5z" />
<glyph unicode="&#xa8;" horiz-adv-x="911" d="M0 1901q0 80 58 138t141 58q81 0 138.5 -58t57.5 -138q0 -83 -57 -142t-139 -59q-83 0 -141 59t-58 142zM516 1901q0 80 58 138t141 58q81 0 138.5 -58t57.5 -138q0 -83 -57 -142t-139 -59q-83 0 -141 59t-58 142z" />
<glyph unicode="&#xa9;" horiz-adv-x="1818" d="M80 799q0 167 66 320t177 264.5t264.5 178t321.5 66.5q167 0 320.5 -66.5t265 -177.5t178 -264.5t66.5 -320.5q0 -168 -66.5 -322t-178 -265t-265 -177t-320.5 -66q-168 0 -321.5 66t-264.5 177t-177 265t-66 322zM381 799q0 -144 70.5 -266t192 -192.5t265.5 -70.5 t267 71.5t194.5 193.5t71.5 264q0 144 -71.5 266t-194.5 193t-267 71t-265.5 -71t-192 -193t-70.5 -266zM500 797q0 173 120 293t293 120q104 0 194 -49t148 -133q10 -13 4.5 -33.5t-22.5 -27.5l-182 -86q-27 -13 -43.5 -11.5t-46.5 19.5q-24 14 -52 14q-44 0 -76 -31 t-32 -75t32 -75.5t76 -31.5q30 0 54 15q28 15 45.5 16t48.5 -12l178 -84q17 -6 22.5 -26.5t-4.5 -35.5q-58 -83 -149 -131.5t-195 -48.5q-173 0 -293 120.5t-120 293.5z" />
<glyph unicode="&#xaa;" horiz-adv-x="1079" d="M57 1184q0 186 122.5 315t299.5 129q104 0 178 -41q3 -1 6 1t3 5v4q0 11 10 11h231q20 0 34.5 -14.5t14.5 -34.5v-746q0 -20 -14.5 -34.5t-34.5 -14.5h-231q-10 0 -10 10v2q0 10 -9 6q-68 -39 -178 -39q-177 0 -299.5 128t-122.5 313zM350 1184q0 -65 43.5 -109.5 t110.5 -44.5q68 0 113 44.5t45 109.5q0 67 -45 112t-113 45q-67 0 -110.5 -45t-43.5 -112z" />
<glyph unicode="&#xab;" horiz-adv-x="1433" d="M98 639v219q0 50 37 82l506 449q11 9 24 3t13 -20v-385q0 -50 -37 -82l-145 -129q-12 -10 -12 -26t12 -27l145 -131q37 -32 37 -82v-383q0 -14 -13 -19.5t-24 3.5l-506 446q-37 32 -37 82zM719 639v219q0 50 37 82l506 449q10 9 23 3t13 -20v-385q0 -51 -36 -82 l-146 -129q-12 -10 -12 -26t12 -27l146 -131q36 -31 36 -82v-383q0 -14 -13 -19.5t-23 3.5l-506 446q-37 32 -37 82z" />
<glyph unicode="&#xad;" horiz-adv-x="854" d="M117 524v285q0 20 14.5 34.5t34.5 14.5h522q20 0 34.5 -14.5t14.5 -34.5v-285q0 -20 -14.5 -34.5t-34.5 -14.5h-522q-20 0 -34.5 14.5t-14.5 34.5z" />
<glyph unicode="&#xae;" horiz-adv-x="1150" d="M78 1130q0 135 66.5 249.5t181 181.5t249.5 67t249.5 -67t181.5 -181.5t67 -249.5t-67 -249.5t-181.5 -181t-249.5 -66.5q-101 0 -193 39.5t-158.5 106t-106 158.5t-39.5 193zM207 1130q0 -154 107 -261t261 -107t261.5 107t107.5 261t-107.5 261.5t-261.5 107.5 t-261 -107.5t-107 -261.5zM397 950v383q0 20 14.5 34.5t34.5 14.5h158q83 0 130.5 -49.5t47.5 -120.5q0 -79 -51 -127q-28 -28 -8 -65l45 -76q8 -15 0 -29t-25 -14h-24q-22 0 -43 11.5t-31 31.5l-35 60q-7 15 -23.5 24.5t-33.5 9.5h-4q-15 0 -27 -12t-12 -27v-49 q0 -20 -14.5 -34.5t-34.5 -14.5h-15q-20 0 -34.5 14.5t-14.5 34.5zM510 1188q0 -17 12 -29t29 -12h47q32 0 51 20t19 45q0 26 -19 44t-51 18h-47q-17 0 -29 -12t-12 -29v-45z" />
<glyph unicode="&#xaf;" horiz-adv-x="733" d="M0 1749v205q0 20 14.5 34.5t34.5 14.5h635q20 0 34.5 -14.5t14.5 -34.5v-205q0 -20 -14.5 -34.5t-34.5 -14.5h-635q-20 0 -34.5 14.5t-14.5 34.5z" />
<glyph unicode="&#xb0;" horiz-adv-x="909" d="M57 1229q0 166 116 282.5t280 116.5q166 0 282.5 -116.5t116.5 -282.5q0 -164 -116.5 -279.5t-282.5 -115.5q-164 0 -280 115.5t-116 279.5zM328 1229q0 -53 36 -89t89 -36q54 0 91.5 36.5t37.5 88.5q0 54 -37.5 91.5t-91.5 37.5q-52 0 -88.5 -37.5t-36.5 -91.5z" />
<glyph unicode="&#xb1;" horiz-adv-x="1159" d="M94 82v272q0 20 14.5 34.5t34.5 14.5h854q20 0 35 -14.5t15 -34.5v-272q0 -20 -15 -34.5t-35 -14.5h-854q-20 0 -34.5 14.5t-14.5 34.5zM102 803v272q0 20 15 34.5t35 14.5h200q17 0 29 12t12 29v197q0 20 14.5 34.5t34.5 14.5h275q20 0 34.5 -14.5t14.5 -34.5v-197 q0 -17 12 -29t29 -12h201q20 0 34.5 -14.5t14.5 -34.5v-272q0 -20 -14.5 -34.5t-34.5 -14.5h-201q-17 0 -29 -12t-12 -29v-199q0 -20 -14.5 -34.5t-34.5 -14.5h-275q-20 0 -34.5 14.5t-14.5 34.5v199q0 17 -12 29t-29 12h-200q-20 0 -35 14.5t-15 34.5z" />
<glyph unicode="&#xb2;" horiz-adv-x="897" d="M45 608v113q0 50 37 82l346 303q75 67 101 97t26 63q0 35 -26 56t-74 21q-54 0 -86.5 -27.5t-32.5 -76.5q0 -20 -5 -26.5t-22 -6.5h-225q-13 0 -19 7t-6 26q0 75 23.5 138.5t63 107t91.5 74t108 45t114 14.5q159 0 270 -96t111 -256q0 -50 -16 -98.5t-35 -81.5t-56.5 -74 t-57 -58.5t-59.5 -52.5l-38 -33q-8 -8 -4 -17t14 -9h196q20 0 35 -14.5t15 -34.5v-185q0 -20 -15 -34.5t-35 -14.5h-690q-20 0 -34.5 14.5t-14.5 34.5z" />
<glyph unicode="&#xb3;" horiz-adv-x="868" d="M43.5 647.5q-5.5 19.5 5.5 34.5l98 149q12 19 33 25.5t41 -2.5q103 -43 180 -43q64 0 99 19.5t35 54.5q0 76 -211 84q-22 0 -36 14.5t-14 34.5v129q0 22 14 36.5t36 16.5q104 4 146 29.5t42 58.5q0 26 -26 48t-70 22q-62 0 -84 -25q-35 -38 -47 -43.5t-62 -5.5h-151 q-25 0 -25 29q0 72 32 131t84.5 96.5t118 57.5t134.5 20q98 0 183 -35t139.5 -103t54.5 -155q0 -122 -93 -209q-12 -11 -11 -23.5t13 -21.5q123 -78 123 -211q0 -146 -120 -233.5t-295 -87.5q-173 0 -344 82q-17 7 -22.5 26.5z" />
<glyph unicode="&#xb4;" horiz-adv-x="731" d="M15 1909q4 17 18 28l467 330q12 10 28.5 7t24.5 -17l158 -275q7 -14 2 -29.5t-19 -21.5l-520 -239q-15 -6 -31.5 -1t-25.5 19l-97 168q-9 14 -5 31z" />
<glyph unicode="&#xb6;" horiz-adv-x="1718" d="M76 1034q0 113 44.5 217t119 180t179 121t218.5 45h901q20 0 34.5 -14.5t14.5 -34.5v-1499q0 -20 -14.5 -34.5t-34.5 -14.5h-297q-20 0 -34.5 14.5t-14.5 34.5v1147q0 12 -8.5 20.5t-20.5 8.5h-24q-12 0 -20.5 -8.5t-8.5 -20.5v-1147q0 -20 -14.5 -34.5t-34.5 -14.5h-297 q-20 0 -34.5 14.5t-14.5 34.5v383q0 15 -11 26t-26 11h-41q-153 0 -282 76t-204 206t-75 283zM471 1034q0 -84 46.5 -138t119.5 -54h41q15 0 26 11t11 26v309q0 15 -11 26t-26 11h-41q-74 0 -120 -53t-46 -138z" />
<glyph unicode="&#xb7;" horiz-adv-x="688" d="M86 748q0 106 76 182t182 76t182 -76t76 -182t-76 -182.5t-182 -76.5t-182 76.5t-76 182.5z" />
<glyph unicode="&#xb8;" horiz-adv-x="661" d="M49 -485l68 155q9 20 27 27.5t38 -0.5q72 -31 123 -31q43 0 59.5 15t16.5 32q0 42 -39 47q-43 6 -58.5 13t-45.5 34l-2 3q-17 13 -22 35t3 42l35 93q7 20 26 32.5t41 12.5h91q19 0 31.5 -15t9.5 -35l-7 -24q-6 -42 31 -60q65 -32 96 -91.5t31 -129.5q0 -114 -73.5 -189 t-206.5 -75q-106 0 -246 49q-17 6 -25.5 24.5t-1.5 35.5z" />
<glyph unicode="&#xb9;" horiz-adv-x="542" d="M37 1272v198q0 22 13 40t34 24l143 49q47 14 97 14h92q20 0 34.5 -14.5t14.5 -34.5v-940q0 -20 -14.5 -34.5t-34.5 -14.5h-185q-20 0 -34.5 14.5t-14.5 34.5v623q0 15 -12.5 24.5t-26.5 4.5l-59 -21q-19 -6 -33 4t-14 29z" />
<glyph unicode="&#xba;" horiz-adv-x="1005" d="M55 1184q0 186 129.5 315t315.5 129q189 0 319.5 -129t130.5 -315q0 -185 -130.5 -313t-319.5 -128q-186 0 -315.5 128.5t-129.5 312.5zM346 1184q0 -65 44 -109.5t110 -44.5q68 0 113.5 44.5t45.5 109.5q0 66 -45.5 111.5t-113.5 45.5q-66 0 -110 -45.5t-44 -111.5z" />
<glyph unicode="&#xbb;" horiz-adv-x="1433" d="M135 127v385q0 50 37 82l145 129q12 11 12 26.5t-12 26.5l-145 131q-37 32 -37 82v383q0 14 13.5 20t23.5 -3l506 -447q37 -32 37 -82v-219q0 -50 -37 -82l-506 -448q-10 -9 -23.5 -3.5t-13.5 19.5zM756 127v385q0 50 37 82l145 129q12 11 12 26.5t-12 26.5l-145 131 q-37 32 -37 82v383q0 14 13 20t24 -3l505 -447q37 -32 37 -82v-219q0 -50 -37 -82l-505 -448q-11 -9 -24 -3.5t-13 19.5z" />
<glyph unicode="&#xbc;" horiz-adv-x="1990" d="M90 1272v198q0 22 13 40t34 24l144 49q47 14 96 14h92q20 0 34.5 -14.5t14.5 -34.5v-940q0 -20 -14.5 -34.5t-34.5 -14.5h-184q-20 0 -34.5 14.5t-14.5 34.5v623q0 15 -12.5 24.5t-26.5 4.5l-60 -21q-19 -6 -33 4t-14 29zM313 14q-8 14 0 29l897 1511q22 43 74 43h211 q17 0 25 -14t0 -29l-897 -1511q-22 -43 -74 -43h-211q-17 0 -25 14zM1049 223v121q0 46 24 92l332 559q22 43 74 43h215q17 0 24.5 -14t-0.5 -29l-307 -520q-6 -11 1 -23t20 -12h67q17 0 29 12t12 29v97q0 20 14.5 34.5t34.5 14.5h176q20 0 35 -14.5t15 -34.5v-97 q0 -17 11.5 -29t28.5 -12h15q20 0 34.5 -14.5t14.5 -34.5v-168q0 -20 -14.5 -34.5t-34.5 -14.5h-15q-17 0 -28.5 -12t-11.5 -29v-84q0 -20 -15 -34.5t-35 -14.5h-176q-20 0 -34.5 14.5t-14.5 34.5v84q0 17 -12 29t-29 12h-401q-20 0 -34.5 14.5t-14.5 34.5z" />
<glyph unicode="&#xbd;" horiz-adv-x="2072" d="M80 1272v198q0 22 13 40t34 24l143 49q47 14 97 14h92q20 0 34.5 -14.5t14.5 -34.5v-940q0 -20 -14.5 -34.5t-34.5 -14.5h-185q-20 0 -34.5 14.5t-14.5 34.5v623q0 15 -12.5 24.5t-26.5 4.5l-59 -21q-19 -6 -33 4t-14 29zM303 14q-8 14 0 29l897 1511q22 43 74 43h211 q17 0 24.5 -14t-0.5 -29l-897 -1511q-22 -43 -73 -43h-211q-17 0 -25 14zM1196 49v113q0 50 37 82l346 303q75 67 101 97t26 63q0 35 -26 56t-74 21q-54 0 -86.5 -27.5t-32.5 -76.5q0 -20 -5 -26.5t-22 -6.5h-225q-13 0 -19 7t-6 26q0 75 23.5 138.5t63 107t91.5 74t108 45 t114 14.5q159 0 270 -96t111 -256q0 -50 -16 -98.5t-35 -81.5t-56.5 -74t-57 -58.5t-59.5 -52.5l-38 -33q-8 -7 -4 -16.5t14 -9.5h196q20 0 35 -15t15 -35v-184q0 -20 -15 -34.5t-35 -14.5h-690q-20 0 -34.5 14.5t-14.5 34.5z" />
<glyph unicode="&#xbe;" horiz-adv-x="2228" d="M96.5 647.5q-5.5 19.5 5.5 34.5l99 149q12 19 32.5 25.5t40.5 -2.5q103 -43 181 -43q64 0 98.5 19.5t34.5 54.5q0 76 -211 84q-21 0 -35 14t-14 35v129q0 22 13.5 37t35.5 16q104 4 146 29.5t42 58.5q0 26 -26 48t-70 22q-62 0 -84 -25q-35 -38 -47 -43.5t-62 -5.5h-151 q-25 0 -25 29q0 72 32 131t84.5 96.5t118 57.5t134.5 20q98 0 183 -35t139.5 -103t54.5 -155q0 -123 -92 -209q-12 -11 -11 -23.5t13 -21.5q123 -78 123 -211q0 -146 -120.5 -233.5t-295.5 -87.5q-173 0 -344 82q-17 7 -22.5 26.5zM550.5 14q-7.5 14 0.5 29l897 1511 q22 43 74 43h211q17 0 24.5 -14t-0.5 -29l-897 -1511q-22 -43 -74 -43h-211q-17 0 -24.5 14zM1286 223v121q0 44 25 92l331 559q22 43 74 43h215q17 0 25 -14t0 -29l-307 -520q-6 -11 0.5 -23t19.5 -12h68q17 0 29 12t12 29v97q0 20 14.5 34.5t34.5 14.5h176 q20 0 34.5 -14.5t14.5 -34.5v-97q0 -17 12 -29t29 -12h14q20 0 35 -14.5t15 -34.5v-168q0 -20 -15 -34.5t-35 -14.5h-14q-17 0 -29 -12t-12 -29v-84q0 -20 -14.5 -34.5t-34.5 -14.5h-176q-20 0 -34.5 14.5t-14.5 34.5v84q0 17 -12 29t-29 12h-402q-20 0 -34.5 14.5 t-14.5 34.5z" />
<glyph unicode="&#xbf;" horiz-adv-x="1210" d="M82 440q0 74 20.5 138.5t57 112t71.5 80t80 63.5q15 11 46.5 32t45.5 32t33.5 28.5t29.5 36.5t15 41q7 26 33 26h274q19 0 32.5 -13t13.5 -32v-20q0 -57 -16 -109t-37 -87.5t-58 -73.5t-62 -58t-67 -51q-51 -38 -74.5 -67.5t-23.5 -69.5q0 -37 26 -67t78 -30q49 0 86 30 t47 93q5 25 20.5 41t39.5 16h313q12 0 21.5 -9.5t9.5 -22.5v-35q0 -97 -33 -179.5t-88 -140t-127 -98t-149.5 -59.5t-155.5 -19q-133 0 -246.5 56t-184.5 165t-71 250zM397 1374q0 106 76 182t182 76t182 -76t76 -182t-76 -182t-182 -76t-182 76t-76 182z" />
<glyph unicode="&#xc0;" d="M18 45l611 1507q7 20 26 32.5t41 12.5h308q22 0 41 -12.5t26 -32.5l608 -1507q6 -16 -3 -30.5t-27 -14.5h-349q-22 0 -40 12.5t-25 32.5l-57 150q-6 17 -21.5 27.5t-34.5 10.5h-547q-19 0 -34 -10.5t-21 -27.5l-57 -150q-7 -20 -25.5 -32.5t-40.5 -12.5h-348 q-18 0 -27.5 15t-3.5 30zM506 1954q-6 20 4 37l149 258q9 17 29 21t37 -7l450 -321q17 -12 22 -32.5t-5 -39.5l-89 -152q-10 -19 -30 -25t-39 3l-504 231q-18 7 -24 27zM688 643q-5 -14 3.5 -26.5t23.5 -12.5h268q15 0 23.5 12.5t3.5 26.5l-146 391q-3 10 -14 10t-14 -10z " />
<glyph unicode="&#xc1;" d="M18 45l611 1507q7 20 26 32.5t41 12.5h308q22 0 41 -12.5t26 -32.5l608 -1507q6 -16 -3 -30.5t-27 -14.5h-349q-22 0 -40 12.5t-25 32.5l-57 150q-6 17 -21.5 27.5t-34.5 10.5h-547q-19 0 -34 -10.5t-21 -27.5l-57 -150q-7 -20 -25.5 -32.5t-40.5 -12.5h-348 q-18 0 -27.5 15t-3.5 30zM500 1909q4 17 18 28l467 330q12 10 28.5 7t24.5 -17l158 -275q7 -14 2 -29.5t-19 -21.5l-520 -239q-15 -6 -31.5 -1t-25.5 19l-97 168q-9 14 -5 31zM688 643q-5 -14 3.5 -26.5t23.5 -12.5h268q15 0 23.5 12.5t3.5 26.5l-146 391q-3 10 -14 10 t-14 -10z" />
<glyph unicode="&#xc2;" d="M18 45l611 1507q7 20 26 32.5t41 12.5h308q22 0 41 -12.5t26 -32.5l608 -1507q6 -16 -3 -30.5t-27 -14.5h-349q-22 0 -40 12.5t-25 32.5l-57 150q-6 17 -21.5 27.5t-34.5 10.5h-547q-19 0 -34 -10.5t-21 -27.5l-57 -150q-7 -20 -25.5 -32.5t-40.5 -12.5h-348 q-18 0 -27.5 15t-3.5 30zM404.5 1906q2.5 21 17.5 33l389 306q17 13 39 13t39 -13l387 -306q15 -12 17.5 -33t-9.5 -36l-115 -141q-12 -17 -33 -20.5t-38 7.5l-213 142q-15 10 -35 10t-35 -10l-217 -142q-17 -11 -38.5 -7.5t-33.5 20.5l-112 141q-12 15 -9.5 36zM688 643 q-5 -14 3.5 -26.5t23.5 -12.5h268q15 0 23.5 12.5t3.5 26.5l-146 391q-3 10 -14 10t-14 -10z" />
<glyph unicode="&#xc3;" d="M18 45l611 1507q7 20 26 32.5t41 12.5h308q22 0 41 -12.5t26 -32.5l608 -1507q6 -16 -3 -30.5t-27 -14.5h-349q-22 0 -40 12.5t-25 32.5l-57 150q-6 17 -21.5 27.5t-34.5 10.5h-547q-19 0 -34 -10.5t-21 -27.5l-57 -150q-7 -20 -25.5 -32.5t-40.5 -12.5h-348 q-18 0 -27.5 15t-3.5 30zM438 1788q2 44 9 85t26 90t47.5 85t77 60t111.5 24q99 0 211 -80q32 -24 49 -24q22 0 22 32q2 14 12 23.5t23 9.5h191q19 0 33 -15t12 -34q-2 -44 -9 -85t-26 -90t-47.5 -85t-77 -60t-111.5 -24q-99 0 -211 80q-32 24 -49 24q-22 0 -22 -32 q-2 -14 -12 -23.5t-23 -9.5h-191q-19 0 -33 15t-12 34zM688 643q-5 -14 3.5 -26.5t23.5 -12.5h268q15 0 23.5 12.5t3.5 26.5l-146 391q-3 10 -14 10t-14 -10z" />
<glyph unicode="&#xc4;" d="M18 45l611 1507q7 20 26 32.5t41 12.5h308q22 0 41 -12.5t26 -32.5l608 -1507q6 -16 -3 -30.5t-27 -14.5h-349q-22 0 -40 12.5t-25 32.5l-57 150q-6 17 -21.5 27.5t-34.5 10.5h-547q-19 0 -34 -10.5t-21 -27.5l-57 -150q-7 -20 -25.5 -32.5t-40.5 -12.5h-348 q-18 0 -27.5 15t-3.5 30zM395 1901q0 80 58 138t141 58q81 0 139 -58t58 -138q0 -83 -57.5 -142t-139.5 -59q-83 0 -141 59t-58 142zM688 643q-5 -14 3.5 -26.5t23.5 -12.5h268q15 0 23.5 12.5t3.5 26.5l-146 391q-3 10 -14 10t-14 -10zM911 1901q0 80 58 138t141 58 q81 0 139 -58t58 -138q0 -83 -57.5 -142t-139.5 -59q-83 0 -141 59t-58 142z" />
<glyph unicode="&#xc5;" d="M18 45l611 1507q7 20 26 32.5t41 12.5h308q22 0 41 -12.5t26 -32.5l608 -1507q6 -16 -3 -30.5t-27 -14.5h-349q-22 0 -40 12.5t-25 32.5l-57 150q-6 17 -21.5 27.5t-34.5 10.5h-547q-19 0 -34 -10.5t-21 -27.5l-57 -150q-7 -20 -25.5 -32.5t-40.5 -12.5h-348 q-18 0 -27.5 15t-3.5 30zM510 1987q0 141 99.5 241.5t238.5 100.5q140 0 241 -101.5t101 -240.5t-101 -238.5t-241 -99.5t-239 99.5t-99 238.5zM688 643q-5 -14 3.5 -26.5t23.5 -12.5h268q15 0 23.5 12.5t3.5 26.5l-146 391q-3 10 -14 10t-14 -10zM750 1987q0 -41 28.5 -70 t69.5 -29t69.5 29t28.5 70t-28.5 69.5t-69.5 28.5t-69.5 -28.5t-28.5 -69.5z" />
<glyph unicode="&#xc6;" horiz-adv-x="2623" d="M7.5 13.5q-6.5 13.5 2.5 25.5l1223 1520q27 38 80 38h1186q20 0 34.5 -14.5t14.5 -34.5v-299q0 -20 -14.5 -34.5t-34.5 -14.5h-730q-17 0 -28.5 -12t-11.5 -29v-147q0 -17 11.5 -29t28.5 -12h584q20 0 34.5 -14.5t14.5 -34.5v-273q0 -20 -14.5 -34.5t-34.5 -14.5h-584 q-17 0 -28.5 -12t-11.5 -29v-123q0 -17 11.5 -29t28.5 -12h730q20 0 34.5 -14.5t14.5 -34.5v-297q0 -20 -14.5 -34.5t-34.5 -14.5h-1129q-20 0 -34.5 14.5t-14.5 34.5v144q0 17 -12 28.5t-29 11.5h-549q-43 0 -65 -32l-129 -162q-28 -39 -80 -39h-428q-15 0 -21.5 13.5z M1004.5 615q5.5 -11 17.5 -11h258q17 0 29 12t12 29v348q0 11 -9.5 14t-15.5 -6l-290 -364q-7 -11 -1.5 -22z" />
<glyph unicode="&#xc7;" horiz-adv-x="1673" d="M47 799q0 168 68 322t182.5 264.5t271 176.5t326.5 66q230 0 424.5 -111.5t306.5 -299.5q9 -15 4 -36t-22 -28l-283 -125q-20 -11 -40 -5t-32 26q-60 85 -154 134.5t-204 49.5q-180 0 -307 -126.5t-127 -307.5t127 -307.5t307 -126.5q111 0 204.5 49.5t153.5 134.5 q12 20 32 25.5t40 -3.5l285 -125q17 -6 23 -26t-5 -35q-97 -167 -264 -276t-367 -134q-43 -7 -49 -45l-2 -10q-6 -41 31 -59q65 -32 96 -91.5t31 -129.5q0 -114 -74 -189.5t-207 -75.5q-103 0 -245 50q-17 6 -25.5 24t-1.5 35l67 156q9 20 27.5 27t38.5 -1q72 -31 123 -31 q43 0 59.5 15t16.5 33q0 42 -39 47q-44 6 -59.5 13t-45.5 34l-2 2q-17 13 -21.5 35.5t3.5 42.5l33 84q5 16 -2.5 29t-24.5 16q-190 39 -344.5 155t-244 289t-89.5 369z" />
<glyph unicode="&#xc8;" horiz-adv-x="1425" d="M123 49v1499q0 20 14.5 34.5t34.5 14.5h1128q20 0 35 -14.5t15 -34.5v-299q0 -20 -15 -34.5t-35 -14.5h-727q-17 0 -29 -12t-12 -29v-147q0 -17 12 -29t29 -12h582q20 0 34.5 -14.5t14.5 -34.5v-273q0 -20 -14.5 -34.5t-34.5 -14.5h-582q-17 0 -29 -12t-12 -29v-123 q0 -17 12 -29t29 -12h727q20 0 35 -14.5t15 -34.5v-297q0 -20 -15 -34.5t-35 -14.5h-1128q-20 0 -34.5 14.5t-14.5 34.5zM392 1954q-6 20 3 37l150 258q9 17 28.5 21t36.5 -7l451 -321q17 -12 21.5 -32.5t-5.5 -39.5l-88 -152q-10 -19 -30 -25t-39 3l-504 231q-18 7 -24 27z " />
<glyph unicode="&#xc9;" horiz-adv-x="1425" d="M123 49v1499q0 20 14.5 34.5t34.5 14.5h1128q20 0 35 -14.5t15 -34.5v-299q0 -20 -15 -34.5t-35 -14.5h-727q-17 0 -29 -12t-12 -29v-147q0 -17 12 -29t29 -12h582q20 0 34.5 -14.5t14.5 -34.5v-273q0 -20 -14.5 -34.5t-34.5 -14.5h-582q-17 0 -29 -12t-12 -29v-123 q0 -17 12 -29t29 -12h727q20 0 35 -14.5t15 -34.5v-297q0 -20 -15 -34.5t-35 -14.5h-1128q-20 0 -34.5 14.5t-14.5 34.5zM386 1909q4 17 18 28l467 330q12 10 28.5 7t24.5 -17l158 -275q7 -14 2 -29.5t-19 -21.5l-520 -239q-15 -6 -31.5 -1t-25.5 19l-97 168q-9 14 -5 31z " />
<glyph unicode="&#xca;" horiz-adv-x="1425" d="M123 49v1499q0 20 14.5 34.5t34.5 14.5h1128q20 0 35 -14.5t15 -34.5v-299q0 -20 -15 -34.5t-35 -14.5h-727q-17 0 -29 -12t-12 -29v-147q0 -17 12 -29t29 -12h582q20 0 34.5 -14.5t14.5 -34.5v-273q0 -20 -14.5 -34.5t-34.5 -14.5h-582q-17 0 -29 -12t-12 -29v-123 q0 -17 12 -29t29 -12h727q20 0 35 -14.5t15 -34.5v-297q0 -20 -15 -34.5t-35 -14.5h-1128q-20 0 -34.5 14.5t-14.5 34.5zM289.5 1906q2.5 21 17.5 33l389 306q17 13 39 13t39 -13l387 -306q15 -12 17.5 -33t-9.5 -36l-115 -141q-12 -17 -33 -20.5t-38 7.5l-213 142 q-15 10 -35 10t-35 -10l-217 -142q-17 -11 -38.5 -7.5t-33.5 20.5l-112 141q-12 15 -9.5 36z" />
<glyph unicode="&#xcb;" horiz-adv-x="1425" d="M123 49v1499q0 20 14.5 34.5t34.5 14.5h1128q20 0 35 -14.5t15 -34.5v-299q0 -20 -15 -34.5t-35 -14.5h-727q-17 0 -29 -12t-12 -29v-147q0 -17 12 -29t29 -12h582q20 0 34.5 -14.5t14.5 -34.5v-273q0 -20 -14.5 -34.5t-34.5 -14.5h-582q-17 0 -29 -12t-12 -29v-123 q0 -17 12 -29t29 -12h727q20 0 35 -14.5t15 -34.5v-297q0 -20 -15 -34.5t-35 -14.5h-1128q-20 0 -34.5 14.5t-14.5 34.5zM281 1901q0 80 57.5 138t140.5 58q81 0 139 -58t58 -138q0 -83 -57.5 -142t-139.5 -59q-83 0 -140.5 58.5t-57.5 142.5zM797 1901q0 80 57.5 138 t140.5 58q81 0 139 -58t58 -138q0 -83 -57.5 -142t-139.5 -59q-83 0 -140.5 58.5t-57.5 142.5z" />
<glyph unicode="&#xcc;" horiz-adv-x="655" d="M-20 1954q-6 20 4 37l149 258q9 17 29 21t37 -7l450 -321q17 -12 22 -32.5t-5 -39.5l-88 -152q-10 -19 -30.5 -25t-39.5 3l-504 231q-18 7 -24 27zM123 49v1499q0 20 14.5 34.5t34.5 14.5h311q20 0 34.5 -14.5t14.5 -34.5v-1499q0 -20 -14.5 -34.5t-34.5 -14.5h-311 q-20 0 -34.5 14.5t-14.5 34.5z" />
<glyph unicode="&#xcd;" horiz-adv-x="655" d="M-24 1909q4 17 18 28l467 330q12 10 28.5 7t24.5 -17l158 -275q7 -14 2 -29.5t-19 -21.5l-520 -239q-15 -6 -31.5 -1t-25.5 19l-97 168q-9 14 -5 31zM123 49v1499q0 20 14.5 34.5t34.5 14.5h311q20 0 34.5 -14.5t14.5 -34.5v-1499q0 -20 -14.5 -34.5t-34.5 -14.5h-311 q-20 0 -34.5 14.5t-14.5 34.5z" />
<glyph unicode="&#xce;" horiz-adv-x="655" d="M-119.5 1906q2.5 21 17.5 33l389 306q17 13 39 13t39 -13l387 -306q15 -12 17.5 -33t-9.5 -36l-115 -141q-12 -17 -33 -20.5t-38 7.5l-213 142q-15 10 -35 10t-35 -10l-217 -142q-17 -11 -38.5 -7.5t-33.5 20.5l-112 141q-12 15 -9.5 36zM123 49v1499q0 20 14.5 34.5 t34.5 14.5h311q20 0 34.5 -14.5t14.5 -34.5v-1499q0 -20 -14.5 -34.5t-34.5 -14.5h-311q-20 0 -34.5 14.5t-14.5 34.5z" />
<glyph unicode="&#xcf;" horiz-adv-x="655" d="M-129 1901q0 80 58 138t141 58q81 0 138.5 -58t57.5 -138q0 -83 -57 -142t-139 -59q-83 0 -141 59t-58 142zM123 49v1499q0 20 14.5 34.5t34.5 14.5h311q20 0 34.5 -14.5t14.5 -34.5v-1499q0 -20 -14.5 -34.5t-34.5 -14.5h-311q-20 0 -34.5 14.5t-14.5 34.5zM387 1901 q0 80 58 138t141 58q81 0 138.5 -58t57.5 -138q0 -83 -57 -142t-139 -59q-83 0 -141 59t-58 142z" />
<glyph unicode="&#xd0;" horiz-adv-x="1685" d="M16 657v254q0 20 15 35t35 15h26q17 0 29 11.5t12 28.5v547q0 20 14.5 34.5t34.5 14.5h692q182 0 328 -63.5t238.5 -173.5t141 -253t48.5 -308q0 -132 -30 -250.5t-92.5 -219t-151 -174t-212 -114.5t-270.5 -41h-692q-20 0 -34.5 14.5t-14.5 34.5v518q0 17 -12 29t-29 12 h-26q-20 0 -35 14.5t-15 34.5zM543 436q0 -17 12 -29t29 -12h260q179 0 276 109.5t97 294.5q0 184 -97 292.5t-276 108.5h-260q-17 0 -29 -12t-12 -29v-158q0 -17 12 -28.5t29 -11.5h247q20 0 35 -15t15 -35v-254q0 -20 -15 -34.5t-35 -14.5h-247q-17 0 -29 -12t-12 -29 v-131z" />
<glyph unicode="&#xd1;" horiz-adv-x="1714" d="M123 49v1499q0 20 14.5 34.5t34.5 14.5h250q53 0 80 -38l657 -822q6 -9 15.5 -6t9.5 14v803q0 20 14.5 34.5t34.5 14.5h309q20 0 34.5 -14.5t14.5 -34.5v-1499q0 -20 -14.5 -34.5t-34.5 -14.5h-248q-52 0 -80 39l-657 819q-6 9 -15.5 6t-9.5 -14v-801q0 -20 -14.5 -34.5 t-34.5 -14.5h-311q-20 0 -34.5 14.5t-14.5 34.5zM446 1788q2 44 9 85t26 90t47.5 85t77 60t111.5 24q99 0 211 -80q32 -24 49 -24q22 0 22 32q2 14 12 23.5t23 9.5h191q19 0 33 -15t12 -34q-2 -44 -9 -85t-26 -90t-47.5 -85t-77 -60t-111.5 -24q-99 0 -211 80q-32 24 -49 24 q-22 0 -22 -32q-2 -14 -12 -23.5t-23 -9.5h-190q-19 0 -33 15t-13 34z" />
<glyph unicode="&#xd2;" horiz-adv-x="1789" d="M47 799q0 168 68 322t182.5 264.5t271 176.5t326.5 66q172 0 329 -66t270.5 -177t181 -264.5t67.5 -321.5t-67.5 -322t-181 -265t-270.5 -177t-329 -66q-170 0 -326.5 66t-271 177t-182.5 265t-68 322zM461 799q0 -181 127 -307.5t307 -126.5q184 0 309 126t125 308 t-125 308t-309 126q-180 0 -307 -126.5t-127 -307.5zM551 1954q-6 20 4 37l149 258q9 17 29 21t37 -7l450 -321q17 -12 22 -32.5t-5 -39.5l-89 -152q-10 -19 -30 -25t-39 3l-504 231q-18 7 -24 27z" />
<glyph unicode="&#xd3;" horiz-adv-x="1789" d="M47 799q0 168 68 322t182.5 264.5t271 176.5t326.5 66q172 0 329 -66t270.5 -177t181 -264.5t67.5 -321.5t-67.5 -322t-181 -265t-270.5 -177t-329 -66q-170 0 -326.5 66t-271 177t-182.5 265t-68 322zM461 799q0 -181 127 -307.5t307 -126.5q184 0 309 126t125 308 t-125 308t-309 126q-180 0 -307 -126.5t-127 -307.5zM545 1909q4 17 18 28l467 330q12 10 28.5 7t24.5 -17l158 -275q7 -14 2 -29.5t-19 -21.5l-520 -239q-15 -6 -31.5 -1t-25.5 19l-97 168q-9 14 -5 31z" />
<glyph unicode="&#xd4;" horiz-adv-x="1789" d="M47 799q0 168 68 322t182.5 264.5t271 176.5t326.5 66q172 0 329 -66t270.5 -177t181 -264.5t67.5 -321.5t-67.5 -322t-181 -265t-270.5 -177t-329 -66q-170 0 -326.5 66t-271 177t-182.5 265t-68 322zM451.5 1906q2.5 21 17.5 33l389 306q17 13 39 13t39 -13l387 -306 q15 -12 17.5 -33t-9.5 -36l-115 -141q-12 -17 -33 -20.5t-38 7.5l-213 142q-15 10 -35 10t-35 -10l-217 -142q-17 -11 -38.5 -7.5t-33.5 20.5l-112 141q-12 15 -9.5 36zM461 799q0 -181 127 -307.5t307 -126.5q184 0 309 126t125 308t-125 308t-309 126q-180 0 -307 -126.5 t-127 -307.5z" />
<glyph unicode="&#xd5;" horiz-adv-x="1789" d="M47 799q0 168 68 322t182.5 264.5t271 176.5t326.5 66q172 0 329 -66t270.5 -177t181 -264.5t67.5 -321.5t-67.5 -322t-181 -265t-270.5 -177t-329 -66q-170 0 -326.5 66t-271 177t-182.5 265t-68 322zM461 799q0 -181 127 -307.5t307 -126.5q184 0 309 126t125 308 t-125 308t-309 126q-180 0 -307 -126.5t-127 -307.5zM485 1788q2 44 9 85t26 90t47.5 85t77 60t111.5 24q99 0 211 -80q32 -24 49 -24q22 0 22 32q2 14 12 23.5t23 9.5h191q19 0 33 -15t12 -34q-2 -44 -9 -85t-26 -90t-47.5 -85t-77 -60t-111.5 -24q-99 0 -211 80 q-32 24 -49 24q-22 0 -22 -32q-2 -14 -12 -23.5t-23 -9.5h-191q-19 0 -33 15t-12 34z" />
<glyph unicode="&#xd6;" horiz-adv-x="1789" d="M47 799q0 168 68 322t182.5 264.5t271 176.5t326.5 66q172 0 329 -66t270.5 -177t181 -264.5t67.5 -321.5t-67.5 -322t-181 -265t-270.5 -177t-329 -66q-170 0 -326.5 66t-271 177t-182.5 265t-68 322zM440 1901q0 80 58 138t141 58q81 0 139 -58t58 -138 q0 -83 -57.5 -142t-139.5 -59q-83 0 -141 59t-58 142zM461 799q0 -181 127 -307.5t307 -126.5q184 0 309 126t125 308t-125 308t-309 126q-180 0 -307 -126.5t-127 -307.5zM956 1901q0 80 58 138t141 58q81 0 139 -58t58 -138q0 -83 -57.5 -142t-139.5 -59q-83 0 -141 59 t-58 142z" />
<glyph unicode="&#xd7;" horiz-adv-x="1210" d="M104 491q0 21 13 35l196 197q12 12 12 28.5t-12 28.5l-196 197q-13 13 -13 35t13 35l194 192q13 13 35 13t35 -13l194 -197q12 -12 29 -12t29 12l196 197q13 13 35 13t35 -13l195 -192q14 -13 14 -35t-14 -35l-197 -197q-12 -12 -12 -28.5t12 -28.5l197 -197 q14 -14 14 -35t-14 -34l-195 -193q-13 -14 -35 -14t-35 14l-196 195q-12 12 -29 12t-29 -12l-194 -195q-13 -14 -35 -14t-35 14l-194 193q-13 13 -13 34z" />
<glyph unicode="&#xd8;" horiz-adv-x="1787" d="M47 799q0 168 68 321.5t182 264.5t270.5 177t327.5 66q196 0 373 -86q36 -16 63 14l4 7q31 34 74 34h252q15 0 21 -13t-3 -25l-135 -168q-12 -14 -11.5 -32t11.5 -32q94 -110 146.5 -245t52.5 -283q0 -168 -67.5 -322t-181.5 -265t-271 -177t-328 -66q-196 0 -373 86 q-36 16 -63 -14l-4 -6q-31 -35 -74 -35h-252q-15 0 -21 13.5t3 25.5l133 166q12 14 11.5 31.5t-11.5 31.5q-94 109 -145.5 246t-51.5 285zM461 799q0 -112 49 -203q6 -12 21 -13.5t24 9.5l469 582q9 10 4 25t-18 18q-59 16 -115 16q-181 0 -307.5 -126.5t-126.5 -307.5z M760 397q5 -15 18 -18q52 -14 117 -14q183 0 308.5 126t125.5 308q0 106 -49 202q-6 12 -21 13.5t-24 -8.5l-471 -584q-9 -10 -4 -25z" />
<glyph unicode="&#xd9;" horiz-adv-x="1669" d="M100 698v850q0 20 15 34.5t35 14.5h311q20 0 34.5 -14.5t14.5 -34.5v-825q0 -174 82.5 -266t241.5 -92q161 0 244 92t83 266v825q0 20 14.5 34.5t34.5 14.5h310q20 0 34.5 -14.5t14.5 -34.5v-850q0 -155 -48.5 -287.5t-139.5 -231t-231.5 -154.5t-315.5 -56t-316 56 t-231.5 154.5t-138.5 230.5t-48 288zM490 1954q-6 20 4 37l149 258q9 17 29 21t37 -7l450 -321q17 -12 22 -32.5t-5 -39.5l-89 -152q-10 -19 -30 -25t-39 3l-504 231q-18 7 -24 27z" />
<glyph unicode="&#xda;" horiz-adv-x="1669" d="M100 698v850q0 20 15 34.5t35 14.5h311q20 0 34.5 -14.5t14.5 -34.5v-825q0 -174 82.5 -266t241.5 -92q161 0 244 92t83 266v825q0 20 14.5 34.5t34.5 14.5h310q20 0 34.5 -14.5t14.5 -34.5v-850q0 -155 -48.5 -287.5t-139.5 -231t-231.5 -154.5t-315.5 -56t-316 56 t-231.5 154.5t-138.5 230.5t-48 288zM484 1909q4 17 18 28l467 330q12 10 28.5 7t24.5 -17l158 -275q7 -14 2 -29.5t-19 -21.5l-520 -239q-15 -6 -31.5 -1t-25.5 19l-97 168q-9 14 -5 31z" />
<glyph unicode="&#xdb;" horiz-adv-x="1669" d="M100 698v850q0 20 15 34.5t35 14.5h311q20 0 34.5 -14.5t14.5 -34.5v-825q0 -174 82.5 -266t241.5 -92q161 0 244 92t83 266v825q0 20 14.5 34.5t34.5 14.5h310q20 0 34.5 -14.5t14.5 -34.5v-850q0 -155 -48.5 -287.5t-139.5 -231t-231.5 -154.5t-315.5 -56t-316 56 t-231.5 154.5t-138.5 230.5t-48 288zM388.5 1906q2.5 21 17.5 33l389 306q17 13 39 13t39 -13l387 -306q15 -12 17.5 -33t-9.5 -36l-115 -141q-12 -17 -33 -20.5t-38 7.5l-213 142q-15 10 -35 10t-35 -10l-217 -142q-17 -11 -38.5 -7.5t-33.5 20.5l-112 141q-12 15 -9.5 36z " />
<glyph unicode="&#xdc;" horiz-adv-x="1669" d="M100 698v850q0 20 15 34.5t35 14.5h311q20 0 34.5 -14.5t14.5 -34.5v-825q0 -174 82.5 -266t241.5 -92q161 0 244 92t83 266v825q0 20 14.5 34.5t34.5 14.5h310q20 0 34.5 -14.5t14.5 -34.5v-850q0 -155 -48.5 -287.5t-139.5 -231t-231.5 -154.5t-315.5 -56t-316 56 t-231.5 154.5t-138.5 230.5t-48 288zM379 1901q0 80 58 138t141 58q81 0 138.5 -58t57.5 -138q0 -83 -57 -142t-139 -59q-83 0 -141 59t-58 142zM895 1901q0 80 58 138t141 58q81 0 138.5 -58t57.5 -138q0 -83 -57 -142t-139 -59q-83 0 -141 59t-58 142z" />
<glyph unicode="&#xdd;" horiz-adv-x="1671" d="M25 1583.5q7 13.5 24 13.5h383q52 0 74 -43l307 -501q6 -12 20.5 -12t20.5 12l307 503q26 41 76 41h385q17 0 24.5 -13.5t-1.5 -27.5l-584 -935q-23 -33 -23 -76v-496q0 -20 -14.5 -34.5t-34.5 -14.5h-309q-20 0 -34.5 14.5t-14.5 34.5v496q0 43 -23 76l-581 935 q-9 14 -2 27.5zM484 1909q4 17 18 28l467 330q12 10 28.5 7t24.5 -17l158 -275q7 -14 2 -29.5t-19 -21.5l-520 -239q-15 -6 -31.5 -1t-25.5 19l-97 168q-9 14 -5 31z" />
<glyph unicode="&#xde;" horiz-adv-x="1507" d="M123 49v1499q0 20 14.5 34.5t34.5 14.5h311q20 0 34.5 -14.5t14.5 -34.5v-94q0 -17 12 -29t29 -12h254q154 0 276 -50t197.5 -135.5t114.5 -194.5t39 -232q0 -129 -39 -240.5t-114.5 -197.5t-197.5 -135.5t-276 -49.5h-254q-17 0 -29 -12t-12 -29v-88q0 -20 -14.5 -34.5 t-34.5 -14.5h-311q-20 0 -34.5 14.5t-14.5 34.5zM532 592q0 -17 12 -29t29 -12h232q122 0 178.5 67t56.5 181q0 105 -57 173t-178 68h-232q-17 0 -29 -12t-12 -29v-407z" />
<glyph unicode="&#xdf;" horiz-adv-x="1810" d="M104 49v930q0 104 28.5 200.5t88.5 181.5t145.5 148.5t209 100.5t270.5 37q152 0 361 -36t397 -95q20 -6 33.5 -24t13.5 -40v-192q0 -52 -39 -80l-248 -191q-11 -9 -8 -20.5t16 -14.5q72 -19 137.5 -54.5t124.5 -89.5t94 -135t35 -177q0 -145 -74 -266t-207 -192 t-298 -71t-317.5 64.5t-256.5 187.5q-12 13 -9 34t20 30l241 153q44 26 78 -8q94 -94 227 -94q91 0 146 45.5t55 112.5q0 97 -102 142.5t-265 12.5q-48 -9 -77 31l-144 199q-12 15 -9 36t20 33l339 264q9 8 5 19t-15 14q-130 29 -278 29q-171 0 -262 -91t-91 -235v-899 q0 -20 -14.5 -34.5t-34.5 -14.5h-286q-20 0 -35 14.5t-15 34.5z" />
<glyph unicode="&#xe0;" d="M18 45l611 1507q7 20 26 32.5t41 12.5h308q22 0 41 -12.5t26 -32.5l608 -1507q6 -16 -3 -30.5t-27 -14.5h-349q-22 0 -40 12.5t-25 32.5l-57 150q-6 17 -21.5 27.5t-34.5 10.5h-547q-19 0 -34 -10.5t-21 -27.5l-57 -150q-7 -20 -25.5 -32.5t-40.5 -12.5h-348 q-18 0 -27.5 15t-3.5 30zM506 1954q-6 20 4 37l149 258q9 17 29 21t37 -7l450 -321q17 -12 22 -32.5t-5 -39.5l-89 -152q-10 -19 -30 -25t-39 3l-504 231q-18 7 -24 27zM688 643q-5 -14 3.5 -26.5t23.5 -12.5h268q15 0 23.5 12.5t3.5 26.5l-146 391q-3 10 -14 10t-14 -10z " />
<glyph unicode="&#xe1;" d="M18 45l611 1507q7 20 26 32.5t41 12.5h308q22 0 41 -12.5t26 -32.5l608 -1507q6 -16 -3 -30.5t-27 -14.5h-349q-22 0 -40 12.5t-25 32.5l-57 150q-6 17 -21.5 27.5t-34.5 10.5h-547q-19 0 -34 -10.5t-21 -27.5l-57 -150q-7 -20 -25.5 -32.5t-40.5 -12.5h-348 q-18 0 -27.5 15t-3.5 30zM500 1909q4 17 18 28l467 330q12 10 28.5 7t24.5 -17l158 -275q7 -14 2 -29.5t-19 -21.5l-520 -239q-15 -6 -31.5 -1t-25.5 19l-97 168q-9 14 -5 31zM688 643q-5 -14 3.5 -26.5t23.5 -12.5h268q15 0 23.5 12.5t3.5 26.5l-146 391q-3 10 -14 10 t-14 -10z" />
<glyph unicode="&#xe2;" d="M18 45l611 1507q7 20 26 32.5t41 12.5h308q22 0 41 -12.5t26 -32.5l608 -1507q6 -16 -3 -30.5t-27 -14.5h-349q-22 0 -40 12.5t-25 32.5l-57 150q-6 17 -21.5 27.5t-34.5 10.5h-547q-19 0 -34 -10.5t-21 -27.5l-57 -150q-7 -20 -25.5 -32.5t-40.5 -12.5h-348 q-18 0 -27.5 15t-3.5 30zM404.5 1906q2.5 21 17.5 33l389 306q17 13 39 13t39 -13l387 -306q15 -12 17.5 -33t-9.5 -36l-115 -141q-12 -17 -33 -20.5t-38 7.5l-213 142q-15 10 -35 10t-35 -10l-217 -142q-17 -11 -38.5 -7.5t-33.5 20.5l-112 141q-12 15 -9.5 36zM688 643 q-5 -14 3.5 -26.5t23.5 -12.5h268q15 0 23.5 12.5t3.5 26.5l-146 391q-3 10 -14 10t-14 -10z" />
<glyph unicode="&#xe3;" d="M18 45l611 1507q7 20 26 32.5t41 12.5h308q22 0 41 -12.5t26 -32.5l608 -1507q6 -16 -3 -30.5t-27 -14.5h-349q-22 0 -40 12.5t-25 32.5l-57 150q-6 17 -21.5 27.5t-34.5 10.5h-547q-19 0 -34 -10.5t-21 -27.5l-57 -150q-7 -20 -25.5 -32.5t-40.5 -12.5h-348 q-18 0 -27.5 15t-3.5 30zM438 1788q2 44 9 85t26 90t47.5 85t77 60t111.5 24q99 0 211 -80q32 -24 49 -24q22 0 22 32q2 14 12 23.5t23 9.5h191q19 0 33 -15t12 -34q-2 -44 -9 -85t-26 -90t-47.5 -85t-77 -60t-111.5 -24q-99 0 -211 80q-32 24 -49 24q-22 0 -22 -32 q-2 -14 -12 -23.5t-23 -9.5h-191q-19 0 -33 15t-12 34zM688 643q-5 -14 3.5 -26.5t23.5 -12.5h268q15 0 23.5 12.5t3.5 26.5l-146 391q-3 10 -14 10t-14 -10z" />
<glyph unicode="&#xe4;" d="M18 45l611 1507q7 20 26 32.5t41 12.5h308q22 0 41 -12.5t26 -32.5l608 -1507q6 -16 -3 -30.5t-27 -14.5h-349q-22 0 -40 12.5t-25 32.5l-57 150q-6 17 -21.5 27.5t-34.5 10.5h-547q-19 0 -34 -10.5t-21 -27.5l-57 -150q-7 -20 -25.5 -32.5t-40.5 -12.5h-348 q-18 0 -27.5 15t-3.5 30zM395 1901q0 80 58 138t141 58q81 0 139 -58t58 -138q0 -83 -57.5 -142t-139.5 -59q-83 0 -141 59t-58 142zM688 643q-5 -14 3.5 -26.5t23.5 -12.5h268q15 0 23.5 12.5t3.5 26.5l-146 391q-3 10 -14 10t-14 -10zM911 1901q0 80 58 138t141 58 q81 0 139 -58t58 -138q0 -83 -57.5 -142t-139.5 -59q-83 0 -141 59t-58 142z" />
<glyph unicode="&#xe5;" d="M18 45l611 1507q7 20 26 32.5t41 12.5h308q22 0 41 -12.5t26 -32.5l608 -1507q6 -16 -3 -30.5t-27 -14.5h-349q-22 0 -40 12.5t-25 32.5l-57 150q-6 17 -21.5 27.5t-34.5 10.5h-547q-19 0 -34 -10.5t-21 -27.5l-57 -150q-7 -20 -25.5 -32.5t-40.5 -12.5h-348 q-18 0 -27.5 15t-3.5 30zM510 1987q0 141 99.5 241.5t238.5 100.5q140 0 241 -101.5t101 -240.5t-101 -238.5t-241 -99.5t-239 99.5t-99 238.5zM688 643q-5 -14 3.5 -26.5t23.5 -12.5h268q15 0 23.5 12.5t3.5 26.5l-146 391q-3 10 -14 10t-14 -10zM750 1987q0 -41 28.5 -70 t69.5 -29t69.5 29t28.5 70t-28.5 69.5t-69.5 28.5t-69.5 -28.5t-28.5 -69.5z" />
<glyph unicode="&#xe6;" horiz-adv-x="2623" d="M7.5 13.5q-6.5 13.5 2.5 25.5l1223 1520q27 38 80 38h1186q20 0 34.5 -14.5t14.5 -34.5v-299q0 -20 -14.5 -34.5t-34.5 -14.5h-730q-17 0 -28.5 -12t-11.5 -29v-147q0 -17 11.5 -29t28.5 -12h584q20 0 34.5 -14.5t14.5 -34.5v-273q0 -20 -14.5 -34.5t-34.5 -14.5h-584 q-17 0 -28.5 -12t-11.5 -29v-123q0 -17 11.5 -29t28.5 -12h730q20 0 34.5 -14.5t14.5 -34.5v-297q0 -20 -14.5 -34.5t-34.5 -14.5h-1129q-20 0 -34.5 14.5t-14.5 34.5v144q0 17 -12 28.5t-29 11.5h-549q-43 0 -65 -32l-129 -162q-28 -39 -80 -39h-428q-15 0 -21.5 13.5z M1004.5 615q5.5 -11 17.5 -11h258q17 0 29 12t12 29v348q0 11 -9.5 14t-15.5 -6l-290 -364q-7 -11 -1.5 -22z" />
<glyph unicode="&#xe7;" horiz-adv-x="1673" d="M47 799q0 168 68 322t182.5 264.5t271 176.5t326.5 66q230 0 424.5 -111.5t306.5 -299.5q9 -15 4 -36t-22 -28l-283 -125q-20 -11 -40 -5t-32 26q-60 85 -154 134.5t-204 49.5q-180 0 -307 -126.5t-127 -307.5t127 -307.5t307 -126.5q111 0 204.5 49.5t153.5 134.5 q12 20 32 25.5t40 -3.5l285 -125q17 -6 23 -26t-5 -35q-97 -167 -264 -276t-367 -134q-43 -7 -49 -45l-2 -10q-6 -41 31 -59q65 -32 96 -91.5t31 -129.5q0 -114 -74 -189.5t-207 -75.5q-103 0 -245 50q-17 6 -25.5 24t-1.5 35l67 156q9 20 27.5 27t38.5 -1q72 -31 123 -31 q43 0 59.5 15t16.5 33q0 42 -39 47q-44 6 -59.5 13t-45.5 34l-2 2q-17 13 -21.5 35.5t3.5 42.5l33 84q5 16 -2.5 29t-24.5 16q-190 39 -344.5 155t-244 289t-89.5 369z" />
<glyph unicode="&#xe8;" horiz-adv-x="1425" d="M123 49v1499q0 20 14.5 34.5t34.5 14.5h1128q20 0 35 -14.5t15 -34.5v-299q0 -20 -15 -34.5t-35 -14.5h-727q-17 0 -29 -12t-12 -29v-147q0 -17 12 -29t29 -12h582q20 0 34.5 -14.5t14.5 -34.5v-273q0 -20 -14.5 -34.5t-34.5 -14.5h-582q-17 0 -29 -12t-12 -29v-123 q0 -17 12 -29t29 -12h727q20 0 35 -14.5t15 -34.5v-297q0 -20 -15 -34.5t-35 -14.5h-1128q-20 0 -34.5 14.5t-14.5 34.5zM392 1954q-6 20 3 37l150 258q9 17 28.5 21t36.5 -7l451 -321q17 -12 21.5 -32.5t-5.5 -39.5l-88 -152q-10 -19 -30 -25t-39 3l-504 231q-18 7 -24 27z " />
<glyph unicode="&#xe9;" horiz-adv-x="1425" d="M123 49v1499q0 20 14.5 34.5t34.5 14.5h1128q20 0 35 -14.5t15 -34.5v-299q0 -20 -15 -34.5t-35 -14.5h-727q-17 0 -29 -12t-12 -29v-147q0 -17 12 -29t29 -12h582q20 0 34.5 -14.5t14.5 -34.5v-273q0 -20 -14.5 -34.5t-34.5 -14.5h-582q-17 0 -29 -12t-12 -29v-123 q0 -17 12 -29t29 -12h727q20 0 35 -14.5t15 -34.5v-297q0 -20 -15 -34.5t-35 -14.5h-1128q-20 0 -34.5 14.5t-14.5 34.5zM386 1909q4 17 18 28l467 330q12 10 28.5 7t24.5 -17l158 -275q7 -14 2 -29.5t-19 -21.5l-520 -239q-15 -6 -31.5 -1t-25.5 19l-97 168q-9 14 -5 31z " />
<glyph unicode="&#xea;" horiz-adv-x="1425" d="M123 49v1499q0 20 14.5 34.5t34.5 14.5h1128q20 0 35 -14.5t15 -34.5v-299q0 -20 -15 -34.5t-35 -14.5h-727q-17 0 -29 -12t-12 -29v-147q0 -17 12 -29t29 -12h582q20 0 34.5 -14.5t14.5 -34.5v-273q0 -20 -14.5 -34.5t-34.5 -14.5h-582q-17 0 -29 -12t-12 -29v-123 q0 -17 12 -29t29 -12h727q20 0 35 -14.5t15 -34.5v-297q0 -20 -15 -34.5t-35 -14.5h-1128q-20 0 -34.5 14.5t-14.5 34.5zM289.5 1906q2.5 21 17.5 33l389 306q17 13 39 13t39 -13l387 -306q15 -12 17.5 -33t-9.5 -36l-115 -141q-12 -17 -33 -20.5t-38 7.5l-213 142 q-15 10 -35 10t-35 -10l-217 -142q-17 -11 -38.5 -7.5t-33.5 20.5l-112 141q-12 15 -9.5 36z" />
<glyph unicode="&#xeb;" horiz-adv-x="1425" d="M123 49v1499q0 20 14.5 34.5t34.5 14.5h1128q20 0 35 -14.5t15 -34.5v-299q0 -20 -15 -34.5t-35 -14.5h-727q-17 0 -29 -12t-12 -29v-147q0 -17 12 -29t29 -12h582q20 0 34.5 -14.5t14.5 -34.5v-273q0 -20 -14.5 -34.5t-34.5 -14.5h-582q-17 0 -29 -12t-12 -29v-123 q0 -17 12 -29t29 -12h727q20 0 35 -14.5t15 -34.5v-297q0 -20 -15 -34.5t-35 -14.5h-1128q-20 0 -34.5 14.5t-14.5 34.5zM281 1901q0 80 57.5 138t140.5 58q81 0 139 -58t58 -138q0 -83 -57.5 -142t-139.5 -59q-83 0 -140.5 58.5t-57.5 142.5zM797 1901q0 80 57.5 138 t140.5 58q81 0 139 -58t58 -138q0 -83 -57.5 -142t-139.5 -59q-83 0 -140.5 58.5t-57.5 142.5z" />
<glyph unicode="&#xec;" horiz-adv-x="655" d="M-20 1954q-6 20 4 37l149 258q9 17 29 21t37 -7l450 -321q17 -12 22 -32.5t-5 -39.5l-89 -152q-10 -19 -30 -25t-39 3l-504 231q-18 7 -24 27zM123 49v1499q0 20 14.5 34.5t34.5 14.5h311q20 0 34.5 -14.5t14.5 -34.5v-1499q0 -20 -14.5 -34.5t-34.5 -14.5h-311 q-20 0 -34.5 14.5t-14.5 34.5z" />
<glyph unicode="&#xed;" horiz-adv-x="655" d="M-24 1909q4 17 18 28l467 330q12 10 28.5 7t24.5 -17l158 -275q7 -14 2 -29.5t-19 -21.5l-520 -239q-15 -6 -31.5 -1t-25.5 19l-97 168q-9 14 -5 31zM123 49v1499q0 20 14.5 34.5t34.5 14.5h311q20 0 34.5 -14.5t14.5 -34.5v-1499q0 -20 -14.5 -34.5t-34.5 -14.5h-311 q-20 0 -34.5 14.5t-14.5 34.5z" />
<glyph unicode="&#xee;" horiz-adv-x="655" d="M-119.5 1906q2.5 21 17.5 33l389 306q17 13 39 13t39 -13l387 -306q15 -12 17.5 -33t-9.5 -36l-115 -141q-12 -17 -33 -20.5t-38 7.5l-213 142q-15 10 -35 10t-35 -10l-217 -142q-17 -11 -38.5 -7.5t-33.5 20.5l-112 141q-12 15 -9.5 36zM123 49v1499q0 20 14.5 34.5 t34.5 14.5h311q20 0 34.5 -14.5t14.5 -34.5v-1499q0 -20 -14.5 -34.5t-34.5 -14.5h-311q-20 0 -34.5 14.5t-14.5 34.5z" />
<glyph unicode="&#xef;" horiz-adv-x="655" d="M-129 1901q0 80 58 138t141 58q81 0 138.5 -58t57.5 -138q0 -83 -57 -142t-139 -59q-83 0 -141 59t-58 142zM123 49v1499q0 20 14.5 34.5t34.5 14.5h311q20 0 34.5 -14.5t14.5 -34.5v-1499q0 -20 -14.5 -34.5t-34.5 -14.5h-311q-20 0 -34.5 14.5t-14.5 34.5zM387 1901 q0 80 58 138t141 58q81 0 138.5 -58t57.5 -138q0 -83 -57 -142t-139 -59q-83 0 -141 59t-58 142z" />
<glyph unicode="&#xf0;" horiz-adv-x="1685" d="M16 657v254q0 20 15 35t35 15h26q17 0 29 11.5t12 28.5v547q0 20 14.5 34.5t34.5 14.5h692q182 0 328 -63.5t238.5 -173.5t141 -253t48.5 -308q0 -132 -30 -250.5t-92.5 -219t-151 -174t-212 -114.5t-270.5 -41h-692q-20 0 -34.5 14.5t-14.5 34.5v518q0 17 -12 29t-29 12 h-26q-20 0 -35 14.5t-15 34.5zM543 436q0 -17 12 -29t29 -12h260q179 0 276 109.5t97 294.5q0 184 -97 292.5t-276 108.5h-260q-17 0 -29 -12t-12 -29v-158q0 -17 12 -28.5t29 -11.5h247q20 0 35 -15t15 -35v-254q0 -20 -15 -34.5t-35 -14.5h-247q-17 0 -29 -12t-12 -29 v-131z" />
<glyph unicode="&#xf1;" horiz-adv-x="1712" d="M123 49v1499q0 20 14.5 34.5t34.5 14.5h248q53 0 80 -38l657 -822q6 -9 15.5 -6t9.5 14v803q0 20 14.5 34.5t34.5 14.5h309q20 0 34.5 -14.5t14.5 -34.5v-1499q0 -20 -14.5 -34.5t-34.5 -14.5h-248q-52 0 -80 39l-657 819q-6 9 -15.5 6t-9.5 -14v-801q0 -20 -14.5 -34.5 t-34.5 -14.5h-309q-20 0 -34.5 14.5t-14.5 34.5zM444 1788q2 44 9 85t26 90t47.5 85t77 60t111.5 24q99 0 211 -80q32 -24 49 -24q22 0 22 32q2 14 12 23.5t23 9.5h191q19 0 33 -15t12 -34q-2 -44 -9 -85t-26 -90t-47.5 -85t-77 -60t-111.5 -24q-99 0 -211 80q-32 24 -49 24 q-22 0 -22 -32q-2 -14 -12 -23.5t-23 -9.5h-191q-19 0 -33 15t-12 34z" />
<glyph unicode="&#xf2;" horiz-adv-x="1789" d="M47 799q0 168 68 322t182.5 264.5t271 176.5t326.5 66q172 0 329 -66t270.5 -177t181 -264.5t67.5 -321.5t-67.5 -322t-181 -265t-270.5 -177t-329 -66q-170 0 -326.5 66t-271 177t-182.5 265t-68 322zM461 799q0 -181 127 -307.5t307 -126.5q184 0 309 126t125 308 t-125 308t-309 126q-180 0 -307 -126.5t-127 -307.5zM551 1954q-6 20 4 37l149 258q9 17 29 21t37 -7l450 -321q17 -12 22 -32.5t-5 -39.5l-89 -152q-10 -19 -30 -25t-39 3l-504 231q-18 7 -24 27z" />
<glyph unicode="&#xf3;" horiz-adv-x="1789" d="M47 799q0 168 68 322t182.5 264.5t271 176.5t326.5 66q172 0 329 -66t270.5 -177t181 -264.5t67.5 -321.5t-67.5 -322t-181 -265t-270.5 -177t-329 -66q-170 0 -326.5 66t-271 177t-182.5 265t-68 322zM461 799q0 -181 127 -307.5t307 -126.5q184 0 309 126t125 308 t-125 308t-309 126q-180 0 -307 -126.5t-127 -307.5zM545 1909q4 17 18 28l467 330q12 10 28.5 7t24.5 -17l158 -275q7 -14 2 -29.5t-19 -21.5l-520 -239q-15 -6 -31.5 -1t-25.5 19l-97 168q-9 14 -5 31z" />
<glyph unicode="&#xf4;" horiz-adv-x="1789" d="M47 799q0 168 68 322t182.5 264.5t271 176.5t326.5 66q172 0 329 -66t270.5 -177t181 -264.5t67.5 -321.5t-67.5 -322t-181 -265t-270.5 -177t-329 -66q-170 0 -326.5 66t-271 177t-182.5 265t-68 322zM449.5 1906q2.5 21 17.5 33l389 306q17 13 39 13t39 -13l387 -306 q15 -12 17.5 -33t-9.5 -36l-115 -141q-12 -17 -33 -20.5t-38 7.5l-213 142q-15 10 -35 10t-35 -10l-217 -142q-17 -11 -38.5 -7.5t-33.5 20.5l-112 141q-12 15 -9.5 36zM461 799q0 -181 127 -307.5t307 -126.5q184 0 309 126t125 308t-125 308t-309 126q-180 0 -307 -126.5 t-127 -307.5z" />
<glyph unicode="&#xf5;" horiz-adv-x="1789" d="M47 799q0 168 68 322t182.5 264.5t271 176.5t326.5 66q172 0 329 -66t270.5 -177t181 -264.5t67.5 -321.5t-67.5 -322t-181 -265t-270.5 -177t-329 -66q-170 0 -326.5 66t-271 177t-182.5 265t-68 322zM461 799q0 -181 127 -307.5t307 -126.5q184 0 309 126t125 308 t-125 308t-309 126q-180 0 -307 -126.5t-127 -307.5zM485 1788q2 44 9 85t26 90t47.5 85t77 60t111.5 24q99 0 211 -80q32 -24 49 -24q22 0 22 32q2 14 12 23.5t23 9.5h191q19 0 33 -15t12 -34q-2 -44 -9 -85t-26 -90t-47.5 -85t-77 -60t-111.5 -24q-99 0 -211 80 q-32 24 -49 24q-22 0 -22 -32q-2 -14 -12 -23.5t-23 -9.5h-191q-19 0 -33 15t-12 34z" />
<glyph unicode="&#xf6;" horiz-adv-x="1789" d="M47 799q0 168 68 322t182.5 264.5t271 176.5t326.5 66q172 0 329 -66t270.5 -177t181 -264.5t67.5 -321.5t-67.5 -322t-181 -265t-270.5 -177t-329 -66q-170 0 -326.5 66t-271 177t-182.5 265t-68 322zM440 1901q0 80 58 138t141 58q81 0 139 -58t58 -138 q0 -83 -57.5 -142t-139.5 -59q-83 0 -141 59t-58 142zM461 799q0 -181 127 -307.5t307 -126.5q184 0 309 126t125 308t-125 308t-309 126q-180 0 -307 -126.5t-127 -307.5zM956 1901q0 80 58 138t141 58q81 0 139 -58t58 -138q0 -83 -57.5 -142t-139.5 -59q-83 0 -141 59 t-58 142z" />
<glyph unicode="&#xf7;" horiz-adv-x="1112" d="M80 612v273q0 20 14.5 34.5t34.5 14.5h854q20 0 34.5 -14.5t14.5 -34.5v-273q0 -20 -14.5 -34.5t-34.5 -14.5h-854q-20 0 -34.5 14.5t-14.5 34.5zM297 262q0 106 76 182t182 76t182 -76t76 -182t-76 -182t-182 -76t-182 76t-76 182zM297 1235q0 106 76 182t182 76 t182 -76t76 -182t-76 -182t-182 -76t-182 76t-76 182z" />
<glyph unicode="&#xf8;" horiz-adv-x="1787" d="M47 799q0 168 68 321.5t182 264.5t270.5 177t327.5 66q196 0 373 -86q36 -16 63 14l4 7q31 34 74 34h252q15 0 21 -13t-3 -25l-135 -168q-12 -14 -11.5 -32t11.5 -32q94 -110 146.5 -245t52.5 -283q0 -168 -67.5 -322t-181.5 -265t-271 -177t-328 -66q-196 0 -373 86 q-36 16 -63 -14l-4 -6q-31 -35 -74 -35h-252q-15 0 -21 13.5t3 25.5l133 166q12 14 11.5 31.5t-11.5 31.5q-94 109 -145.5 246t-51.5 285zM461 799q0 -112 49 -203q6 -12 21 -13.5t24 9.5l469 582q9 10 4 25t-18 18q-59 16 -115 16q-181 0 -307.5 -126.5t-126.5 -307.5z M760 397q5 -15 18 -18q52 -14 117 -14q183 0 308.5 126t125.5 308q0 106 -49 202q-6 12 -21 13.5t-24 -8.5l-471 -584q-9 -10 -4 -25z" />
<glyph unicode="&#xf9;" horiz-adv-x="1669" d="M100 698v850q0 20 15 34.5t35 14.5h311q20 0 34.5 -14.5t14.5 -34.5v-825q0 -174 82.5 -266t241.5 -92q161 0 244 92t83 266v825q0 20 14.5 34.5t34.5 14.5h310q20 0 34.5 -14.5t14.5 -34.5v-850q0 -155 -48.5 -287.5t-139.5 -231t-231.5 -154.5t-315.5 -56t-316 56 t-231.5 154.5t-138.5 230.5t-48 288zM490 1954q-6 20 4 37l149 258q9 17 29 21t37 -7l450 -321q17 -12 22 -32.5t-5 -39.5l-89 -152q-10 -19 -30 -25t-39 3l-504 231q-18 7 -24 27z" />
<glyph unicode="&#xfa;" horiz-adv-x="1669" d="M100 698v850q0 20 15 34.5t35 14.5h311q20 0 34.5 -14.5t14.5 -34.5v-825q0 -174 82.5 -266t241.5 -92q161 0 244 92t83 266v825q0 20 14.5 34.5t34.5 14.5h310q20 0 34.5 -14.5t14.5 -34.5v-850q0 -155 -48.5 -287.5t-139.5 -231t-231.5 -154.5t-315.5 -56t-316 56 t-231.5 154.5t-138.5 230.5t-48 288zM484 1909q4 17 18 28l467 330q12 10 28.5 7t24.5 -17l158 -275q7 -14 2 -29.5t-19 -21.5l-520 -239q-15 -6 -31.5 -1t-25.5 19l-97 168q-9 14 -5 31z" />
<glyph unicode="&#xfb;" horiz-adv-x="1669" d="M100 698v850q0 20 15 34.5t35 14.5h311q20 0 34.5 -14.5t14.5 -34.5v-825q0 -174 82.5 -266t241.5 -92q161 0 244 92t83 266v825q0 20 14.5 34.5t34.5 14.5h310q20 0 34.5 -14.5t14.5 -34.5v-850q0 -155 -48.5 -287.5t-139.5 -231t-231.5 -154.5t-315.5 -56t-316 56 t-231.5 154.5t-138.5 230.5t-48 288zM388.5 1906q2.5 21 17.5 33l389 306q17 13 39 13t39 -13l387 -306q15 -12 17.5 -33t-9.5 -36l-115 -141q-12 -17 -33 -20.5t-38 7.5l-213 142q-15 10 -35 10t-35 -10l-217 -142q-17 -11 -38.5 -7.5t-33.5 20.5l-112 141q-12 15 -9.5 36z " />
<glyph unicode="&#xfc;" horiz-adv-x="1669" d="M100 698v850q0 20 15 34.5t35 14.5h311q20 0 34.5 -14.5t14.5 -34.5v-825q0 -174 82.5 -266t241.5 -92q161 0 244 92t83 266v825q0 20 14.5 34.5t34.5 14.5h310q20 0 34.5 -14.5t14.5 -34.5v-850q0 -155 -48.5 -287.5t-139.5 -231t-231.5 -154.5t-315.5 -56t-316 56 t-231.5 154.5t-138.5 230.5t-48 288zM379 1901q0 80 58 138t141 58q81 0 138.5 -58t57.5 -138q0 -83 -57 -142t-139 -59q-83 0 -141 59t-58 142zM895 1901q0 80 58 138t141 58q81 0 138.5 -58t57.5 -138q0 -83 -57 -142t-139 -59q-83 0 -141 59t-58 142z" />
<glyph unicode="&#xfd;" horiz-adv-x="1671" d="M25 1583.5q7 13.5 24 13.5h383q52 0 74 -43l307 -501q6 -12 20.5 -12t20.5 12l307 503q26 41 76 41h385q17 0 24.5 -13.5t-1.5 -27.5l-584 -935q-23 -33 -23 -76v-496q0 -20 -14.5 -34.5t-34.5 -14.5h-309q-20 0 -34.5 14.5t-14.5 34.5v496q0 43 -23 76l-581 935 q-9 14 -2 27.5zM486 1909q4 17 18 28l467 330q12 10 28.5 7t24.5 -17l158 -275q7 -14 2 -29.5t-19 -21.5l-520 -239q-15 -6 -31.5 -1t-25.5 19l-97 168q-9 14 -5 31z" />
<glyph unicode="&#xfe;" horiz-adv-x="1507" d="M123 49v1499q0 20 14.5 34.5t34.5 14.5h311q20 0 34.5 -14.5t14.5 -34.5v-94q0 -17 12 -29t29 -12h254q154 0 276 -50t197.5 -135.5t114.5 -194.5t39 -232q0 -129 -39 -240.5t-114.5 -197.5t-197.5 -135.5t-276 -49.5h-254q-17 0 -29 -12t-12 -29v-88q0 -20 -14.5 -34.5 t-34.5 -14.5h-311q-20 0 -34.5 14.5t-14.5 34.5zM532 592q0 -17 12 -29t29 -12h232q122 0 178.5 67t56.5 181q0 105 -57 173t-178 68h-232q-17 0 -29 -12t-12 -29v-407z" />
<glyph unicode="&#xff;" horiz-adv-x="1671" d="M25 1583.5q7 13.5 24 13.5h383q52 0 74 -43l307 -501q6 -12 20.5 -12t20.5 12l307 503q26 41 76 41h385q17 0 24.5 -13.5t-1.5 -27.5l-584 -935q-23 -33 -23 -76v-496q0 -20 -14.5 -34.5t-34.5 -14.5h-309q-20 0 -34.5 14.5t-14.5 34.5v496q0 43 -23 76l-581 935 q-9 14 -2 27.5zM379 1901q0 80 58 138t141 58q81 0 138.5 -58t57.5 -138q0 -83 -57 -142t-139 -59q-83 0 -141 59t-58 142zM895 1901q0 80 58 138t141 58q81 0 138.5 -58t57.5 -138q0 -83 -57 -142t-139 -59q-83 0 -141 59t-58 142z" />
<glyph unicode="&#x152;" horiz-adv-x="2404" d="M49 799q0 128 38.5 247t115 219t183.5 174t251.5 116t310.5 42h1333q20 0 35 -14.5t15 -34.5v-299q0 -20 -15 -34.5t-35 -14.5h-727q-17 0 -29 -12t-12 -29v-147q0 -17 12 -29t29 -12h582q20 0 34.5 -14.5t14.5 -34.5v-273q0 -20 -14.5 -34.5t-34.5 -14.5h-582 q-17 0 -29 -12t-12 -29v-123q0 -17 12 -29t29 -12h727q20 0 35 -14.5t15 -34.5v-297q0 -20 -15 -34.5t-35 -14.5h-1333q-207 0 -379 64.5t-284.5 174t-174 254t-61.5 306.5zM463 799q0 -180 124.5 -292t360.5 -112h115q17 0 29 12t12 29v723q0 17 -12 29t-29 12h-115 q-236 0 -360.5 -111t-124.5 -290z" />
<glyph unicode="&#x153;" horiz-adv-x="2406" d="M49 799q0 128 38.5 247t115 219t183.5 174t251.5 116t310.5 42h1333q20 0 35 -14.5t15 -34.5v-299q0 -20 -15 -34.5t-35 -14.5h-727q-17 0 -29 -12t-12 -29v-147q0 -17 12 -29t29 -12h582q20 0 34.5 -14.5t14.5 -34.5v-273q0 -20 -14.5 -34.5t-34.5 -14.5h-582 q-17 0 -29 -12t-12 -29v-123q0 -17 12 -29t29 -12h727q20 0 35 -14.5t15 -34.5v-297q0 -20 -15 -34.5t-35 -14.5h-1333q-207 0 -379 64.5t-284.5 174t-174 254t-61.5 306.5zM463 799q0 -180 124.5 -292t360.5 -112h115q17 0 29 12t12 29v723q0 17 -12 29t-29 12h-115 q-236 0 -360.5 -111t-124.5 -290z" />
<glyph unicode="&#x178;" horiz-adv-x="1671" d="M25 1583.5q7 13.5 24 13.5h383q52 0 74 -43l307 -501q6 -12 20.5 -12t20.5 12l307 503q26 41 76 41h385q17 0 24.5 -13.5t-1.5 -27.5l-584 -935q-23 -33 -23 -76v-496q0 -20 -14.5 -34.5t-34.5 -14.5h-309q-20 0 -34.5 14.5t-14.5 34.5v496q0 43 -23 76l-581 935 q-9 14 -2 27.5zM379 1901q0 80 58 138t141 58q81 0 138.5 -58t57.5 -138q0 -83 -57 -142t-139 -59q-83 0 -141 59t-58 142zM895 1901q0 80 58 138t141 58q81 0 138.5 -58t57.5 -138q0 -83 -57 -142t-139 -59q-83 0 -141 59t-58 142z" />
<glyph unicode="&#x2c6;" horiz-adv-x="1009" d="M60.5 1906q2.5 21 17.5 33l389 306q17 13 39 13t39 -13l387 -306q15 -12 17.5 -33t-9.5 -36l-115 -141q-12 -17 -33 -20.5t-38 7.5l-213 142q-15 10 -35 10t-35 -10l-217 -142q-17 -11 -38.5 -7.5t-33.5 20.5l-112 141q-12 15 -9.5 36z" />
<glyph unicode="&#x2dc;" horiz-adv-x="962" d="M70 1788q2 44 9 85t26 90t47 85t76.5 60t111.5 24q99 0 211 -80q32 -24 49 -24q23 0 23 32q2 14 11.5 23.5t22.5 9.5h191q19 0 33 -15t12 -34q-2 -44 -9 -85t-26 -90t-47 -85t-76.5 -60t-111.5 -24q-99 0 -211 80q-32 24 -50 24q-22 0 -22 -32q-2 -14 -12 -23.5t-23 -9.5 h-190q-19 0 -33 15t-12 34z" />
<glyph unicode="&#x2000;" horiz-adv-x="1164" />
<glyph unicode="&#x2001;" horiz-adv-x="2329" />
<glyph unicode="&#x2002;" horiz-adv-x="1164" />
<glyph unicode="&#x2003;" horiz-adv-x="2329" />
<glyph unicode="&#x2004;" horiz-adv-x="776" />
<glyph unicode="&#x2005;" horiz-adv-x="582" />
<glyph unicode="&#x2006;" horiz-adv-x="388" />
<glyph unicode="&#x2007;" horiz-adv-x="388" />
<glyph unicode="&#x2008;" horiz-adv-x="291" />
<glyph unicode="&#x2009;" horiz-adv-x="465" />
<glyph unicode="&#x200a;" horiz-adv-x="129" />
<glyph unicode="&#x2010;" horiz-adv-x="854" d="M117 524v285q0 20 14.5 34.5t34.5 14.5h522q20 0 34.5 -14.5t14.5 -34.5v-285q0 -20 -14.5 -34.5t-34.5 -14.5h-522q-20 0 -34.5 14.5t-14.5 34.5z" />
<glyph unicode="&#x2011;" horiz-adv-x="854" d="M117 524v285q0 20 14.5 34.5t34.5 14.5h522q20 0 34.5 -14.5t14.5 -34.5v-285q0 -20 -14.5 -34.5t-34.5 -14.5h-522q-20 0 -34.5 14.5t-14.5 34.5z" />
<glyph unicode="&#x2012;" horiz-adv-x="854" d="M117 524v285q0 20 14.5 34.5t34.5 14.5h522q20 0 34.5 -14.5t14.5 -34.5v-285q0 -20 -14.5 -34.5t-34.5 -14.5h-522q-20 0 -34.5 14.5t-14.5 34.5z" />
<glyph unicode="&#x2013;" horiz-adv-x="1296" d="M117 524v285q0 20 14.5 34.5t34.5 14.5h967q20 0 34.5 -14.5t14.5 -34.5v-285q0 -20 -14.5 -34.5t-34.5 -14.5h-967q-20 0 -34.5 14.5t-14.5 34.5z" />
<glyph unicode="&#x2014;" horiz-adv-x="1622" d="M117 524v285q0 20 14.5 34.5t34.5 14.5h1292q20 0 34.5 -14.5t14.5 -34.5v-285q0 -20 -14.5 -34.5t-34.5 -14.5h-1292q-20 0 -34.5 14.5t-14.5 34.5z" />
<glyph unicode="&#x2018;" horiz-adv-x="659" d="M53 1085q0 113 86.5 242.5t253.5 290.5q13 14 35 13.5t35 -15.5l88 -86q15 -14 16 -35.5t-12 -36.5q-51 -57 -96 -123q-9 -14 -6.5 -33t14.5 -30q100 -95 100 -207q0 -106 -76 -182t-182 -76t-181 76t-75 202z" />
<glyph unicode="&#x2019;" horiz-adv-x="651" d="M96 1368q0 106 76 182t182 76t181 -76t75 -202q0 -113 -86.5 -242.5t-253.5 -290.5q-13 -14 -34.5 -13.5t-34.5 15.5l-88 86q-15 14 -16 35.5t12 36.5q51 57 96 123q9 14 6.5 33t-14.5 30q-101 96 -101 207z" />
<glyph unicode="&#x201a;" horiz-adv-x="661" d="M72 -206.5q-1 21.5 12 36.5q51 57 96 123q9 14 6.5 33t-14.5 30q-100 95 -100 207q0 106 76 182t182 76t181 -76t75 -202q0 -113 -86.5 -242.5t-253.5 -290.5q-13 -14 -35 -13.5t-35 15.5l-88 86q-15 14 -16 35.5z" />
<glyph unicode="&#x201c;" horiz-adv-x="1208" d="M55 1085q0 113 86.5 242.5t253.5 290.5q13 14 35 13.5t35 -15.5l88 -86q15 -14 16 -35.5t-12 -36.5q-51 -57 -96 -123q-9 -14 -6.5 -33t14.5 -30q100 -95 100 -207q0 -106 -76 -182t-182 -76t-181 76t-75 202zM604 1085q0 113 86.5 242.5t253.5 290.5q13 14 35 13.5 t35 -15.5l88 -86q15 -14 16 -35.5t-12 -36.5q-51 -57 -96 -123q-9 -14 -6.5 -33t14.5 -30q100 -95 100 -207q0 -106 -76 -182t-182 -76t-181 76t-75 202z" />
<glyph unicode="&#x201d;" horiz-adv-x="1202" d="M96 1368q0 106 76 182t182 76t181 -76t75 -202q0 -113 -86.5 -242.5t-253.5 -290.5q-13 -14 -34.5 -13.5t-34.5 15.5l-88 86q-15 14 -16 35.5t12 36.5q51 57 96 123q9 14 6.5 33t-14.5 30q-101 96 -101 207zM647 1368q0 106 76 182t182 76t181 -76t75 -202 q0 -113 -86.5 -242.5t-253.5 -290.5q-13 -14 -34.5 -13.5t-34.5 15.5l-88 86q-15 14 -16.5 35.5t11.5 36.5q55 61 97 123q9 14 6.5 33t-14.5 30q-101 96 -101 207z" />
<glyph unicode="&#x201e;" horiz-adv-x="1212" d="M72 -206.5q-1 21.5 12 36.5q51 57 96 123q9 14 6.5 33t-14.5 30q-100 95 -100 207q0 106 76 182t182 76t181 -76t75 -202q0 -113 -86.5 -242.5t-253.5 -290.5q-13 -14 -35 -13.5t-35 15.5l-88 86q-15 14 -16 35.5zM623 -206.5q-1 21.5 12 36.5q51 57 96 123q9 14 6.5 33 t-14.5 30q-100 95 -100 207q0 106 76 182t182 76t181 -76t75 -202q0 -113 -86.5 -242.5t-253.5 -290.5q-13 -14 -35 -13.5t-35 15.5l-88 86q-15 14 -16 35.5z" />
<glyph unicode="&#x2022;" horiz-adv-x="925" d="M137 666q0 131 97 227t229 96q133 0 230.5 -96t97.5 -227q0 -135 -97 -232.5t-231 -97.5q-132 0 -229 97.5t-97 232.5z" />
<glyph unicode="&#x2026;" horiz-adv-x="1826" d="M70 223q0 106 76 182t182 76t182 -76t76 -182t-76 -182t-182 -76t-182 76t-76 182zM659 223q0 106 76.5 182t182.5 76t182 -76t76 -182t-76 -182t-182 -76t-182.5 76t-76.5 182zM1241 223q0 106 76 182t182 76t182 -76t76 -182t-76 -182t-182 -76t-182 76t-76 182z" />
<glyph unicode="&#x202f;" horiz-adv-x="465" />
<glyph unicode="&#x2039;" horiz-adv-x="813" d="M98 639v219q0 50 37 82l506 449q11 9 24 3t13 -20v-385q0 -50 -37 -82l-145 -129q-12 -10 -12 -26t12 -27l145 -131q37 -32 37 -82v-383q0 -14 -13 -19.5t-24 3.5l-506 446q-37 32 -37 82z" />
<glyph unicode="&#x203a;" horiz-adv-x="813" d="M135 127v385q0 50 37 82l145 129q12 11 12 26.5t-12 26.5l-145 131q-37 32 -37 82v383q0 14 13.5 20t23.5 -3l506 -447q37 -32 37 -82v-219q0 -50 -37 -82l-506 -448q-10 -9 -23.5 -3.5t-13.5 19.5z" />
<glyph unicode="&#x205f;" horiz-adv-x="582" />
<glyph unicode="&#x20ac;" horiz-adv-x="1863" d="M86 539v170q0 20 13.5 33.5t33.5 13.5h31q18 0 18 20v39q0 3 -3.5 6.5t-6.5 3.5h-39q-20 0 -33.5 13.5t-13.5 33.5v170q0 20 14.5 35t34.5 15h60q43 0 59 36q99 224 310.5 362t465.5 138q230 0 424.5 -111.5t306.5 -299.5q9 -15 4 -36t-22 -28l-283 -125 q-20 -11 -39.5 -5t-31.5 26q-60 85 -154.5 134.5t-204.5 49.5q-167 0 -293 -113q-7 -8 -2.5 -18t15.5 -10h364q20 0 34.5 -15t14.5 -35v-168q0 -20 -14.5 -34.5t-34.5 -14.5h-508q-10 0 -10 -10v-39q0 -8 6 -14t14 -6h412q20 0 34.5 -14.5t14.5 -34.5v-168q0 -20 -14.5 -35 t-34.5 -15h-262q-10 0 -14 -10t4 -16q119 -98 274 -98q112 0 205.5 49.5t153.5 134.5q25 42 71 22l285 -125q17 -6 23 -26t-5 -35q-110 -190 -306.5 -303t-426.5 -113q-249 0 -457.5 133t-312.5 351q-16 36 -59 36h-66q-20 0 -34.5 15t-14.5 35z" />
<glyph unicode="&#x2122;" horiz-adv-x="1779" d="M84 1364v184q0 20 14.5 34.5t34.5 14.5h565q20 0 35 -14.5t15 -34.5v-184q0 -20 -15 -34.5t-35 -14.5h-98q-17 0 -29 -12t-12 -29v-307q0 -20 -14.5 -34.5t-34.5 -14.5h-188q-20 0 -35 14.5t-15 34.5v307q0 17 -12 29t-29 12h-98q-20 0 -34.5 14.5t-14.5 34.5zM803 967 v581q0 20 14.5 34.5t34.5 14.5h199q22 0 42.5 -11.5t30.5 -31.5l82 -151q7 -12 20.5 -12.5t20.5 10.5l86 153q10 20 31 31.5t43 11.5h197q20 0 34.5 -14.5t14.5 -34.5v-581q0 -20 -14.5 -34.5t-34.5 -14.5h-187q-20 0 -34.5 14.5t-14.5 34.5v147q0 9 -8 10.5t-12 -4.5 l-52 -92q-22 -39 -65 -39h-4q-46 0 -68 39l-49 90q-4 6 -12 4.5t-8 -10.5v-145q0 -20 -15 -34.5t-35 -14.5h-188q-20 0 -34.5 14.5t-14.5 34.5z" />
<glyph unicode="&#x25fc;" horiz-adv-x="1597" d="M0 0v1597h1597v-1597h-1597z" />
</font>
</defs>
</svg>
