<?xml version="1.0" encoding="utf-8"?>
<!-- Generator: Adobe Illustrator 16.0.3, SVG Export Plug-In . SVG Version: 6.00 Build 0)  -->
<!DOCTYPE svg PUBLIC "-//W3C//DTD SVG 1.1//EN" "http://www.w3.org/Graphics/SVG/1.1/DTD/svg11.dtd">
<svg version="1.1" id="taskfight-branding" xmlns="http://www.w3.org/2000/svg" xmlns:xlink="http://www.w3.org/1999/xlink" x="0px" y="0px"
	 width="600px" height="125px" viewBox="0 0 600 125" enable-background="new 0 0 600 125" xml:space="preserve">
<g id="monogram">
	<path id="monogram-shadow" fill="#321D2E" d="M127.458,19.644c-2.5-2.5-5.797-3.25-11.375-3.25c-23.47,0-82.795,6.85-100.462,12.85
		c-2.284,2.238-5.666,7.166-3.65,8.693c4.293-0.859,13.23-2.056,23.697-3.222c-0.373,12.38-1.724,54.051-0.931,75.885
		c0.017,0.448,0.236,0.867,0.598,1.137c1.489,1.104,3.404,1.844,5.161,2.884c0.265,0.155,0.59,0.17,0.866,0.034
		c0.276-0.133,0.466-0.397,0.507-0.702c3.233-24.375,11.291-71.184,17.906-81.598c3.125-0.264,6.188-0.503,9.127-0.711
		c-0.167,5.397-0.687,20.168-1.021,36.265c-1.323,0.353-2.588,0.693-3.747,1.009c-0.403,0.11-0.711,0.438-0.794,0.847
		c-0.45,2.207-0.77,4.771-0.845,6.991c-0.009,0.263,0.098,0.517,0.291,0.695c0.192,0.179,0.454,0.265,0.716,0.235
		c1.331-0.148,2.748-0.306,4.211-0.463c-0.173,11.584-0.2,23.06,0.11,31.541c0.014,0.389,0.208,0.75,0.525,0.976
		c1.523,1.086,3.555,1.547,5.374,2.516c0.265,0.142,0.581,0.144,0.849,0.006c0.266-0.138,0.448-0.396,0.488-0.694
		c1.279-9.643,3.317-22.729,5.723-35.656c3.786-0.348,7.411-0.641,10.455-0.816c0.409-0.023,0.771-0.279,0.928-0.658
		c1.028-2.476,1.956-5.279,1.956-7.358c0-1.466-0.395-2.896-0.936-4.169c-0.167-0.394-0.574-0.626-0.998-0.571
		c-2.286,0.297-5.512,0.948-9.085,1.763c3.111-14.972,6.579-28.117,9.73-33.238c8.034,0.146,15.975,0.637,18.563,1.786
		c0.13,0.058,0.222,0.177,0.243,0.316c0.022,0.141-0.027,0.282-0.133,0.377c-0.699,0.629-1.893,1.017-3.386,1.095
		c-0.12,0.006-0.225,0.084-0.265,0.197c-0.04,0.113-0.008,0.24,0.082,0.32c3.739,3.364,12.584,7.442,14.269,7.442
		c2.5,0,11.5-8.5,11.5-10.875C133.708,29.956,130.802,22.987,127.458,19.644z"/>
	<path id="monogram-text" fill="#EDC950" d="M124.624,16.1c-2.5-2.5-5.797-3.25-11.375-3.25c-23.47,0-82.795,6.85-100.462,12.85
		c-2.284,2.238-5.666,7.166-3.65,8.693c4.293-0.859,13.23-2.056,23.697-3.222c-0.373,12.38-1.724,54.052-0.931,75.886
		c0.017,0.448,0.236,0.867,0.598,1.137c1.489,1.104,3.404,1.844,5.161,2.884c0.265,0.155,0.59,0.17,0.866,0.034
		c0.276-0.133,0.466-0.397,0.507-0.702c3.233-24.375,11.291-71.185,17.906-81.599c3.125-0.264,6.188-0.503,9.127-0.711
		c-0.167,5.397-0.687,20.168-1.021,36.266c-1.323,0.353-2.588,0.693-3.747,1.009c-0.403,0.11-0.711,0.438-0.794,0.847
		c-0.45,2.207-0.77,4.771-0.845,6.991c-0.009,0.263,0.098,0.517,0.291,0.695c0.192,0.179,0.454,0.265,0.716,0.235
		c1.331-0.148,2.748-0.306,4.211-0.463c-0.173,11.584-0.2,23.06,0.11,31.541c0.014,0.389,0.208,0.75,0.525,0.975
		c1.523,1.087,3.555,1.548,5.374,2.517c0.265,0.142,0.581,0.144,0.849,0.006c0.266-0.138,0.448-0.396,0.488-0.694
		c1.279-9.643,3.317-22.729,5.723-35.656c3.786-0.348,7.411-0.641,10.455-0.816c0.409-0.023,0.771-0.279,0.928-0.658
		c1.028-2.476,1.956-5.279,1.956-7.358c0-1.465-0.395-2.896-0.936-4.17c-0.167-0.394-0.574-0.626-0.998-0.571
		c-2.286,0.297-5.512,0.948-9.085,1.764c3.112-14.975,6.58-28.12,9.732-33.241c8.034,0.146,15.975,0.637,18.563,1.786
		c0.13,0.058,0.222,0.177,0.243,0.316c0.022,0.141-0.027,0.282-0.133,0.377c-0.699,0.629-1.893,1.017-3.386,1.095
		c-0.12,0.006-0.225,0.084-0.265,0.197c-0.04,0.113-0.008,0.24,0.082,0.32c3.739,3.364,12.584,7.442,14.269,7.442
		c2.5,0,11.5-8.5,11.5-10.875C130.874,26.413,127.967,19.444,124.624,16.1z"/>
</g>
<g id="lettering">
	<g id="lettering-shadow">
		<path id="T_1_" fill="#321D2E" d="M587.213,27.161c-17.667-6-79.252-12.434-102.722-12.434c-5.578,0-8.875,0.75-11.375,3.25
			c-3.344,3.344-6.25,10.313-6.25,11.875c0,2.375,9,10.875,11.5,10.875c1.783,0,9.793-4.83,14.243-7.602
			c0.099-0.062,0.15-0.174,0.137-0.289c-0.015-0.114-0.095-0.21-0.205-0.244c-1.142-0.354-2.298-0.751-3.368-1.16
			c-0.062-0.024-0.1-0.086-0.094-0.151c0.006-0.065,0.055-0.118,0.119-0.13c5.558-1.019,13.646-2.007,24.126-2.007
			c3.948,0,9.352,0.249,15.5,0.653c-1.758,14.855-5.063,55-5.725,75.904c-0.017,0.521,0.228,1.02,0.649,1.324
			c1.285,0.928,3.188,1.643,4.846,2.711c0.254,0.164,0.573,0.191,0.853,0.074c0.277-0.117,0.479-0.365,0.541-0.662
			c4.361-21.535,13.856-61.796,21.063-77.558c16.918,1.552,33.612,3.421,39.812,4.263C592.879,34.328,589.498,29.401,587.213,27.161
			z"/>
		<path id="GH" fill="#321D2E" d="M516.859,46.167c-0.286-0.317-0.724-0.453-1.139-0.352c-5.128,1.243-10.993,2.962-15.709,4.6
			c-0.534,0.185-0.933,0.634-1.055,1.186c-1.128,5.088-2.411,11.594-3.277,18.124c-3.63,0.449-7.33,0.959-11.003,1.512
			c2.088-8.826,4.323-16.92,6.306-22.587c0.135-0.386,0.048-0.814-0.228-1.117c-0.273-0.304-0.691-0.433-1.089-0.337
			c-4.911,1.19-10.53,2.838-15.046,4.406c-0.512,0.177-0.895,0.607-1.011,1.135c-1.287,5.813-2.79,13.556-3.569,20.962
			c-10.427,1.959-19.338,4.124-23.896,6.062c-1.15,1.889-2.199,4.232-2.24,6.25c0.807-0.236,1.849-0.49,3.094-0.755
			c-0.413,4.562-1.821,10.89-4.533,10.89c-7.166,0,0.729-31.729,5.854-31.729c1.396,0,2.328,2.209,2.898,4.316
			c0.049,0.177,0.186,0.315,0.36,0.367c0.176,0.053,0.365,0.01,0.502-0.111c2.794-2.486,6.244-6.418,8.592-10.945
			c0.464-0.893,0.384-1.971-0.206-2.785c-3.191-4.413-7.23-8.446-11.335-8.446c-10,0-22.333,18.667-22.333,37.667
			s9.666,24.168,14.166,24.168c7,0,18.102-7.994,19.161-25.568c2.923-0.405,6.08-0.807,9.395-1.191
			c-0.005,0.281-0.013,0.567-0.013,0.844c0,8.269,0.567,16.903,1.116,23.319c0.028,0.331,0.222,0.63,0.515,0.788
			c1.757,0.956,3.633,1.887,5.397,2.686c0.259,0.117,0.558,0.104,0.805-0.037s0.412-0.391,0.443-0.674
			c0.908-8.121,2.687-18.283,4.807-28.27c4.05-0.363,8.147-0.682,12.167-0.936c-0.052,1.129-0.084,2.24-0.084,3.313
			c0,8.634,0.594,16.703,1.166,23.351c0.029,0.347,0.231,0.655,0.537,0.821c1.833,0.999,3.792,1.97,5.636,2.806
			c0.271,0.121,0.583,0.107,0.842-0.039c0.258-0.146,0.43-0.407,0.463-0.702c0.979-8.747,2.93-19.591,5.241-30.136
			c1.05-0.02,2.086-0.033,3.093-0.037c1.17-2.426,3.133-5.66,2.69-11.058c-1.051,0.064-2.14,0.142-3.247,0.226
			c2.01-8.093,4.114-15.451,6-20.814C517.236,46.932,517.146,46.483,516.859,46.167z"/>
		<path id="I" fill="#321D2E" d="M409.636,50.291c-0.681,0.153-1.211,0.69-1.354,1.374c-2.61,12.407-4.449,38.806-5.433,53.808
			c-0.031,0.465,0.157,0.916,0.51,1.221c1.606,1.387,4.627,2.971,6.718,3.566c0.271,0.077,0.562,0.035,0.798-0.113
			c0.238-0.148,0.4-0.393,0.449-0.67c3.131-17.918,9.861-46.696,14.689-60.771c0.117-0.342,0.046-0.722-0.188-0.998
			c-0.234-0.277-0.597-0.411-0.953-0.352C420.339,48.106,414.611,49.172,409.636,50.291z"/>
		<path id="F" fill="#321D2E" d="M450.468,17.046c-2.5-2.5-5.797-3.25-11.375-3.25c-23.47,0-72.795,6.85-90.462,12.85
			c-2.283,2.238-5.666,7.166-3.65,8.693c5.287-1.059,15.553-2.627,26.859-4.023c-0.214,6.607-0.652,19.783-0.947,33.995
			c-1.324,0.354-2.588,0.693-3.748,1.01c-0.402,0.109-0.711,0.438-0.793,0.847c-0.451,2.207-0.771,4.771-0.846,6.991
			c-0.009,0.263,0.098,0.517,0.291,0.695c0.191,0.179,0.454,0.264,0.717,0.234c1.33-0.148,2.747-0.305,4.211-0.462
			c-0.174,11.584-0.201,23.06,0.109,31.54c0.014,0.389,0.208,0.75,0.525,0.977c1.522,1.086,3.555,1.547,5.373,2.516
			c0.266,0.141,0.582,0.143,0.849,0.006c0.269-0.139,0.448-0.396,0.489-0.693c1.279-9.643,3.316-22.729,5.723-35.658
			c3.786-0.347,7.411-0.639,10.455-0.815c0.408-0.022,0.771-0.28,0.929-0.659c1.027-2.475,1.955-5.279,1.955-7.357
			c0-1.465-0.396-2.896-0.937-4.169c-0.166-0.394-0.573-0.626-0.998-0.571c-2.285,0.297-5.512,0.948-9.086,1.763
			c2.992-14.39,6.312-27.093,9.363-32.604c5.529-0.423,10.635-0.682,14.784-0.682c9.612,0,20.954,0.417,24.147,1.835
			c0.13,0.058,0.222,0.177,0.243,0.316c0.021,0.141-0.027,0.282-0.134,0.377c-0.698,0.629-1.893,1.017-3.386,1.095
			c-0.12,0.006-0.225,0.084-0.265,0.197c-0.04,0.113-0.008,0.24,0.082,0.32c3.738,3.364,12.584,7.442,14.269,7.442
			c2.5,0,11.5-8.5,11.5-10.875C456.718,27.358,453.812,20.39,450.468,17.046z"/>
		<path id="K" fill="#321D2E" d="M349.443,41.569c-2.699,0-5.609,4.714-7.1,8.543c-0.062,0.158-0.011,0.338,0.124,0.44
			c0.136,0.102,0.321,0.104,0.457,0.003c1.459-1.083,2.961-2.029,3.478-2.029c0.205,0,0.664,0.076,1.197,0.198
			c0.101,0.023,0.183,0.096,0.217,0.191c0.035,0.097,0.021,0.204-0.041,0.287c-3.459,4.629-8.715,11.273-14.305,14.612
			c2.83-17.339,6.059-34.419,9.26-46.555c0.098-0.366-0.004-0.758-0.269-1.031c-0.264-0.272-0.649-0.39-1.021-0.306
			c-5.267,1.188-10.008,2.728-14.041,4.289c-0.354,0.138-0.615,0.444-0.695,0.815c-4.78,22.212-7.979,59.667-8.357,84.439
			c-0.002,0.183,0.071,0.356,0.203,0.481c1.264,1.191,4.188,2.777,6.596,3.591c0.412,0.14,0.865,0.086,1.234-0.146
			c0.369-0.232,0.614-0.617,0.668-1.05c0.876-6.983,1.952-14.979,3.172-23.386c3.686,6.854,9.334,16.943,14.283,24.054
			c0.383,0.55,1.12,0.718,1.702,0.39c3.19-1.799,7.172-5.143,9.493-8.491c0.31-0.445,0.253-1.048-0.135-1.429
			c-6.485-6.403-15.572-18.769-19.183-25.016c6.173-2.189,15.507-8.232,21.666-12.439c0.606-0.415,1.054-1.027,1.263-1.732
			c1.188-4.006,1.799-10.518,1.799-11.727C361.109,46.236,351.943,41.569,349.443,41.569z"/>
		<path id="S" fill="#321D2E" d="M285.807,65.141c0-2.623,2.957-4.098,6.602-4.098c5.307,0,11.911,6.801,12.6,9.465
			c0.019,0.074,0.052,0.297,0.084,0.59c0.029,0.271,0.214,0.5,0.472,0.586c0.256,0.086,0.537,0.012,0.721-0.188
			c2.895-3.166,6.744-8.161,6.744-10.943c0-5.082-11.504-12.13-21.551-12.13c-7.129,0-20.738,4.589-20.738,15.243
			c0,9.178,26.896,23.933,26.896,29.998c0,1.965-2.592,3.399-4.861,3.399c-4.658,0-10.086-1.721-10.086-3.522
			c0-0.44,1.402-0.856,2.947-1.033c0.139-0.014,0.25-0.118,0.277-0.258c0.025-0.138-0.039-0.274-0.16-0.345
			c-1.451-0.803-3.672-1.522-5.617-1.522c-5.346,0-9.236,8.197-9.236,10.656c0,0.729,0.072,1.646,0.174,2.578
			c0.057,0.524,0.34,0.997,0.773,1.293c3.715,2.532,9.869,5.146,19.471,5.146c3.563,0,18.795,1.146,18.795-13.113
			C310.111,81.532,285.807,72.188,285.807,65.141z"/>
		<path id="A" fill="#321D2E" d="M265.473,78.141c-2.1,0.08-4.367,0.239-6.72,0.453c-1.822-11.074-4.036-21.87-6.61-29.738
			c-0.176-0.535-0.733-0.848-1.282-0.715c-4.979,1.205-9.637,2.355-13.935,3.563c-3.187,7.041-7.179,19.996-10.642,32.917
			c-2.271,0.688-4.372,1.408-6.189,2.156c-0.311,0.127-0.57,0.354-0.738,0.646c-0.896,1.556-1.686,3.359-1.911,5.021
			c-0.024,0.176,0.041,0.351,0.174,0.467c0.133,0.117,0.314,0.16,0.485,0.113c1.682-0.449,3.843-0.893,6.33-1.311
			c-1.306,5.148-2.485,10.114-3.447,14.498c-0.099,0.449,0.109,0.911,0.513,1.133c1.245,0.684,3.944,1.725,5.868,2.293
			c0.646,0.189,1.327-0.173,1.53-0.814c1.806-5.723,4.036-12.129,6.378-18.549c4.522-0.475,9.351-0.847,14.037-1.059
			c1.889,6.119,3.661,12.328,5.022,17.858c0.051,0.206,0.208,0.37,0.411,0.432c2.32,0.694,4.658,1.442,6.857,2.173
			c0.313,0.104,0.656,0.041,0.912-0.166c0.256-0.209,0.388-0.531,0.35-0.859c-0.669-5.86-1.509-12.621-2.509-19.604
			c1.51,0.032,2.952,0.093,4.301,0.183C267.07,86.221,265.955,78.984,265.473,78.141z M238.503,81.589
			c1.515-4.007,3.019-7.897,4.431-11.497c1.104,3.053,2.287,6.471,3.479,10.066C243.756,80.584,241.098,81.061,238.503,81.589z"/>
		<path id="T" fill="#321D2E" d="M279.924,19.644c-2.5-2.5-5.797-3.25-11.375-3.25c-23.47,0-83.933,6.724-101.599,12.724
			c-2.285,2.239-5.667,7.167-3.65,8.693c5.983-0.813,21.45-2.66,37.465-4.254c-0.471,15.484-1.548,52.226-0.82,72.261
			c0.017,0.449,0.236,0.867,0.598,1.137c1.489,1.105,3.404,1.844,5.161,2.884c0.265,0.156,0.59,0.17,0.866,0.035
			c0.276-0.134,0.466-0.397,0.507-0.703c2.918-21.998,9.766-62.273,15.936-77.573c6.613-0.482,12.469-0.787,16.704-0.787
			c10.801,0,22.729,0.979,24.632,2.101c-0.629,0.812-1.647,1.416-3.236,1.536c-0.224,0.017-0.416,0.165-0.489,0.377
			s-0.015,0.446,0.15,0.599c3.428,3.156,12.22,6.971,13.901,6.971c2.5,0,11.5-8.5,11.5-10.875
			C286.174,29.956,283.268,22.987,279.924,19.644z"/>
	</g>
	<g id="lettering-text">
		<path id="T_3_" fill="#EDC950" d="M584.378,23.618c-17.667-6-79.252-12.434-102.722-12.434c-5.578,0-8.875,0.75-11.375,3.25
			c-3.345,3.344-6.25,10.313-6.25,11.875c0,2.375,9,10.875,11.5,10.875c1.782,0,9.793-4.83,14.243-7.602
			c0.099-0.062,0.15-0.174,0.137-0.289c-0.016-0.114-0.095-0.21-0.205-0.244c-1.142-0.354-2.298-0.751-3.368-1.16
			c-0.062-0.024-0.1-0.086-0.094-0.151s0.055-0.118,0.119-0.13c5.558-1.019,13.646-2.007,24.126-2.007
			c3.947,0,9.352,0.249,15.5,0.653c-1.758,14.855-5.063,55-5.725,75.904c-0.017,0.521,0.228,1.019,0.649,1.324
			c1.285,0.928,3.188,1.643,4.846,2.711c0.254,0.164,0.573,0.191,0.853,0.074c0.277-0.117,0.479-0.365,0.541-0.662
			c4.361-21.535,13.856-61.797,21.063-77.559c16.918,1.552,33.612,3.421,39.812,4.263C590.044,30.785,586.663,25.858,584.378,23.618
			z"/>
		<path id="GH_1_" fill="#EDC950" d="M514.024,42.624c-0.286-0.317-0.724-0.453-1.139-0.352c-5.128,1.243-10.994,2.962-15.709,4.6
			c-0.534,0.185-0.933,0.634-1.055,1.186c-1.128,5.088-2.411,11.595-3.277,18.124c-3.63,0.449-7.33,0.959-11.003,1.512
			c2.088-8.826,4.323-16.921,6.306-22.588c0.135-0.386,0.048-0.814-0.228-1.117c-0.274-0.304-0.692-0.433-1.089-0.337
			c-4.911,1.19-10.53,2.838-15.046,4.406c-0.512,0.177-0.895,0.607-1.011,1.135c-1.287,5.813-2.79,13.557-3.569,20.962
			c-10.427,1.96-19.338,4.125-23.896,6.063c-1.149,1.889-2.198,4.232-2.239,6.25c0.807-0.236,1.849-0.49,3.094-0.755
			c-0.413,4.562-1.821,10.89-4.533,10.89c-7.166,0,0.729-31.729,5.854-31.729c1.396,0,2.328,2.209,2.898,4.316
			c0.049,0.177,0.186,0.315,0.36,0.367c0.176,0.053,0.365,0.01,0.502-0.111c2.794-2.486,6.244-6.419,8.592-10.945
			c0.464-0.893,0.384-1.971-0.206-2.785c-3.191-4.413-7.23-8.446-11.335-8.446c-10,0-22.333,18.667-22.333,37.667
			c0,19,9.666,24.168,14.166,24.168c7,0,18.102-7.994,19.161-25.568c2.923-0.405,6.08-0.807,9.395-1.191
			c-0.005,0.281-0.013,0.567-0.013,0.844c0,8.269,0.567,16.903,1.116,23.319c0.028,0.331,0.222,0.629,0.515,0.788
			c1.757,0.956,3.633,1.887,5.397,2.686c0.259,0.117,0.558,0.104,0.805-0.037s0.412-0.391,0.443-0.674
			c0.908-8.121,2.687-18.283,4.807-28.27c4.049-0.363,8.147-0.682,12.167-0.936c-0.052,1.129-0.084,2.24-0.084,3.313
			c0,8.633,0.593,16.703,1.166,23.351c0.029,0.347,0.231,0.655,0.537,0.821c1.833,0.999,3.792,1.97,5.636,2.806
			c0.271,0.121,0.583,0.107,0.842-0.039c0.258-0.146,0.43-0.407,0.463-0.703c0.979-8.746,2.93-19.59,5.241-30.135
			c1.05-0.02,2.085-0.033,3.093-0.037c1.17-2.426,3.133-5.66,2.69-11.058c-1.051,0.064-2.14,0.142-3.247,0.226
			c2.01-8.094,4.114-15.451,6-20.814C514.401,43.388,514.311,42.94,514.024,42.624z"/>
		<path id="I_1_" fill="#EDC950" d="M406.802,46.748c-0.682,0.153-1.212,0.69-1.354,1.374c-2.611,12.407-4.449,38.808-5.434,53.81
			c-0.029,0.463,0.159,0.916,0.51,1.219c1.607,1.388,4.629,2.972,6.719,3.567c0.271,0.077,0.561,0.035,0.798-0.112
			c0.237-0.149,0.401-0.394,0.448-0.67c3.132-17.918,9.863-46.697,14.69-60.771c0.117-0.342,0.046-0.722-0.188-0.998
			c-0.234-0.277-0.597-0.411-0.953-0.352C417.504,44.563,411.775,45.628,406.802,46.748z"/>
		<path id="F_1_" fill="#EDC950" d="M447.633,13.502c-2.5-2.5-5.797-3.25-11.375-3.25c-23.47,0-72.795,6.85-90.462,12.85
			c-2.284,2.238-5.666,7.166-3.649,8.693c5.287-1.059,15.552-2.627,26.858-4.023c-0.214,6.607-0.653,19.783-0.948,33.995
			c-1.322,0.353-2.588,0.693-3.746,1.009c-0.403,0.11-0.711,0.438-0.795,0.847c-0.449,2.207-0.77,4.77-0.845,6.991
			c-0.009,0.263,0.099,0.517,0.291,0.694c0.192,0.18,0.454,0.265,0.716,0.235c1.331-0.147,2.748-0.305,4.213-0.462
			c-0.175,11.584-0.201,23.059,0.108,31.54c0.015,0.389,0.208,0.75,0.524,0.976c1.523,1.086,3.556,1.547,5.375,2.517
			c0.265,0.141,0.58,0.143,0.848,0.006c0.268-0.138,0.449-0.396,0.488-0.694c1.279-9.642,3.317-22.729,5.724-35.656
			c3.786-0.348,7.411-0.64,10.455-0.816c0.409-0.023,0.771-0.28,0.929-0.659c1.027-2.476,1.955-5.278,1.955-7.358
			c0-1.465-0.395-2.896-0.936-4.17c-0.168-0.394-0.574-0.626-0.998-0.571c-2.286,0.297-5.512,0.948-9.086,1.763
			c2.99-14.39,6.311-27.093,9.363-32.604c5.528-0.423,10.633-0.682,14.783-0.682c9.612,0,20.954,0.417,24.147,1.835
			c0.13,0.058,0.222,0.177,0.242,0.316c0.022,0.141-0.026,0.282-0.133,0.377c-0.698,0.629-1.893,1.017-3.386,1.095
			c-0.12,0.006-0.225,0.084-0.265,0.197c-0.04,0.113-0.008,0.24,0.082,0.32c3.738,3.364,12.584,7.442,14.269,7.442
			c2.5,0,11.5-8.5,11.5-10.875C453.883,23.815,450.977,16.846,447.633,13.502z"/>
		<path id="K_1_" fill="#EDC950" d="M346.609,38.026c-2.7,0-5.61,4.714-7.101,8.543c-0.062,0.158-0.011,0.338,0.124,0.44
			c0.135,0.102,0.321,0.104,0.457,0.003c1.459-1.083,2.961-2.029,3.477-2.029c0.207,0,0.666,0.076,1.199,0.198
			c0.1,0.023,0.182,0.096,0.217,0.191c0.035,0.097,0.02,0.204-0.043,0.287c-3.459,4.629-8.713,11.273-14.303,14.613
			c2.829-17.341,6.057-34.421,9.258-46.556c0.099-0.366-0.004-0.758-0.268-1.031c-0.264-0.272-0.65-0.39-1.021-0.306
			c-5.266,1.188-10.008,2.728-14.041,4.289c-0.354,0.138-0.614,0.444-0.694,0.815c-4.78,22.212-7.979,59.667-8.356,84.439
			c-0.004,0.182,0.07,0.355,0.202,0.48c1.265,1.193,4.188,2.779,6.595,3.592c0.412,0.14,0.866,0.086,1.235-0.146
			c0.369-0.231,0.614-0.617,0.668-1.049c0.876-6.982,1.952-14.979,3.171-23.386c3.686,6.853,9.334,16.944,14.284,24.054
			c0.383,0.549,1.12,0.719,1.702,0.391c3.191-1.801,7.172-5.144,9.492-8.492c0.311-0.445,0.254-1.047-0.133-1.428
			c-6.486-6.404-15.573-18.77-19.184-25.017c6.172-2.188,15.507-8.232,21.666-12.439c0.607-0.415,1.055-1.027,1.264-1.732
			c1.188-4.006,1.797-10.518,1.797-11.727C358.275,42.693,349.109,38.026,346.609,38.026z"/>
		<path id="S_1_" fill="#EDC950" d="M282.972,61.598c0-2.623,2.957-4.099,6.602-4.099c5.307,0,11.91,6.802,12.6,9.466
			c0.018,0.074,0.051,0.297,0.084,0.59c0.029,0.271,0.213,0.5,0.471,0.586c0.256,0.086,0.537,0.012,0.722-0.188
			c2.896-3.166,6.743-8.161,6.743-10.943c0-5.082-11.503-12.13-21.55-12.13c-7.129,0-20.738,4.589-20.738,15.243
			c0,9.178,26.896,23.933,26.896,29.998c0,1.965-2.592,3.399-4.861,3.399c-4.658,0-10.086-1.721-10.086-3.522
			c0-0.44,1.402-0.856,2.947-1.033c0.139-0.014,0.25-0.119,0.277-0.258c0.025-0.138-0.039-0.274-0.16-0.345
			c-1.451-0.803-3.672-1.522-5.617-1.522c-5.346,0-9.236,8.197-9.236,10.656c0,0.729,0.072,1.646,0.174,2.578
			c0.057,0.524,0.34,0.997,0.773,1.293c3.715,2.532,9.869,5.145,19.471,5.145c3.563,0,18.794,1.146,18.794-13.112
			C307.277,77.989,282.972,68.645,282.972,61.598z"/>
		<path id="A_1_" fill="#EDC950" d="M262.638,74.598c-2.1,0.08-4.367,0.239-6.72,0.453c-1.822-11.074-4.036-21.87-6.61-29.738
			c-0.176-0.535-0.733-0.848-1.282-0.715c-4.979,1.205-9.637,2.355-13.935,3.563c-3.187,7.041-7.179,19.996-10.642,32.918
			c-2.271,0.688-4.372,1.407-6.189,2.155c-0.311,0.129-0.57,0.355-0.738,0.646c-0.896,1.555-1.686,3.359-1.911,5.02
			c-0.024,0.177,0.041,0.352,0.174,0.468c0.133,0.116,0.314,0.159,0.485,0.114c1.682-0.45,3.843-0.894,6.33-1.312
			c-1.306,5.149-2.485,10.114-3.447,14.498c-0.099,0.449,0.109,0.911,0.513,1.133c1.245,0.685,3.944,1.726,5.868,2.292
			c0.646,0.19,1.327-0.172,1.53-0.814c1.806-5.721,4.036-12.127,6.378-18.549c4.522-0.474,9.351-0.846,14.037-1.058
			c1.889,6.119,3.661,12.328,5.022,17.858c0.051,0.205,0.208,0.371,0.411,0.432c2.32,0.694,4.658,1.441,6.857,2.173
			c0.313,0.104,0.656,0.041,0.912-0.167c0.256-0.208,0.388-0.531,0.35-0.859c-0.669-5.859-1.509-12.62-2.509-19.604
			c1.51,0.032,2.952,0.092,4.301,0.182C264.236,82.677,263.121,75.441,262.638,74.598z M235.668,78.046
			c1.515-4.007,3.019-7.897,4.431-11.497c1.104,3.053,2.287,6.471,3.479,10.066C240.921,77.042,238.263,77.518,235.668,78.046z"/>
		<path id="T_2_" fill="#EDC950" d="M277.089,16.1c-2.5-2.5-5.797-3.25-11.375-3.25c-23.47,0-83.933,6.724-101.599,12.724
			c-2.285,2.239-5.667,7.167-3.65,8.693c5.983-0.813,21.45-2.66,37.465-4.254c-0.471,15.484-1.548,52.227-0.82,72.262
			c0.017,0.449,0.236,0.867,0.598,1.137c1.489,1.105,3.404,1.844,5.161,2.884c0.265,0.156,0.59,0.17,0.866,0.035
			c0.276-0.134,0.466-0.397,0.507-0.703c2.918-21.998,9.766-62.273,15.936-77.573c6.613-0.482,12.469-0.787,16.704-0.787
			c10.801,0,22.729,0.979,24.632,2.101c-0.629,0.812-1.647,1.416-3.236,1.536c-0.224,0.017-0.416,0.165-0.489,0.377
			c-0.073,0.212-0.015,0.446,0.15,0.599c3.428,3.156,12.22,6.971,13.901,6.971c2.5,0,11.5-8.5,11.5-10.875
			C283.339,26.413,280.433,19.444,277.089,16.1z"/>
	</g>
</g>
<g id="tf-parts">
	<path id="f-upper-bar" fill="#EDC950" d="M447.633,13.401c-2.5-2.5-5.797-3.25-11.375-3.25c-23.47,0-72.795,6.85-90.462,12.85
		c-2.284,2.238-5.666,7.166-3.65,8.693c11.63-2.329,47.325-7.126,65.279-7.126c9.612,0,20.954,0.417,24.147,1.835
		c0.13,0.058,0.222,0.177,0.243,0.317c0.022,0.14-0.027,0.282-0.133,0.377c-0.699,0.628-1.893,1.016-3.386,1.094
		c-0.12,0.006-0.225,0.084-0.265,0.197s-0.008,0.24,0.082,0.32c3.739,3.365,12.584,7.442,14.269,7.442c2.5,0,11.5-8.5,11.5-10.875
		C453.883,23.714,450.977,16.745,447.633,13.401z"/>
	<path id="f-stem" fill="#EDC950" d="M369.13,23.333c0,2.619-2.052,54.053-1.131,79.188c0.014,0.389,0.208,0.75,0.525,0.976
		c1.523,1.086,3.555,1.547,5.374,2.516c0.265,0.141,0.581,0.143,0.848,0.006c0.268-0.138,0.449-0.396,0.489-0.694
		c3.647-27.493,13.46-82.991,20.395-82.991C398.796,22.333,369.13,19.833,369.13,23.333z"/>
	<path id="f-middle-bar" fill="#EDC950" d="M393.361,56.663c-0.167-0.393-0.574-0.625-0.998-0.571
		c-6.305,0.819-19.718,4.315-28.054,6.583c-0.403,0.109-0.711,0.437-0.794,0.846c-0.45,2.207-0.77,4.77-0.845,6.991
		c-0.009,0.263,0.098,0.517,0.291,0.695c0.192,0.179,0.454,0.264,0.716,0.235c8.387-0.937,19.955-2.14,27.735-2.593
		c0.409-0.023,0.771-0.28,0.929-0.659c1.027-2.475,1.955-5.279,1.955-7.358C394.297,59.369,393.902,57.938,393.361,56.663z"/>
	<path id="t-bar" fill="#EDC950" d="M277.089,15.999c-2.5-2.5-5.797-3.25-11.375-3.25c-23.47,0-83.933,6.724-101.599,12.724
		c-2.285,2.239-5.667,7.167-3.65,8.693c11.555-1.569,58.462-7,76.416-7c10.801,0,22.729,0.979,24.632,2.101
		c-0.629,0.811-1.647,1.416-3.236,1.536c-0.224,0.017-0.416,0.165-0.489,0.377c-0.073,0.211-0.014,0.447,0.151,0.599
		c3.427,3.156,12.22,6.971,13.901,6.971c2.5,0,11.5-8.5,11.5-10.875C283.339,26.312,280.433,19.343,277.089,15.999z"/>
	<path id="t-stem" fill="#EDC950" d="M198.13,22.833c0,2.615-1.936,54.167-1.021,79.341c0.016,0.449,0.236,0.868,0.597,1.137
		c1.49,1.105,3.404,1.844,5.162,2.884c0.265,0.156,0.59,0.17,0.866,0.035c0.276-0.134,0.466-0.398,0.506-0.703
		c3.652-27.531,13.46-83.693,20.39-83.693C227.797,21.833,198.13,19.333,198.13,22.833z"/>
</g>
</svg>
