<?xml version="1.0" encoding="utf-8"?>
<!-- Generator: Adobe Illustrator 16.0.3, SVG Export Plug-In . SVG Version: 6.00 Build 0)  -->
<!DOCTYPE svg PUBLIC "-//W3C//DTD SVG 1.1//EN" "http://www.w3.org/Graphics/SVG/1.1/DTD/svg11.dtd">
 <svg xmlns="http://www.w3.org/2000/svg" height="125" width="145" viewBox="0 0 145 125"><path fill="#321D2E" d="M127.458 19.644c-2.5-2.5-5.797-3.25-11.375-3.25-23.47 0-82.795 6.85-100.462 12.85-2.283 2.238-5.665 7.166-3.65 8.693 4.294-.86 13.23-2.056 23.698-3.222-.373 12.38-1.724 54.05-.93 75.885.016.448.235.867.597 1.137 1.49 1.104 3.404 1.844 5.16 2.884.266.156.59.17.867.035.276-.133.466-.397.507-.702C45.1 89.578 53.16 42.77 59.774 32.355c3.125-.264 6.188-.503 9.127-.71-.167 5.396-.687 20.167-1.02 36.264-1.324.352-2.59.692-3.748 1.008-.403.11-.71.438-.794.847-.45 2.207-.77 4.77-.845 6.99-.01.264.098.518.29.696.193.18.455.266.717.236 1.33-.148 2.748-.306 4.21-.463-.172 11.584-.2 23.06.11 31.54.015.39.21.75.526.977 1.523 1.086 3.555 1.547 5.374 2.516.265.142.58.144.85.006.265-.138.447-.396.487-.694 1.278-9.643 3.316-22.73 5.722-35.656 3.786-.348 7.41-.64 10.455-.816.41-.023.77-.28.928-.658 1.028-2.476 1.956-5.28 1.956-7.358 0-1.466-.394-2.896-.935-4.17-.167-.393-.574-.625-.998-.57-2.286.297-5.512.948-9.085 1.763 3.11-14.972 6.58-28.117 9.73-33.238 8.034.146 15.975.637 18.563 1.786.13.06.222.178.243.317.022.14-.027.282-.133.377-.7.63-1.893 1.017-3.386 1.095-.12.005-.226.083-.266.196-.04.113-.008.24.082.32 3.74 3.364 12.584 7.442 14.27 7.442 2.5 0 11.5-8.5 11.5-10.875.002-1.567-2.904-8.536-6.248-11.88z"/><path fill="#EDC950" d="M124.624 16.1c-2.5-2.5-5.797-3.25-11.375-3.25-23.47 0-82.796 6.85-100.463 12.85-2.284 2.238-5.666 7.166-3.65 8.693 4.293-.86 13.23-2.056 23.697-3.222-.373 12.38-1.724 54.053-.93 75.887.016.448.235.867.597 1.137 1.49 1.104 3.405 1.844 5.162 2.884.265.155.59.17.866.034.276-.133.466-.397.507-.702 3.233-24.375 11.29-71.185 17.906-81.6 3.126-.263 6.19-.502 9.128-.71-.167 5.397-.687 20.168-1.02 36.266-1.324.353-2.59.693-3.748 1.01-.403.11-.71.437-.794.846-.45 2.207-.77 4.77-.845 6.99-.008.264.1.518.292.696.192.18.454.265.716.235 1.33-.148 2.748-.306 4.21-.463-.172 11.584-.2 23.06.11 31.54.015.39.21.75.526.976 1.523 1.087 3.555 1.548 5.374 2.517.265.142.58.144.85.006.265-.14.447-.397.487-.695 1.28-9.643 3.317-22.73 5.723-35.656 3.786-.35 7.41-.642 10.455-.817.41-.023.77-.28.928-.658 1.03-2.476 1.957-5.28 1.957-7.358 0-1.465-.395-2.896-.936-4.17-.166-.394-.573-.626-.997-.57-2.286.296-5.512.947-9.085 1.763C83.38 45.585 86.848 32.44 90 27.32c8.034.145 15.975.636 18.563 1.785.13.058.222.177.243.316.022.142-.027.283-.133.378-.7.63-1.893 1.017-3.386 1.095-.12.006-.225.084-.265.197-.04.113-.008.24.082.32 3.74 3.364 12.584 7.442 14.27 7.442 2.5 0 11.5-8.5 11.5-10.875 0-1.564-2.907-8.533-6.25-11.877z"/><g fill="#321D2E"><path d="M587.213 27.16c-17.667-6-79.252-12.433-102.722-12.433-5.577 0-8.874.75-11.374 3.25-3.344 3.344-6.25 10.313-6.25 11.875 0 2.375 9 10.875 11.5 10.875 1.783 0 9.793-4.83 14.243-7.602.098-.062.15-.174.136-.29-.015-.113-.095-.21-.205-.243-1.14-.354-2.297-.75-3.367-1.16-.062-.024-.1-.086-.094-.15.005-.066.054-.12.118-.13 5.558-1.02 13.646-2.008 24.126-2.008 3.948 0 9.352.25 15.5.653-1.758 14.855-5.063 55-5.725 75.904-.018.522.227 1.02.648 1.325 1.285.928 3.188 1.643 4.846 2.71.254.165.573.192.853.075.277-.117.48-.365.54-.662 4.362-21.535 13.857-61.796 21.064-77.558 16.92 1.552 33.613 3.42 39.813 4.263 2.016-1.525-1.365-6.452-3.65-8.692z"/><path d="M516.86 46.167c-.287-.317-.725-.453-1.14-.352-5.128 1.243-10.993 2.962-15.71 4.6-.533.185-.932.634-1.054 1.186-1.128 5.09-2.41 11.595-3.277 18.125-3.63.45-7.33.96-11.004 1.512 2.088-8.826 4.323-16.92 6.306-22.587.135-.386.048-.814-.228-1.117-.273-.304-.69-.433-1.09-.337-4.91 1.19-10.53 2.838-15.045 4.406-.513.177-.896.607-1.012 1.135-1.287 5.813-2.79 13.556-3.57 20.962-10.426 1.958-19.337 4.123-23.895 6.06-1.15 1.89-2.2 4.233-2.24 6.25.807-.235 1.85-.49 3.094-.754-.413 4.562-1.82 10.89-4.533 10.89-7.166 0 .73-31.73 5.854-31.73 1.396 0 2.328 2.21 2.898 4.317.05.177.186.315.36.367.176.053.365.01.502-.11 2.794-2.487 6.244-6.42 8.592-10.946.464-.893.384-1.97-.206-2.785-3.19-4.414-7.23-8.447-11.335-8.447-10 0-22.334 18.667-22.334 37.667s9.666 24.168 14.166 24.168c7 0 18.102-7.994 19.16-25.568 2.924-.405 6.08-.807 9.396-1.19-.005.28-.013.566-.013.843 0 8.27.567 16.903 1.116 23.32.03.33.223.63.516.787 1.757.956 3.633 1.887 5.397 2.686.26.117.558.104.805-.037s.412-.392.443-.675c.91-8.12 2.688-18.283 4.808-28.27 4.05-.363 8.147-.682 12.167-.936-.052 1.128-.084 2.24-.084 3.312 0 8.634.595 16.703 1.167 23.35.03.348.23.656.537.822 1.833 1 3.792 1.97 5.636 2.806.27.12.583.107.842-.04.258-.145.43-.406.463-.7.98-8.748 2.93-19.592 5.24-30.137 1.05-.02 2.087-.033 3.094-.037 1.17-2.426 3.132-5.66 2.69-11.058-1.052.064-2.14.142-3.248.226 2.01-8.093 4.114-15.45 6-20.814.144-.408.054-.857-.233-1.173zM409.636 50.29c-.68.154-1.21.69-1.354 1.375-2.61 12.407-4.45 38.806-5.433 53.808-.032.465.156.916.51 1.22 1.605 1.388 4.626 2.972 6.717 3.567.27.077.562.035.798-.113.238-.148.4-.393.45-.67 3.13-17.918 9.86-46.696 14.688-60.77.117-.343.046-.723-.188-1-.234-.276-.597-.41-.953-.35-4.533.75-10.26 1.815-15.236 2.934z"/><path d="M450.468 17.046c-2.5-2.5-5.797-3.25-11.375-3.25-23.47 0-72.795 6.85-90.462 12.85-2.282 2.238-5.665 7.166-3.65 8.693 5.288-1.06 15.554-2.628 26.86-4.024-.214 6.607-.652 19.783-.947 33.995-1.324.355-2.588.694-3.748 1.01-.402.11-.71.44-.793.848-.45 2.207-.77 4.77-.846 6.99-.01.264.098.518.29.696.192.18.455.264.718.234 1.33-.148 2.747-.305 4.21-.462-.173 11.584-.2 23.06.11 31.54.014.39.208.75.525.977 1.52 1.086 3.554 1.547 5.372 2.516.266.14.582.142.85.005.268-.14.447-.396.488-.693 1.28-9.643 3.316-22.73 5.723-35.658 3.786-.347 7.41-.64 10.455-.815.408-.023.77-.28.93-.66 1.026-2.475 1.954-5.28 1.954-7.357 0-1.465-.396-2.896-.937-4.17-.166-.393-.573-.625-.998-.57-2.285.297-5.512.948-9.086 1.763 2.993-14.39 6.313-27.093 9.364-32.604 5.53-.423 10.635-.682 14.784-.682 9.612 0 20.954.417 24.147 1.835.13.058.222.177.243.316.02.142-.027.283-.134.378-.698.63-1.893 1.017-3.386 1.095-.12.006-.225.084-.265.197-.04.113-.008.24.082.32 3.738 3.364 12.584 7.442 14.27 7.442 2.5 0 11.5-8.5 11.5-10.875.003-1.57-2.903-8.537-6.247-11.88z"/><path d="M349.443 41.57c-2.7 0-5.61 4.713-7.1 8.542-.062.158-.01.338.124.44.136.102.32.104.457.003 1.46-1.083 2.96-2.03 3.478-2.03.205 0 .664.077 1.197.2.1.022.182.095.216.19.035.097.02.204-.04.287-3.46 4.63-8.716 11.273-14.306 14.612 2.83-17.34 6.06-34.42 9.26-46.555.098-.367-.004-.76-.27-1.032-.263-.272-.648-.39-1.02-.306-5.267 1.188-10.008 2.728-14.04 4.29-.355.137-.616.443-.696.814-4.78 22.212-7.98 59.667-8.357 84.44-.002.182.07.355.203.48 1.264 1.19 4.188 2.777 6.596 3.59.412.14.865.087 1.234-.145.37-.23.614-.616.668-1.05.876-6.982 1.952-14.978 3.172-23.385 3.686 6.854 9.334 16.943 14.283 24.054.383.55 1.12.717 1.702.39 3.19-1.8 7.172-5.144 9.493-8.492.31-.445.253-1.048-.135-1.43-6.485-6.402-15.572-18.768-19.183-25.015 6.173-2.19 15.507-8.232 21.666-12.44.606-.414 1.054-1.026 1.263-1.73 1.187-4.007 1.798-10.52 1.798-11.728 0-2.33-9.165-6.996-11.665-6.996zM285.807 65.14c0-2.622 2.957-4.097 6.602-4.097 5.306 0 11.91 6.8 12.6 9.465.018.074.05.297.083.59.03.27.214.5.472.586.256.086.537.012.72-.188 2.896-3.166 6.745-8.16 6.745-10.943 0-5.082-11.504-12.13-21.55-12.13-7.13 0-20.74 4.59-20.74 15.243 0 9.178 26.897 23.933 26.897 29.998 0 1.965-2.592 3.4-4.86 3.4-4.66 0-10.087-1.722-10.087-3.523 0-.44 1.402-.855 2.947-1.032.14-.014.25-.118.277-.258.025-.138-.04-.274-.16-.345-1.45-.803-3.672-1.522-5.617-1.522-5.346 0-9.236 8.197-9.236 10.656 0 .728.073 1.645.175 2.577.057.524.34.997.773 1.293 3.715 2.532 9.87 5.146 19.47 5.146 3.564 0 18.796 1.146 18.796-13.113-.003-15.41-24.307-24.755-24.307-31.802zM265.473 78.14c-2.1.08-4.367.24-6.72.454-1.822-11.074-4.036-21.87-6.61-29.738-.176-.535-.733-.848-1.282-.715-4.978 1.206-9.636 2.356-13.934 3.564-3.187 7.04-7.18 19.996-10.642 32.917-2.27.69-4.372 1.41-6.19 2.157-.31.127-.57.354-.737.646-.896 1.556-1.686 3.36-1.91 5.02-.025.177.04.352.173.468.133.118.314.16.485.114 1.682-.45 3.843-.893 6.33-1.31-1.306 5.147-2.485 10.113-3.447 14.497-.1.45.11.912.513 1.134 1.246.684 3.945 1.725 5.87 2.293.645.19 1.326-.173 1.53-.814 1.805-5.723 4.035-12.13 6.377-18.55 4.522-.474 9.35-.846 14.037-1.058 1.89 6.12 3.66 12.328 5.022 17.858.05.206.208.37.41.432 2.32.694 4.66 1.442 6.858 2.173.313.104.656.04.912-.166.256-.21.388-.53.35-.86-.67-5.86-1.51-12.62-2.51-19.603 1.51.03 2.953.092 4.302.182 2.412-3.01 1.297-10.248.815-11.09zm-26.97 3.45c1.515-4.008 3.02-7.898 4.43-11.498 1.105 3.053 2.288 6.47 3.48 10.066-2.657.426-5.315.903-7.91 1.43z"/><path d="M279.924 19.644c-2.5-2.5-5.797-3.25-11.375-3.25-23.47 0-83.934 6.724-101.6 12.724-2.285 2.24-5.667 7.167-3.65 8.693 5.983-.812 21.45-2.66 37.465-4.253-.47 15.484-1.548 52.226-.82 72.26.017.45.236.868.598 1.138 1.49 1.105 3.404 1.844 5.16 2.884.266.155.59.17.867.034.276-.134.466-.397.507-.703 2.918-21.997 9.766-62.272 15.936-77.572 6.613-.482 12.47-.787 16.704-.787 10.8 0 22.73.98 24.632 2.102-.63.812-1.648 1.416-3.237 1.536-.224.017-.416.165-.49.377s-.014.446.15.6c3.43 3.155 12.22 6.97 13.902 6.97 2.5 0 11.5-8.5 11.5-10.875 0-1.564-2.907-8.533-6.25-11.876z"/></g><g fill="#EDC950"><path d="M584.378 23.618c-17.667-6-79.252-12.434-102.722-12.434-5.578 0-8.875.75-11.375 3.25-3.344 3.344-6.25 10.313-6.25 11.875 0 2.374 9 10.874 11.5 10.874 1.783 0 9.794-4.83 14.244-7.602.1-.062.15-.174.137-.29-.015-.113-.094-.21-.204-.243-1.142-.355-2.298-.752-3.368-1.16-.062-.025-.1-.087-.094-.152s.055-.118.12-.13c5.557-1.02 13.645-2.007 24.125-2.007 3.946 0 9.35.25 15.5.654-1.76 14.855-5.064 55-5.726 75.904-.017.52.228 1.02.65 1.324 1.284.928 3.187 1.643 4.845 2.71.253.165.572.192.852.075.277-.117.48-.365.54-.662 4.362-21.535 13.857-61.797 21.064-77.56 16.918 1.553 33.612 3.422 39.812 4.264 2.016-1.525-1.365-6.452-3.65-8.692z"/><path d="M514.024 42.624c-.286-.317-.724-.453-1.14-.352-5.127 1.243-10.993 2.962-15.708 4.6-.534.185-.933.634-1.055 1.186-1.127 5.088-2.41 11.595-3.276 18.124-3.63.45-7.33.96-11.003 1.512 2.09-8.826 4.324-16.92 6.307-22.588.135-.386.048-.814-.228-1.117-.275-.305-.693-.434-1.09-.338-4.91 1.19-10.53 2.838-15.046 4.406-.512.177-.895.607-1.01 1.135-1.288 5.813-2.79 13.557-3.57 20.962-10.427 1.96-19.338 4.125-23.896 6.063-1.15 1.89-2.198 4.232-2.24 6.25.808-.236 1.85-.49 3.095-.755-.413 4.562-1.82 10.89-4.533 10.89-7.166 0 .73-31.73 5.854-31.73 1.396 0 2.328 2.21 2.898 4.317.05.177.186.315.36.367.176.053.365.01.502-.11 2.794-2.487 6.244-6.42 8.592-10.946.464-.892.384-1.97-.206-2.784-3.19-4.413-7.23-8.446-11.335-8.446-10 0-22.333 18.667-22.333 37.667s9.666 24.168 14.166 24.168c7 0 18.102-7.994 19.16-25.568 2.924-.405 6.08-.807 9.396-1.19-.005.28-.013.566-.013.843 0 8.27.568 16.903 1.117 23.32.028.33.222.628.515.787 1.757.956 3.633 1.887 5.397 2.686.258.117.557.104.804-.037s.412-.39.443-.674c.908-8.12 2.687-18.283 4.807-28.27 4.05-.363 8.147-.682 12.167-.936-.05 1.13-.083 2.24-.083 3.313 0 8.632.593 16.702 1.166 23.35.03.347.23.655.537.82 1.833 1 3.792 1.97 5.636 2.807.27.12.583.107.842-.04.258-.145.43-.406.463-.702.98-8.746 2.93-19.59 5.242-30.135 1.05-.02 2.085-.033 3.093-.037 1.17-2.426 3.133-5.66 2.69-11.058-1.05.064-2.14.142-3.247.226 2.01-8.093 4.114-15.45 6-20.813.143-.41.053-.857-.234-1.173zM406.802 46.748c-.682.153-1.212.69-1.354 1.374-2.61 12.407-4.45 38.808-5.434 53.81-.03.463.16.916.51 1.22 1.607 1.387 4.63 2.97 6.72 3.566.27.077.56.035.797-.112.238-.15.402-.394.45-.67 3.13-17.918 9.862-46.697 14.69-60.77.116-.343.045-.723-.19-1-.233-.276-.596-.41-.952-.35-4.534.747-10.263 1.812-15.236 2.932z"/><path d="M447.633 13.502c-2.5-2.5-5.797-3.25-11.375-3.25-23.47 0-72.795 6.85-90.462 12.85-2.284 2.238-5.666 7.166-3.65 8.693 5.288-1.06 15.553-2.627 26.86-4.023-.215 6.607-.654 19.783-.95 33.995-1.32.353-2.587.693-3.745 1.01-.402.11-.71.437-.794.846-.45 2.207-.77 4.77-.845 6.99-.008.264.1.518.292.695.192.18.454.265.716.235 1.33-.147 2.748-.305 4.213-.462-.174 11.585-.2 23.06.11 31.54.014.39.207.75.523.977 1.523 1.086 3.556 1.547 5.375 2.517.265.14.58.143.848.006.268-.138.45-.396.488-.694 1.28-9.642 3.317-22.73 5.724-35.656 3.786-.348 7.41-.64 10.455-.816.41-.023.77-.28.93-.66 1.026-2.475 1.954-5.277 1.954-7.357 0-1.465-.395-2.896-.936-4.17-.167-.394-.573-.626-.997-.57-2.286.296-5.512.947-9.086 1.762 2.99-14.39 6.31-27.094 9.363-32.605 5.528-.423 10.633-.682 14.783-.682 9.612 0 20.954.417 24.147 1.835.13.058.222.177.242.316.022.14-.026.282-.133.377-.7.63-1.894 1.018-3.387 1.096-.12.006-.225.084-.265.197-.04.113-.008.24.082.32 3.738 3.364 12.584 7.442 14.27 7.442 2.5 0 11.5-8.5 11.5-10.875.003-1.565-2.903-8.534-6.247-11.878z"/><path d="M346.61 38.026c-2.7 0-5.61 4.714-7.102 8.543-.062.157-.01.337.124.44.135.1.32.103.457.002 1.458-1.083 2.96-2.03 3.476-2.03.207 0 .666.077 1.2.2.1.022.18.095.216.19.035.097.02.204-.043.287-3.46 4.628-8.714 11.272-14.304 14.612 2.83-17.34 6.057-34.42 9.258-46.556.1-.366-.004-.758-.268-1.03-.264-.273-.65-.39-1.02-.307-5.267 1.187-10.01 2.727-14.042 4.288-.354.138-.614.444-.694.815-4.78 22.212-7.98 59.667-8.356 84.44-.004.18.07.354.202.48 1.265 1.192 4.188 2.778 6.595 3.59.413.14.867.087 1.236-.145.37-.23.614-.617.668-1.05.876-6.98 1.952-14.978 3.17-23.385 3.687 6.853 9.335 16.944 14.285 24.054.382.55 1.12.72 1.7.39 3.192-1.8 7.173-5.143 9.493-8.49.31-.446.254-1.048-.133-1.43-6.486-6.403-15.573-18.77-19.184-25.016 6.172-2.187 15.507-8.23 21.666-12.438.607-.415 1.055-1.027 1.264-1.732 1.188-4.006 1.797-10.518 1.797-11.727.002-2.33-9.164-6.997-11.664-6.997zM282.972 61.598c0-2.623 2.957-4.1 6.602-4.1 5.307 0 11.91 6.803 12.6 9.467.018.074.05.297.084.59.03.27.213.5.47.586.257.087.538.013.723-.187 2.897-3.166 6.744-8.16 6.744-10.943 0-5.082-11.503-12.13-21.55-12.13-7.13 0-20.738 4.59-20.738 15.243 0 9.178 26.896 23.933 26.896 29.998 0 1.966-2.592 3.4-4.86 3.4-4.66 0-10.087-1.72-10.087-3.522 0-.44 1.402-.856 2.947-1.033.14-.014.25-.12.277-.258.024-.138-.04-.274-.16-.345-1.452-.803-3.673-1.522-5.618-1.522-5.346 0-9.236 8.197-9.236 10.656 0 .73.072 1.646.174 2.578.057.524.34.997.773 1.293 3.715 2.532 9.87 5.145 19.47 5.145 3.564 0 18.795 1.146 18.795-13.112 0-15.41-24.306-24.755-24.306-31.802zM262.638 74.598c-2.1.08-4.367.24-6.72.453-1.822-11.073-4.036-21.87-6.61-29.737-.176-.535-.733-.848-1.282-.715-4.98 1.205-9.637 2.355-13.935 3.563-3.186 7.042-7.178 19.997-10.64 32.92-2.272.687-4.373 1.406-6.19 2.154-.31.13-.57.355-.738.646-.896 1.555-1.686 3.36-1.91 5.02-.025.177.04.352.173.468.133.116.314.16.485.114 1.682-.45 3.843-.894 6.33-1.312-1.306 5.15-2.485 10.114-3.447 14.498-.1.45.11.91.513 1.133 1.245.686 3.944 1.727 5.868 2.293.646.19 1.327-.172 1.53-.814 1.806-5.722 4.036-12.128 6.378-18.55 4.522-.474 9.35-.846 14.037-1.058 1.888 6.12 3.66 12.328 5.02 17.858.052.205.21.37.412.432 2.32.694 4.658 1.44 6.857 2.173.312.104.655.04.91-.167.257-.208.39-.53.35-.86-.668-5.858-1.508-12.62-2.508-19.603 1.51.032 2.952.092 4.3.182 2.414-3.01 1.3-10.246.816-11.09zm-26.97 3.448c1.515-4.007 3.02-7.897 4.43-11.497 1.105 3.052 2.288 6.47 3.48 10.065-2.657.427-5.315.903-7.91 1.43z"/><path d="M277.09 16.1c-2.5-2.5-5.798-3.25-11.376-3.25-23.47 0-83.933 6.724-101.6 12.724-2.284 2.24-5.666 7.167-3.65 8.693 5.984-.813 21.45-2.66 37.466-4.254-.47 15.484-1.548 52.227-.82 72.262.017.45.236.867.598 1.137 1.49 1.105 3.404 1.844 5.16 2.884.266.156.59.17.867.035.276-.133.466-.396.507-.702 2.918-21.998 9.766-62.273 15.936-77.573 6.613-.482 12.47-.787 16.704-.787 10.8 0 22.73.98 24.632 2.1-.63.813-1.647 1.417-3.236 1.537-.224.017-.416.165-.49.377-.072.212-.014.446.15.6 3.43 3.155 12.22 6.97 13.902 6.97 2.5 0 11.5-8.5 11.5-10.875 0-1.564-2.907-8.533-6.25-11.877z"/></g><g fill="#EDC950"><path d="M447.633 13.4c-2.5-2.5-5.797-3.25-11.375-3.25-23.47 0-72.795 6.85-90.462 12.85-2.284 2.24-5.666 7.167-3.65 8.694 11.63-2.33 47.325-7.126 65.28-7.126 9.61 0 20.953.417 24.146 1.835.13.058.222.177.243.317.022.14-.027.282-.133.377-.7.628-1.893 1.016-3.386 1.094-.12.007-.225.085-.265.198s-.007.24.083.32c3.74 3.365 12.584 7.442 14.27 7.442 2.5 0 11.5-8.5 11.5-10.875 0-1.56-2.906-8.53-6.25-11.874z"/><path d="M369.13 23.333c0 2.62-2.052 54.053-1.13 79.188.013.39.207.75.524.977 1.523 1.086 3.555 1.547 5.374 2.516.265.14.58.143.848.006.268-.14.45-.397.49-.695 3.646-27.493 13.46-82.99 20.394-82.99 3.166-.002-26.5-2.502-26.5.998z"/><path d="M393.36 56.663c-.166-.393-.573-.625-.997-.57-6.305.818-19.718 4.314-28.054 6.582-.404.11-.712.437-.795.846-.45 2.208-.77 4.77-.845 6.992-.01.263.098.517.29.695.193.18.455.264.717.235 8.387-.937 19.955-2.14 27.735-2.593.41-.024.77-.28.93-.66 1.026-2.475 1.954-5.28 1.954-7.358 0-1.463-.394-2.894-.935-4.17zM277.09 16c-2.5-2.5-5.798-3.25-11.376-3.25-23.47 0-83.933 6.723-101.6 12.723-2.284 2.24-5.666 7.167-3.65 8.693 11.556-1.57 58.463-7 76.417-7 10.802 0 22.73.98 24.633 2.1-.63.812-1.647 1.417-3.236 1.537-.224.017-.416.165-.49.377-.072.21-.013.447.152.6 3.426 3.155 12.22 6.97 13.9 6.97 2.5 0 11.5-8.5 11.5-10.875 0-1.563-2.907-8.532-6.25-11.876z"/><path d="M198.13 22.833c0 2.615-1.936 54.167-1.02 79.34.015.45.235.87.596 1.138 1.49 1.106 3.404 1.845 5.162 2.885.265.156.59.17.866.035.276-.134.466-.398.506-.703 3.652-27.53 13.46-83.693 20.39-83.693 3.167 0-26.5-2.5-26.5 1z"/></g></svg>

