<svg xmlns="http://www.w3.org/2000/svg" width="664" height="12" viewBox="0 0 664 12"><g fill="#AB2732"><circle cx="663.89" cy="6" r=".11"/><circle cx="650.2" cy="6" r=".23"/><path d="M636.5 6.34c-.17 0-.33-.15-.33-.34 0-.2.16-.34.34-.34.2 0 .36.15.36.34 0 .2-.15.34-.35.34z"/><circle cx="622.83" cy="6" r=".46"/><path d="M609.14 6.6c-.33 0-.6-.27-.6-.6s.27-.6.6-.6c.34 0 .6.26.6.6s-.26.6-.6.6z"/><circle cx="595.46" cy="6" r=".68"/><circle cx="581.77" cy="6" r=".83"/><circle cx="568.09" cy="6" r=".95"/><path d="M554.4 7.1c-.6 0-1.1-.5-1.1-1.1 0-.6.5-1.1 1.1-1.1.6 0 1.1.5 1.1 1.1 0 .6-.5 1.1-1.1 1.1z"/><circle cx="540.72" cy="6" r="1.22"/><circle cx="527.03" cy="6" r="1.33"/><circle cx="513.35" cy="6" r="1.48"/><circle cx="499.66" cy="6" r="1.56"/><circle cx="485.98" cy="6" r="1.71"/><circle cx="472.29" cy="6" r="1.82"/><circle cx="458.61" cy="6" r="1.94"/><path d="M444.92 8.05c-1.13 0-2.05-.92-2.05-2.05s.92-2.05 2.05-2.05 2.05.92 2.05 2.05-.92 2.05-2.05 2.05z"/><circle cx="431.24" cy="6" r="2.2"/><circle cx="417.55" cy="6" r="2.31"/><circle cx="403.87" cy="6" r="2.43"/><circle cx="390.18" cy="6" r="2.54"/><circle cx="376.5" cy="6" r="2.69"/><circle cx="362.81" cy="6" r="2.77"/><circle cx="349.13" cy="6" r="2.92"/><circle cx="335.44" cy="6" r="3.04"/><circle cx="321.75" cy="6" r="3.15"/><circle cx="308.07" cy="6" r="3.26"/><circle cx="294.38" cy="6" r="3.42"/><circle cx="280.7" cy="6" r="3.53"/><circle cx="267.01" cy="6" r="3.65"/><circle cx="253.33" cy="6" r="3.76"/><circle cx="239.64" cy="6" r="3.91"/><circle cx="225.96" cy="6" r="3.99"/><circle cx="212.27" cy="6" r="4.14"/><circle cx="198.59" cy="6" r="4.25"/><circle cx="184.9" cy="6" r="4.37"/><circle cx="171.22" cy="6" r="4.48"/><circle cx="157.53" cy="6" r="4.63"/><circle cx="143.85" cy="6" r="4.75"/><circle cx="130.16" cy="6" r="4.86"/><circle cx="116.48" cy="6" r="5.01"/><circle cx="102.79" cy="6" r="5.12"/><circle cx="89.1" cy="6" r="5.24"/><circle cx="75.42" cy="6" r="5.35"/><path d="M61.74 11.5c-3.04 0-5.5-2.46-5.5-5.5S58.7.5 61.73.5c3.03 0 5.5 2.46 5.5 5.5s-2.46 5.5-5.5 5.5z"/><circle cx="48.05" cy="6" r="5.62"/><circle cx="34.36" cy="6" r="5.73"/><circle cx="20.68" cy="6" r="5.85"/><circle cx="7" cy="6" r="6"/></g></svg>