<svg xmlns="http://www.w3.org/2000/svg" width="12" height="664" viewBox="0 0 12 664"><g fill="#AB2732"><circle cx="6" cy="663.89" r=".11"/><circle cx="6" cy="650.2" r=".23"/><path d="M5.66 636.5c0-.17.15-.33.34-.33.2 0 .34.16.34.34 0 .2-.15.36-.34.36-.2 0-.34-.15-.34-.35z"/><circle cx="6" cy="622.83" r=".46"/><path d="M5.4 609.14c0-.33.27-.6.6-.6s.6.27.6.6c0 .34-.26.6-.6.6s-.6-.26-.6-.6z"/><circle cx="6" cy="595.46" r=".68"/><circle cx="6" cy="581.77" r=".83"/><circle cx="6" cy="568.09" r=".95"/><path d="M4.9 554.4c0-.6.5-1.1 1.1-1.1.6 0 1.1.5 1.1 1.1 0 .6-.5 1.1-1.1 1.1-.6 0-1.1-.5-1.1-1.1z"/><circle cx="6" cy="540.72" r="1.22"/><circle cx="6" cy="527.03" r="1.33"/><circle cx="6" cy="513.35" r="1.48"/><circle cx="6" cy="499.66" r="1.56"/><circle cx="6" cy="485.98" r="1.71"/><circle cx="6" cy="472.29" r="1.82"/><circle cx="6" cy="458.61" r="1.94"/><path d="M3.95 444.92c0-1.13.92-2.05 2.05-2.05s2.05.92 2.05 2.05-.92 2.05-2.05 2.05-2.05-.92-2.05-2.05z"/><circle cx="6" cy="431.24" r="2.2"/><circle cx="6" cy="417.55" r="2.31"/><circle cx="6" cy="403.87" r="2.43"/><circle cx="6" cy="390.18" r="2.54"/><circle cx="6" cy="376.5" r="2.69"/><circle cx="6" cy="362.81" r="2.77"/><circle cx="6" cy="349.13" r="2.92"/><circle cx="6" cy="335.44" r="3.04"/><circle cx="6" cy="321.75" r="3.15"/><circle cx="6" cy="308.07" r="3.26"/><circle cx="6" cy="294.38" r="3.42"/><circle cx="6" cy="280.7" r="3.53"/><circle cx="6" cy="267.01" r="3.65"/><circle cx="6" cy="253.33" r="3.76"/><circle cx="6" cy="239.64" r="3.91"/><circle cx="6" cy="225.96" r="3.99"/><circle cx="6" cy="212.27" r="4.14"/><circle cx="6" cy="198.59" r="4.25"/><circle cx="6" cy="184.9" r="4.37"/><circle cx="6" cy="171.22" r="4.48"/><circle cx="6" cy="157.53" r="4.63"/><circle cx="6" cy="143.85" r="4.75"/><circle cx="6" cy="130.16" r="4.86"/><circle cx="6" cy="116.48" r="5.01"/><circle cx="6" cy="102.79" r="5.12"/><circle cx="6" cy="89.1" r="5.24"/><circle cx="6" cy="75.42" r="5.35"/><path d="M.5 61.74c0-3.04 2.46-5.5 5.5-5.5s5.5 2.46 5.5 5.5c0 3.03-2.46 5.5-5.5 5.5S.5 64.78.5 61.74z"/><circle cx="6" cy="48.05" r="5.62"/><circle cx="6" cy="34.36" r="5.73"/><circle cx="6" cy="20.68" r="5.85"/><circle cx="6" cy="7" r="6"/></g></svg>