<?xml version="1.0" encoding="utf-8"?>
<!-- Generator: Adobe Illustrator 16.0.3, SVG Export Plug-In . SVG Version: 6.00 Build 0)  -->
<!DOCTYPE svg PUBLIC "-//W3C//DTD SVG 1.1//EN" "http://www.w3.org/Graphics/SVG/1.1/DTD/svg11.dtd">
<svg version="1.1" id="Layer_1" xmlns="http://www.w3.org/2000/svg" xmlns:xlink="http://www.w3.org/1999/xlink" x="0px" y="0px"
   width="237.092px" height="4px" viewBox="-299.5 260.5 237.092 4" enable-background="new -299.5 260.5 237.092 4"
   xml:space="preserve">
<g>
  <circle fill="#AB2732" cx="-63.489" cy="262.508" r="2.008"/>
  <circle fill="#AB2732" cx="-67.489" cy="262.508" r="2.008"/>
  <circle fill="#AB2732" cx="-71.489" cy="262.508" r="1.964"/>
  <circle fill="#AB2732" cx="-75.489" cy="262.508" r="1.941"/>
  <circle fill="#AB2732" cx="-79.489" cy="262.508" r="1.896"/>
  <circle fill="#AB2732" cx="-83.489" cy="262.508" r="1.875"/>
  <circle fill="#AB2732" cx="-87.489" cy="262.508" r="1.83"/>
  <circle fill="#AB2732" cx="-91.489" cy="262.508" r="1.797"/>
  <circle fill="#AB2732" cx="-95.489" cy="262.508" r="1.764"/>
  <circle fill="#AB2732" cx="-99.489" cy="262.508" r="1.72"/>
  <circle fill="#AB2732" cx="-103.489" cy="262.508" r="1.697"/>
  <circle fill="#AB2732" cx="-107.489" cy="262.508" r="1.653"/>
  <circle fill="#AB2732" cx="-111.489" cy="262.508" r="1.631"/>
  <circle fill="#AB2732" cx="-115.489" cy="262.508" r="1.586"/>
  <circle fill="#AB2732" cx="-119.489" cy="262.508" r="1.553"/>
  <circle fill="#AB2732" cx="-123.489" cy="262.508" r="1.52"/>
  <circle fill="#AB2732" cx="-127.489" cy="262.508" r="1.486"/>
  <circle fill="#AB2732" cx="-131.489" cy="262.508" r="1.453"/>
  <circle fill="#AB2732" cx="-135.489" cy="262.508" r="1.42"/>
  <circle fill="#AB2732" cx="-139.489" cy="262.508" r="1.387"/>
  <circle fill="#AB2732" cx="-143.489" cy="262.508" r="1.342"/>
  <circle fill="#AB2732" cx="-147.489" cy="262.508" r="1.309"/>
  <circle fill="#AB2732" cx="-151.489" cy="262.508" r="1.275"/>
  <circle fill="#AB2732" cx="-155.489" cy="262.508" r="1.242"/>
  <circle fill="#AB2732" cx="-159.489" cy="262.508" r="1.209"/>
  <circle fill="#AB2732" cx="-163.489" cy="262.508" r="1.176"/>
  <circle fill="#AB2732" cx="-167.489" cy="262.508" r="1.143"/>
  <circle fill="#AB2732" cx="-171.489" cy="262.508" r="1.109"/>
  <circle fill="#AB2732" cx="-175.489" cy="262.508" r="1.076"/>
  <circle fill="#AB2732" cx="-179.489" cy="262.508" r="1.043"/>
  <circle fill="#AB2732" cx="-183.489" cy="262.508" r="1.01"/>
  <circle fill="#AB2732" cx="-187.489" cy="262.508" r="0.977"/>
  <circle fill="#AB2732" cx="-191.489" cy="262.508" r="0.942"/>
  <circle fill="#AB2732" cx="-195.489" cy="262.508" r="0.898"/>
  <circle fill="#AB2732" cx="-199.489" cy="262.508" r="0.876"/>
  <circle fill="#AB2732" cx="-203.489" cy="262.508" r="0.832"/>
  <circle fill="#AB2732" cx="-207.489" cy="262.508" r="0.81"/>
  <circle fill="#AB2732" cx="-211.489" cy="262.508" r="0.766"/>
  <circle fill="#AB2732" cx="-215.489" cy="262.508" r="0.743"/>
  <circle fill="#AB2732" cx="-219.489" cy="262.508" r="0.699"/>
  <circle fill="#AB2732" cx="-223.489" cy="262.508" r="0.677"/>
  <circle fill="#AB2732" cx="-227.489" cy="262.508" r="0.632"/>
  <circle fill="#AB2732" cx="-231.489" cy="262.508" r="0.599"/>
  <circle fill="#AB2732" cx="-235.489" cy="262.508" r="0.565"/>
  <circle fill="#AB2732" cx="-239.489" cy="262.508" r="0.532"/>
  <circle fill="#AB2732" cx="-243.489" cy="262.508" r="0.499"/>
  <circle fill="#AB2732" cx="-247.489" cy="262.508" r="0.455"/>
  <circle fill="#AB2732" cx="-251.489" cy="262.508" r="0.433"/>
  <circle fill="#AB2732" cx="-255.489" cy="262.508" r="0.388"/>
  <circle fill="#AB2732" cx="-259.489" cy="262.508" r="0.366"/>
  <circle fill="#AB2732" cx="-263.489" cy="262.508" r="0.321"/>
  <circle fill="#AB2732" cx="-267.489" cy="262.508" r="0.288"/>
  <circle fill="#AB2732" cx="-271.489" cy="262.508" r="0.255"/>
  <circle fill="#AB2732" cx="-275.489" cy="262.508" r="0.222"/>
  <circle fill="#AB2732" cx="-279.489" cy="262.508" r="0.188"/>
  <circle fill="#AB2732" cx="-283.489" cy="262.508" r="0.155"/>
  <circle fill="#AB2732" cx="-287.489" cy="262.508" r="0.122"/>
  <circle fill="#AB2732" cx="-291.489" cy="262.508" r="0.077"/>
  <circle fill="#AB2732" cx="-295.489" cy="262.508" r="0.044"/>
  <circle fill="#AB2732" cx="-299.489" cy="262.508" r="0.011"/>
</g>
</svg>