<svg xmlns="http://www.w3.org/2000/svg" width="12" height="664" viewBox="0 0 12 664"><g fill="#AB2732"><circle cx="6" cy=".11" r=".11"/><circle cx="6" cy="13.8" r=".23"/><path d="M6.34 27.5c0 .17-.15.33-.34.33-.2 0-.34-.16-.34-.34 0-.2.15-.36.34-.36.2 0 .34.16.34.35z"/><circle cx="6" cy="41.17" r=".46"/><path d="M6.6 54.86c0 .33-.27.6-.6.6s-.6-.27-.6-.6c0-.34.26-.6.6-.6s.6.26.6.6z"/><circle cx="6" cy="68.54" r=".68"/><circle cx="6" cy="82.23" r=".83"/><circle cx="6" cy="95.91" r=".95"/><path d="M7.1 109.6c0 .6-.5 1.1-1.1 1.1-.6 0-1.1-.5-1.1-1.1 0-.6.5-1.1 1.1-1.1.6 0 1.1.5 1.1 1.1z"/><circle cx="6" cy="123.28" r="1.22"/><circle cx="6" cy="136.97" r="1.33"/><circle cx="6" cy="150.65" r="1.48"/><circle cx="6" cy="164.34" r="1.56"/><circle cx="6" cy="178.02" r="1.71"/><circle cx="6" cy="191.71" r="1.82"/><circle cx="6" cy="205.39" r="1.94"/><path d="M8.05 219.08c0 1.13-.92 2.05-2.05 2.05s-2.05-.92-2.05-2.05.92-2.05 2.05-2.05 2.05.92 2.05 2.05z"/><circle cx="6" cy="232.76" r="2.2"/><circle cx="6" cy="246.45" r="2.31"/><circle cx="6" cy="260.13" r="2.43"/><circle cx="6" cy="273.82" r="2.54"/><circle cx="6" cy="287.5" r="2.69"/><circle cx="6" cy="301.19" r="2.77"/><circle cx="6" cy="314.87" r="2.92"/><circle cx="6" cy="328.56" r="3.04"/><circle cx="6" cy="342.25" r="3.15"/><circle cx="6" cy="355.93" r="3.26"/><circle cx="6" cy="369.62" r="3.42"/><circle cx="6" cy="383.3" r="3.53"/><circle cx="6" cy="396.99" r="3.65"/><circle cx="6" cy="410.67" r="3.76"/><circle cx="6" cy="424.36" r="3.91"/><circle cx="6" cy="438.04" r="3.99"/><circle cx="6" cy="451.73" r="4.14"/><circle cx="6" cy="465.41" r="4.25"/><circle cx="6" cy="479.1" r="4.37"/><circle cx="6" cy="492.78" r="4.48"/><circle cx="6" cy="506.47" r="4.63"/><circle cx="6" cy="520.15" r="4.75"/><circle cx="6" cy="533.84" r="4.86"/><circle cx="6" cy="547.52" r="5.01"/><circle cx="6" cy="561.21" r="5.12"/><circle cx="6" cy="574.9" r="5.24"/><circle cx="6" cy="588.58" r="5.35"/><path d="M11.5 602.26c0 3.04-2.46 5.5-5.5 5.5s-5.5-2.46-5.5-5.5 2.46-5.5 5.5-5.5 5.5 2.47 5.5 5.5z"/><circle cx="6" cy="615.95" r="5.62"/><circle cx="6" cy="629.64" r="5.73"/><circle cx="6" cy="643.32" r="5.85"/><circle cx="6" cy="657" r="6"/></g></svg>