<svg xmlns="http://www.w3.org/2000/svg" width="664" height="12" viewBox="0 0 664 12"><g fill="#AB2732"><circle cx=".11" cy="6" r=".11"/><circle cx="13.8" cy="6" r=".23"/><path d="M27.5 5.66c.17 0 .33.15.33.34 0 .2-.16.34-.34.34-.2 0-.36-.15-.36-.34 0-.2.16-.34.35-.34z"/><circle cx="41.17" cy="6" r=".46"/><path d="M54.86 5.4c.33 0 .6.27.6.6s-.27.6-.6.6c-.34 0-.6-.26-.6-.6s.26-.6.6-.6z"/><circle cx="68.54" cy="6" r=".68"/><circle cx="82.23" cy="6" r=".83"/><circle cx="95.91" cy="6" r=".95"/><path d="M109.6 4.9c.6 0 1.1.5 1.1 1.1 0 .6-.5 1.1-1.1 1.1-.6 0-1.1-.5-1.1-1.1 0-.6.5-1.1 1.1-1.1z"/><circle cx="123.28" cy="6" r="1.22"/><circle cx="136.97" cy="6" r="1.33"/><circle cx="150.65" cy="6" r="1.48"/><circle cx="164.34" cy="6" r="1.56"/><circle cx="178.02" cy="6" r="1.71"/><circle cx="191.71" cy="6" r="1.82"/><circle cx="205.39" cy="6" r="1.94"/><path d="M219.08 3.95c1.13 0 2.05.92 2.05 2.05s-.92 2.05-2.05 2.05-2.05-.92-2.05-2.05.92-2.05 2.05-2.05z"/><circle cx="232.76" cy="6" r="2.2"/><circle cx="246.45" cy="6" r="2.31"/><circle cx="260.13" cy="6" r="2.43"/><circle cx="273.82" cy="6" r="2.54"/><circle cx="287.5" cy="6" r="2.69"/><circle cx="301.19" cy="6" r="2.77"/><circle cx="314.87" cy="6" r="2.92"/><circle cx="328.56" cy="6" r="3.04"/><circle cx="342.25" cy="6" r="3.15"/><circle cx="355.93" cy="6" r="3.26"/><circle cx="369.62" cy="6" r="3.42"/><circle cx="383.3" cy="6" r="3.53"/><circle cx="396.99" cy="6" r="3.65"/><circle cx="410.67" cy="6" r="3.76"/><circle cx="424.36" cy="6" r="3.91"/><circle cx="438.04" cy="6" r="3.99"/><circle cx="451.73" cy="6" r="4.14"/><circle cx="465.41" cy="6" r="4.25"/><circle cx="479.1" cy="6" r="4.37"/><circle cx="492.78" cy="6" r="4.48"/><circle cx="506.47" cy="6" r="4.63"/><circle cx="520.15" cy="6" r="4.75"/><circle cx="533.84" cy="6" r="4.86"/><circle cx="547.52" cy="6" r="5.01"/><circle cx="561.21" cy="6" r="5.12"/><circle cx="574.9" cy="6" r="5.24"/><circle cx="588.58" cy="6" r="5.35"/><path d="M602.26.5c3.04 0 5.5 2.46 5.5 5.5s-2.46 5.5-5.5 5.5-5.5-2.46-5.5-5.5 2.47-5.5 5.5-5.5z"/><circle cx="615.95" cy="6" r="5.62"/><circle cx="629.64" cy="6" r="5.73"/><circle cx="643.32" cy="6" r="5.85"/><circle cx="657" cy="6" r="6"/></g></svg>