<?xml version="1.0" standalone="no"?>
<!DOCTYPE svg PUBLIC "-//W3C//DTD SVG 20010904//EN"
 "http://www.w3.org/TR/2001/REC-SVG-20010904/DTD/svg10.dtd">
<svg version="1.0" xmlns="http://www.w3.org/2000/svg"
 width="700.000000pt" height="700.000000pt" viewBox="0 0 700.000000 700.000000"
 preserveAspectRatio="xMidYMid meet">
<metadata>
Created by potrace 1.11, written by Peter Selinger 2001-2013
</metadata>
<g transform="translate(0.000000,700.000000) scale(0.100000,-0.100000)"
fill="#000000" stroke="none">
<path d="M0 3500 l0 -3500 3500 0 3500 0 0 3500 0 3500 -3500 0 -3500 0 0
-3500z m5904 2225 c188 -51 322 -197 450 -494 65 -152 68 -181 23 -249 -110
-162 -378 -399 -476 -418 -84 -17 -494 183 -656 320 -35 30 -27 40 41 50 54 7
104 32 104 51 0 30 -60 46 -255 69 -105 13 -483 36 -583 36 -49 0 -171 -314
-282 -730 -49 -181 -190 -791 -185 -798 1 -1 63 11 136 27 74 16 171 35 217
42 97 15 100 13 126 -66 37 -115 31 -203 -26 -374 -45 -139 -40 -135 -248
-151 -96 -7 -206 -15 -245 -19 l-70 -6 -17 -95 c-58 -326 -164 -971 -202
-1238 -25 -173 -50 -320 -57 -328 -6 -8 -17 -14 -23 -14 -26 0 -237 94 -268
120 l-33 28 -3 732 -4 733 -76 -7 c-43 -4 -87 -9 -99 -12 -13 -4 -29 2 -41 14
-18 18 -20 30 -16 79 10 116 36 269 49 289 10 16 39 28 103 44 l90 22 6 151
c3 84 11 339 16 567 6 228 15 534 21 679 5 145 7 266 5 269 -5 4 -255 -12
-363 -24 -51 -6 -54 -8 -82 -58 -72 -124 -168 -416 -265 -797 -160 -631 -378
-1802 -501 -2689 -33 -242 -32 -239 -59 -246 -27 -6 -234 100 -276 142 l-25
24 -5 448 c-8 686 10 1855 41 2750 6 167 9 306 6 308 -10 10 -845 -98 -1007
-130 -74 -15 -75 -14 -94 7 -40 47 14 184 124 314 l58 69 113 32 c63 17 150
40 194 51 1152 282 4182 595 4619 476z"/>
</g>
</svg>
